%TF.GenerationSoftware,KiCad,Pcbnew,8.0.1*%
%TF.CreationDate,2024-04-08T11:37:36-05:00*%
%TF.ProjectId,C1,43312e6b-6963-4616-945f-706362585858,rev?*%
%TF.SameCoordinates,Original*%
%TF.FileFunction,Soldermask,Bot*%
%TF.FilePolarity,Negative*%
%FSLAX46Y46*%
G04 Gerber Fmt 4.6, Leading zero omitted, Abs format (unit mm)*
G04 Created by KiCad (PCBNEW 8.0.1) date 2024-04-08 11:37:36*
%MOMM*%
%LPD*%
G01*
G04 APERTURE LIST*
G04 Aperture macros list*
%AMRoundRect*
0 Rectangle with rounded corners*
0 $1 Rounding radius*
0 $2 $3 $4 $5 $6 $7 $8 $9 X,Y pos of 4 corners*
0 Add a 4 corners polygon primitive as box body*
4,1,4,$2,$3,$4,$5,$6,$7,$8,$9,$2,$3,0*
0 Add four circle primitives for the rounded corners*
1,1,$1+$1,$2,$3*
1,1,$1+$1,$4,$5*
1,1,$1+$1,$6,$7*
1,1,$1+$1,$8,$9*
0 Add four rect primitives between the rounded corners*
20,1,$1+$1,$2,$3,$4,$5,0*
20,1,$1+$1,$4,$5,$6,$7,0*
20,1,$1+$1,$6,$7,$8,$9,0*
20,1,$1+$1,$8,$9,$2,$3,0*%
G04 Aperture macros list end*
%ADD10C,6.000000*%
%ADD11C,1.701800*%
%ADD12C,1.879600*%
%ADD13C,2.286000*%
%ADD14C,3.301600*%
%ADD15RoundRect,0.250000X-0.725000X0.600000X-0.725000X-0.600000X0.725000X-0.600000X0.725000X0.600000X0*%
%ADD16O,1.950000X1.700000*%
%ADD17RoundRect,0.250000X0.725000X-0.600000X0.725000X0.600000X-0.725000X0.600000X-0.725000X-0.600000X0*%
%ADD18C,1.700000*%
%ADD19R,2.000000X2.000000*%
%ADD20C,2.000000*%
%ADD21C,6.204000*%
%ADD22RoundRect,0.102000X-3.000000X-3.000000X3.000000X-3.000000X3.000000X3.000000X-3.000000X3.000000X0*%
%ADD23R,1.900000X1.900000*%
%ADD24C,1.900000*%
%ADD25RoundRect,0.250000X-0.750000X0.600000X-0.750000X-0.600000X0.750000X-0.600000X0.750000X0.600000X0*%
%ADD26O,2.000000X1.700000*%
%ADD27R,1.700000X1.700000*%
%ADD28O,1.700000X1.700000*%
%ADD29RoundRect,0.102000X0.765000X-0.765000X0.765000X0.765000X-0.765000X0.765000X-0.765000X-0.765000X0*%
%ADD30C,1.734000*%
%ADD31C,1.524000*%
%ADD32C,3.200000*%
%ADD33C,1.500000*%
%ADD34C,2.032000*%
%ADD35C,4.101600*%
%TA.AperFunction,Profile*%
%ADD36C,0.100000*%
%TD*%
%TA.AperFunction,Profile*%
%ADD37C,0.500000*%
%TD*%
G04 APERTURE END LIST*
D10*
%TO.C,H2*%
X71550000Y-127270000D03*
%TD*%
D11*
%TO.C,J4*%
X136780000Y-110647000D03*
X140348000Y-110697000D03*
D12*
X148464000Y-95915000D03*
D13*
X120970000Y-111160000D03*
D12*
X90044000Y-95915000D03*
X148464000Y-98455000D03*
X90044000Y-98455000D03*
X148464000Y-100995000D03*
X90044000Y-100995000D03*
X148464000Y-103535000D03*
X90044000Y-103535000D03*
X148464000Y-106075000D03*
X90044000Y-106075000D03*
X148464000Y-108615000D03*
D13*
X117470000Y-111160000D03*
D12*
X90044000Y-108615000D03*
D14*
X147194000Y-111663000D03*
X147194000Y-92613000D03*
X91314000Y-111663000D03*
X91314000Y-92613000D03*
%TD*%
D15*
%TO.C,GPS-M10Q1*%
X79950000Y-95870000D03*
D16*
X79950000Y-98370000D03*
X79950000Y-100870000D03*
X79950000Y-103370000D03*
X79950000Y-105870000D03*
X79950000Y-108370000D03*
%TD*%
D17*
%TO.C,LIDAR1*%
X70590000Y-77410000D03*
D18*
X70590000Y-74910000D03*
X70590000Y-72410000D03*
X70590000Y-69910000D03*
%TD*%
D15*
%TO.C,J1*%
X204530000Y-75720000D03*
D18*
X204530000Y-78220000D03*
X204530000Y-80720000D03*
X204530000Y-83220000D03*
X204530000Y-85720000D03*
X204530000Y-88220000D03*
%TD*%
D17*
%TO.C,Encoder1*%
X70740000Y-89500000D03*
D16*
X70740000Y-87000000D03*
X70740000Y-84500000D03*
%TD*%
D15*
%TO.C,J5*%
X209500000Y-75720000D03*
D18*
X209500000Y-78220000D03*
X209500000Y-80720000D03*
X209500000Y-83220000D03*
X209500000Y-85720000D03*
X209500000Y-88220000D03*
%TD*%
D17*
%TO.C,LIDAR4*%
X84582000Y-77210000D03*
D16*
X84582000Y-74710000D03*
X84582000Y-72210000D03*
X84582000Y-69710000D03*
%TD*%
D10*
%TO.C,H3*%
X219060000Y-127170000D03*
%TD*%
D19*
%TO.C,U1*%
X123962000Y-124778000D03*
D20*
X121422000Y-124778000D03*
X118882000Y-124778000D03*
%TD*%
D21*
%TO.C,J8*%
X172000000Y-124820000D03*
D22*
X164800000Y-124820000D03*
%TD*%
D23*
%TO.C,SW2*%
X156310000Y-121720000D03*
D24*
X156310000Y-124220000D03*
X156310000Y-126720000D03*
%TD*%
D19*
%TO.C,BZ1*%
X78440000Y-122360000D03*
D20*
X86040000Y-122360000D03*
%TD*%
D10*
%TO.C,H4*%
X218940000Y-63850000D03*
%TD*%
D25*
%TO.C,J10*%
X179900000Y-123210000D03*
D26*
X179900000Y-125710000D03*
%TD*%
D15*
%TO.C,GPS-M10Q5883*%
X70590000Y-95840000D03*
D18*
X70590000Y-98340000D03*
X70590000Y-100840000D03*
X70590000Y-103340000D03*
D16*
X70590000Y-105840000D03*
X70590000Y-108340000D03*
%TD*%
D27*
%TO.C,NRF24L1*%
X207240000Y-62670000D03*
D28*
X204700000Y-62670000D03*
X207240000Y-65210000D03*
X204700000Y-65210000D03*
X207240000Y-67750000D03*
X204700000Y-67750000D03*
X207240000Y-70290000D03*
X204700000Y-70290000D03*
%TD*%
D29*
%TO.C,U3*%
X160210000Y-116720000D03*
D30*
X162750000Y-116720000D03*
X165290000Y-116720000D03*
X167830000Y-116720000D03*
X170370000Y-116720000D03*
X172910000Y-116720000D03*
X175450000Y-116720000D03*
X177990000Y-116720000D03*
X180530000Y-116720000D03*
X183070000Y-116720000D03*
X185610000Y-116720000D03*
X188150000Y-116720000D03*
X190690000Y-116720000D03*
X193230000Y-116720000D03*
X195770000Y-116720000D03*
X198310000Y-116720000D03*
X200850000Y-116720000D03*
X203390000Y-116720000D03*
X205930000Y-116720000D03*
X208470000Y-116720000D03*
X211010000Y-116720000D03*
X213550000Y-116720000D03*
X160210000Y-93860000D03*
X162750000Y-93860000D03*
X165290000Y-93860000D03*
X167830000Y-93860000D03*
X170370000Y-93860000D03*
X172910000Y-93860000D03*
X175450000Y-93860000D03*
X177990000Y-93860000D03*
X180530000Y-93860000D03*
X183070000Y-93860000D03*
X185610000Y-93860000D03*
X188150000Y-93860000D03*
X190690000Y-93860000D03*
X193230000Y-93860000D03*
X195770000Y-93860000D03*
X198310000Y-93860000D03*
X200850000Y-93860000D03*
X203390000Y-93860000D03*
X205930000Y-93860000D03*
X208470000Y-93860000D03*
X211010000Y-93860000D03*
X213550000Y-93860000D03*
%TD*%
D31*
%TO.C,BMP280*%
X170547000Y-63927000D03*
X168007000Y-63927000D03*
X165467000Y-63927000D03*
X162927000Y-63927000D03*
X160387000Y-63927000D03*
X157847000Y-63927000D03*
%TD*%
D17*
%TO.C,Pitot1*%
X70190000Y-119840000D03*
D16*
X70190000Y-117340000D03*
X70190000Y-114840000D03*
%TD*%
D32*
%TO.C,Oled1*%
X96590000Y-84730000D03*
X119590000Y-84730000D03*
X96590000Y-64730000D03*
X119590000Y-64730000D03*
D33*
X96090000Y-78540000D03*
X96090000Y-76000000D03*
X96090000Y-73460000D03*
X96090000Y-70920000D03*
%TD*%
D17*
%TO.C,LIDAR2*%
X75138000Y-77410000D03*
D16*
X75138000Y-74910000D03*
X75138000Y-72410000D03*
X75138000Y-69910000D03*
%TD*%
D15*
%TO.C,J6*%
X214660000Y-75720000D03*
D18*
X214660000Y-78220000D03*
X214660000Y-80720000D03*
X214660000Y-83220000D03*
X214660000Y-85720000D03*
X214660000Y-88220000D03*
%TD*%
D34*
%TO.C,J3*%
X132526200Y-82590300D03*
X135066200Y-82590300D03*
X137606200Y-82590300D03*
X140146200Y-82590300D03*
X142686200Y-82590300D03*
X145226200Y-82590300D03*
X135066200Y-64810300D03*
X137606200Y-64810300D03*
X140146200Y-64810300D03*
X142686200Y-64810300D03*
D35*
X128081200Y-66080300D03*
X128081200Y-81320300D03*
X149671200Y-66080300D03*
X149671200Y-81320300D03*
%TD*%
D25*
%TO.C,J9*%
X188840000Y-123220000D03*
D26*
X188840000Y-125720000D03*
%TD*%
D31*
%TO.C,Gy-271*%
X157592000Y-77187000D03*
X157592000Y-79727000D03*
X157592000Y-82267000D03*
X157592000Y-84807000D03*
X157592000Y-87347000D03*
%TD*%
D17*
%TO.C,LIDAR3*%
X79710000Y-77190000D03*
D16*
X79710000Y-74690000D03*
X79710000Y-72190000D03*
X79710000Y-69690000D03*
%TD*%
D31*
%TO.C,J7*%
X179197000Y-88885000D03*
X181737000Y-88885000D03*
X184277000Y-88885000D03*
X186817000Y-88885000D03*
X189357000Y-88885000D03*
X191897000Y-88885000D03*
X194437000Y-88885000D03*
X196977000Y-88885000D03*
%TD*%
D10*
%TO.C,H1*%
X71520000Y-63670000D03*
%TD*%
D27*
%TO.C,J2*%
X194430000Y-81630000D03*
D28*
X191890000Y-81630000D03*
X189350000Y-81630000D03*
X186810000Y-81630000D03*
X184270000Y-81630000D03*
X181730000Y-81630000D03*
%TD*%
D36*
X121264362Y-84734361D02*
G75*
G02*
X117935638Y-84734361I-1664362J0D01*
G01*
X117935638Y-84734361D02*
G75*
G02*
X121264362Y-84734361I1664362J0D01*
G01*
X197253146Y-76173145D02*
G75*
G02*
X194706854Y-76173145I-1273146J0D01*
G01*
X194706854Y-76173145D02*
G75*
G02*
X197253146Y-76173145I1273146J0D01*
G01*
D37*
X161119995Y-59574831D02*
X220354932Y-59539894D01*
X220533095Y-59542393D01*
X220887181Y-59582293D01*
X221234573Y-59661586D01*
X221570903Y-59779275D01*
X221891942Y-59933881D01*
X222193652Y-60123460D01*
X222472239Y-60345626D01*
X222724200Y-60597587D01*
X222946366Y-60876174D01*
X223135945Y-61177884D01*
X223290551Y-61498923D01*
X223408240Y-61835253D01*
X223487533Y-62182645D01*
X223527433Y-62536731D01*
X223529932Y-62714894D01*
X223459995Y-127919831D01*
X223457498Y-128097995D01*
X223417602Y-128452082D01*
X223338311Y-128799476D01*
X223220624Y-129135808D01*
X223066019Y-129456848D01*
X222876441Y-129758560D01*
X222654274Y-130037148D01*
X222402312Y-130289110D01*
X222123724Y-130511277D01*
X221822012Y-130700855D01*
X221500972Y-130855460D01*
X221164640Y-130973147D01*
X220817246Y-131052438D01*
X220463159Y-131092334D01*
X220284995Y-131094831D01*
X70289995Y-131059831D01*
X70111831Y-131057334D01*
X69757744Y-131017438D01*
X69410350Y-130938147D01*
X69074018Y-130820460D01*
X68752978Y-130665855D01*
X68451266Y-130476277D01*
X68172678Y-130254110D01*
X67920716Y-130002148D01*
X67698549Y-129723560D01*
X67508971Y-129421848D01*
X67354366Y-129100808D01*
X67236679Y-128764476D01*
X67157388Y-128417082D01*
X67117492Y-128062995D01*
X67114995Y-127884831D01*
X67200059Y-62734895D01*
X67202558Y-62556732D01*
X67242458Y-62202646D01*
X67321751Y-61855254D01*
X67439440Y-61518923D01*
X67594046Y-61197885D01*
X67783624Y-60896175D01*
X68005791Y-60617588D01*
X68257752Y-60365627D01*
X68536339Y-60143460D01*
X68838049Y-59953882D01*
X69159087Y-59799276D01*
X69495418Y-59681587D01*
X69842810Y-59602294D01*
X70196896Y-59562394D01*
X70540000Y-59500000D01*
X161119995Y-59574831D01*
D36*
X181203146Y-76183145D02*
G75*
G02*
X178656854Y-76183145I-1273146J0D01*
G01*
X178656854Y-76183145D02*
G75*
G02*
X181203146Y-76183145I1273146J0D01*
G01*
X160133146Y-71853145D02*
G75*
G02*
X157586854Y-71853145I-1273146J0D01*
G01*
X157586854Y-71853145D02*
G75*
G02*
X160133146Y-71853145I1273146J0D01*
G01*
X170576291Y-71780000D02*
G75*
G02*
X168029999Y-71780000I-1273146J0D01*
G01*
X168029999Y-71780000D02*
G75*
G02*
X170576291Y-71780000I1273146J0D01*
G01*
M02*
