%TF.GenerationSoftware,KiCad,Pcbnew,(7.0.0)*%
%TF.CreationDate,2024-03-05T16:37:59-05:00*%
%TF.ProjectId,C1,43312e6b-6963-4616-945f-706362585858,rev?*%
%TF.SameCoordinates,Original*%
%TF.FileFunction,Legend,Bot*%
%TF.FilePolarity,Positive*%
%FSLAX46Y46*%
G04 Gerber Fmt 4.6, Leading zero omitted, Abs format (unit mm)*
G04 Created by KiCad (PCBNEW (7.0.0)) date 2024-03-05 16:37:59*
%MOMM*%
%LPD*%
G01*
G04 APERTURE LIST*
%ADD10C,0.150000*%
%ADD11C,0.120000*%
%TA.AperFunction,Profile*%
%ADD12C,0.100000*%
%TD*%
%TA.AperFunction,Profile*%
%ADD13C,0.500000*%
%TD*%
G04 APERTURE END LIST*
D10*
%TO.C,J2*%
X201303333Y-68607380D02*
X201303333Y-69321666D01*
X201303333Y-69321666D02*
X201350952Y-69464523D01*
X201350952Y-69464523D02*
X201446190Y-69559761D01*
X201446190Y-69559761D02*
X201589047Y-69607380D01*
X201589047Y-69607380D02*
X201684285Y-69607380D01*
X200874761Y-68702619D02*
X200827142Y-68655000D01*
X200827142Y-68655000D02*
X200731904Y-68607380D01*
X200731904Y-68607380D02*
X200493809Y-68607380D01*
X200493809Y-68607380D02*
X200398571Y-68655000D01*
X200398571Y-68655000D02*
X200350952Y-68702619D01*
X200350952Y-68702619D02*
X200303333Y-68797857D01*
X200303333Y-68797857D02*
X200303333Y-68893095D01*
X200303333Y-68893095D02*
X200350952Y-69035952D01*
X200350952Y-69035952D02*
X200922380Y-69607380D01*
X200922380Y-69607380D02*
X200303333Y-69607380D01*
%TO.C,J3*%
G36*
X152222700Y-63913100D02*
G01*
X145383000Y-63913100D01*
X145383000Y-63896300D01*
X152222700Y-63896300D01*
X152222700Y-63913100D01*
G37*
G36*
X152222700Y-63929800D02*
G01*
X145383000Y-63929800D01*
X145383000Y-63913100D01*
X152222700Y-63913100D01*
X152222700Y-63929800D01*
G37*
G36*
X152222700Y-63946600D02*
G01*
X145383000Y-63946600D01*
X145383000Y-63929800D01*
X152222700Y-63929800D01*
X152222700Y-63946600D01*
G37*
G36*
X152222700Y-63963400D02*
G01*
X145383000Y-63963400D01*
X145383000Y-63946600D01*
X152222700Y-63946600D01*
X152222700Y-63963400D01*
G37*
G36*
X152222700Y-63996900D02*
G01*
X145383000Y-63996900D01*
X145383000Y-63980100D01*
X152222700Y-63980100D01*
X152222700Y-63996900D01*
G37*
G36*
X152222700Y-64013700D02*
G01*
X145383000Y-64013700D01*
X145383000Y-63996900D01*
X152222700Y-63996900D01*
X152222700Y-64013700D01*
G37*
G36*
X152222700Y-64030400D02*
G01*
X145383000Y-64030400D01*
X145383000Y-64013700D01*
X152222700Y-64013700D01*
X152222700Y-64030400D01*
G37*
G36*
X152222700Y-64047200D02*
G01*
X145383000Y-64047200D01*
X145383000Y-64030400D01*
X152222700Y-64030400D01*
X152222700Y-64047200D01*
G37*
G36*
X152222700Y-64064000D02*
G01*
X145383000Y-64064000D01*
X145383000Y-64047200D01*
X152222700Y-64047200D01*
X152222700Y-64064000D01*
G37*
G36*
X152222700Y-64080700D02*
G01*
X145383000Y-64080700D01*
X145383000Y-64064000D01*
X152222700Y-64064000D01*
X152222700Y-64080700D01*
G37*
G36*
X152222700Y-64097500D02*
G01*
X145383000Y-64097500D01*
X145383000Y-64080700D01*
X152222700Y-64080700D01*
X152222700Y-64097500D01*
G37*
G36*
X152222700Y-64114300D02*
G01*
X145383000Y-64114300D01*
X145383000Y-64097500D01*
X152222700Y-64097500D01*
X152222700Y-64114300D01*
G37*
G36*
X152222700Y-64131000D02*
G01*
X145383000Y-64131000D01*
X145383000Y-64114300D01*
X152222700Y-64114300D01*
X152222700Y-64131000D01*
G37*
G36*
X152222700Y-64147800D02*
G01*
X145383000Y-64147800D01*
X145383000Y-64131000D01*
X152222700Y-64131000D01*
X152222700Y-64147800D01*
G37*
G36*
X152222700Y-64181300D02*
G01*
X145383000Y-64181300D01*
X145383000Y-64164500D01*
X152222700Y-64164500D01*
X152222700Y-64181300D01*
G37*
G36*
X152222700Y-64198100D02*
G01*
X145383000Y-64198100D01*
X145383000Y-64181300D01*
X152222700Y-64181300D01*
X152222700Y-64198100D01*
G37*
G36*
X152222700Y-64214800D02*
G01*
X145383000Y-64214800D01*
X145383000Y-64198100D01*
X152222700Y-64198100D01*
X152222700Y-64214800D01*
G37*
G36*
X152222700Y-64231600D02*
G01*
X145383000Y-64231600D01*
X145383000Y-64214800D01*
X152222700Y-64214800D01*
X152222700Y-64231600D01*
G37*
G36*
X152222700Y-64248400D02*
G01*
X145383000Y-64248400D01*
X145383000Y-64231600D01*
X152222700Y-64231600D01*
X152222700Y-64248400D01*
G37*
G36*
X152222700Y-64265100D02*
G01*
X145383000Y-64265100D01*
X145383000Y-64248400D01*
X152222700Y-64248400D01*
X152222700Y-64265100D01*
G37*
G36*
X152222700Y-64281900D02*
G01*
X145383000Y-64281900D01*
X145383000Y-64265100D01*
X152222700Y-64265100D01*
X152222700Y-64281900D01*
G37*
G36*
X152591600Y-63913100D02*
G01*
X152323300Y-63913100D01*
X152323300Y-63896300D01*
X152591600Y-63896300D01*
X152591600Y-63913100D01*
G37*
G36*
X152591600Y-63929800D02*
G01*
X152323300Y-63929800D01*
X152323300Y-63913100D01*
X152591600Y-63913100D01*
X152591600Y-63929800D01*
G37*
G36*
X152591600Y-63946600D02*
G01*
X152323300Y-63946600D01*
X152323300Y-63929800D01*
X152591600Y-63929800D01*
X152591600Y-63946600D01*
G37*
G36*
X152591600Y-63963400D02*
G01*
X152323300Y-63963400D01*
X152323300Y-63946600D01*
X152591600Y-63946600D01*
X152591600Y-63963400D01*
G37*
G36*
X152591600Y-63980100D02*
G01*
X152323300Y-63980100D01*
X152323300Y-63963400D01*
X152591600Y-63963400D01*
X152591600Y-63980100D01*
G37*
G36*
X152591600Y-63996900D02*
G01*
X152323300Y-63996900D01*
X152323300Y-63980100D01*
X152591600Y-63980100D01*
X152591600Y-63996900D01*
G37*
G36*
X152591600Y-64013700D02*
G01*
X152323300Y-64013700D01*
X152323300Y-63996900D01*
X152591600Y-63996900D01*
X152591600Y-64013700D01*
G37*
G36*
X152591600Y-64030400D02*
G01*
X152323300Y-64030400D01*
X152323300Y-64013700D01*
X152591600Y-64013700D01*
X152591600Y-64030400D01*
G37*
G36*
X152591600Y-64064000D02*
G01*
X152323300Y-64064000D01*
X152323300Y-64047200D01*
X152591600Y-64047200D01*
X152591600Y-64064000D01*
G37*
G36*
X152591600Y-64080700D02*
G01*
X152323300Y-64080700D01*
X152323300Y-64064000D01*
X152591600Y-64064000D01*
X152591600Y-64080700D01*
G37*
G36*
X152591600Y-64097500D02*
G01*
X152323300Y-64097500D01*
X152323300Y-64080700D01*
X152591600Y-64080700D01*
X152591600Y-64097500D01*
G37*
G36*
X152591600Y-64114300D02*
G01*
X152323300Y-64114300D01*
X152323300Y-64097500D01*
X152591600Y-64097500D01*
X152591600Y-64114300D01*
G37*
G36*
X152591600Y-64147800D02*
G01*
X152323300Y-64147800D01*
X152323300Y-64131000D01*
X152591600Y-64131000D01*
X152591600Y-64147800D01*
G37*
G36*
X152591600Y-64164500D02*
G01*
X152323300Y-64164500D01*
X152323300Y-64147800D01*
X152591600Y-64147800D01*
X152591600Y-64164500D01*
G37*
G36*
X152591600Y-64181300D02*
G01*
X152323300Y-64181300D01*
X152323300Y-64164500D01*
X152591600Y-64164500D01*
X152591600Y-64181300D01*
G37*
G36*
X152591600Y-64198100D02*
G01*
X152323300Y-64198100D01*
X152323300Y-64181300D01*
X152591600Y-64181300D01*
X152591600Y-64198100D01*
G37*
G36*
X152591600Y-64214800D02*
G01*
X152323300Y-64214800D01*
X152323300Y-64198100D01*
X152591600Y-64198100D01*
X152591600Y-64214800D01*
G37*
G36*
X152591600Y-64231600D02*
G01*
X152323300Y-64231600D01*
X152323300Y-64214800D01*
X152591600Y-64214800D01*
X152591600Y-64231600D01*
G37*
G36*
X152591600Y-64248400D02*
G01*
X152323300Y-64248400D01*
X152323300Y-64231600D01*
X152591600Y-64231600D01*
X152591600Y-64248400D01*
G37*
G36*
X152591600Y-64265100D02*
G01*
X152323300Y-64265100D01*
X152323300Y-64248400D01*
X152591600Y-64248400D01*
X152591600Y-64265100D01*
G37*
G36*
X152591600Y-64281900D02*
G01*
X152323300Y-64281900D01*
X152323300Y-64265100D01*
X152591600Y-64265100D01*
X152591600Y-64281900D01*
G37*
G36*
X155357600Y-64030400D02*
G01*
X154687100Y-64030400D01*
X154687100Y-64013700D01*
X155357600Y-64013700D01*
X155357600Y-64030400D01*
G37*
G36*
X155357600Y-64047200D02*
G01*
X154687100Y-64047200D01*
X154687100Y-64030400D01*
X155357600Y-64030400D01*
X155357600Y-64047200D01*
G37*
G36*
X155357600Y-64064000D02*
G01*
X154687100Y-64064000D01*
X154687100Y-64047200D01*
X155357600Y-64047200D01*
X155357600Y-64064000D01*
G37*
G36*
X155357600Y-64080700D02*
G01*
X154687100Y-64080700D01*
X154687100Y-64064000D01*
X155357600Y-64064000D01*
X155357600Y-64080700D01*
G37*
G36*
X155324100Y-64097500D02*
G01*
X154687100Y-64097500D01*
X154687100Y-64080700D01*
X155324100Y-64080700D01*
X155324100Y-64097500D01*
G37*
G36*
X155357600Y-63946600D02*
G01*
X155039100Y-63946600D01*
X155039100Y-63929800D01*
X155357600Y-63929800D01*
X155357600Y-63946600D01*
G37*
G36*
X155357600Y-63963400D02*
G01*
X155039100Y-63963400D01*
X155039100Y-63946600D01*
X155357600Y-63946600D01*
X155357600Y-63963400D01*
G37*
G36*
X155357600Y-63980100D02*
G01*
X155039100Y-63980100D01*
X155039100Y-63963400D01*
X155357600Y-63963400D01*
X155357600Y-63980100D01*
G37*
G36*
X155357600Y-63996900D02*
G01*
X155039100Y-63996900D01*
X155039100Y-63980100D01*
X155357600Y-63980100D01*
X155357600Y-63996900D01*
G37*
G36*
X155357600Y-64013700D02*
G01*
X155039100Y-64013700D01*
X155039100Y-63996900D01*
X155357600Y-63996900D01*
X155357600Y-64013700D01*
G37*
G36*
X155357600Y-63913100D02*
G01*
X155055900Y-63913100D01*
X155055900Y-63896300D01*
X155357600Y-63896300D01*
X155357600Y-63913100D01*
G37*
G36*
X155357600Y-63929800D02*
G01*
X155055900Y-63929800D01*
X155055900Y-63913100D01*
X155357600Y-63913100D01*
X155357600Y-63929800D01*
G37*
G36*
X155877300Y-64231600D02*
G01*
X155055900Y-64231600D01*
X155055900Y-64214800D01*
X155877300Y-64214800D01*
X155877300Y-64231600D01*
G37*
G36*
X155877300Y-64248400D02*
G01*
X155055900Y-64248400D01*
X155055900Y-64231600D01*
X155877300Y-64231600D01*
X155877300Y-64248400D01*
G37*
G36*
X155877300Y-64265100D02*
G01*
X155055900Y-64265100D01*
X155055900Y-64248400D01*
X155877300Y-64248400D01*
X155877300Y-64265100D01*
G37*
G36*
X155877300Y-64281900D02*
G01*
X155055900Y-64281900D01*
X155055900Y-64265100D01*
X155877300Y-64265100D01*
X155877300Y-64281900D01*
G37*
G36*
X155877300Y-64298700D02*
G01*
X155055900Y-64298700D01*
X155055900Y-64281900D01*
X155877300Y-64281900D01*
X155877300Y-64298700D01*
G37*
G36*
X155357600Y-64315400D02*
G01*
X155055900Y-64315400D01*
X155055900Y-64298700D01*
X155357600Y-64298700D01*
X155357600Y-64315400D01*
G37*
G36*
X155340800Y-64332200D02*
G01*
X155055900Y-64332200D01*
X155055900Y-64315400D01*
X155340800Y-64315400D01*
X155340800Y-64332200D01*
G37*
G36*
X155340800Y-64348900D02*
G01*
X155055900Y-64348900D01*
X155055900Y-64332200D01*
X155340800Y-64332200D01*
X155340800Y-64348900D01*
G37*
G36*
X155340800Y-64365700D02*
G01*
X155055900Y-64365700D01*
X155055900Y-64348900D01*
X155340800Y-64348900D01*
X155340800Y-64365700D01*
G37*
G36*
X155340800Y-64382500D02*
G01*
X155055900Y-64382500D01*
X155055900Y-64365700D01*
X155340800Y-64365700D01*
X155340800Y-64382500D01*
G37*
G36*
X155340800Y-64399200D02*
G01*
X155055900Y-64399200D01*
X155055900Y-64382500D01*
X155340800Y-64382500D01*
X155340800Y-64399200D01*
G37*
G36*
X155877300Y-64214800D02*
G01*
X155139700Y-64214800D01*
X155139700Y-64198100D01*
X155877300Y-64198100D01*
X155877300Y-64214800D01*
G37*
G36*
X157201700Y-65405100D02*
G01*
X155173200Y-65405100D01*
X155173200Y-65388300D01*
X157201700Y-65388300D01*
X157201700Y-65405100D01*
G37*
G36*
X157201700Y-65421800D02*
G01*
X155173200Y-65421800D01*
X155173200Y-65405100D01*
X157201700Y-65405100D01*
X157201700Y-65421800D01*
G37*
G36*
X155927600Y-65438600D02*
G01*
X155173200Y-65438600D01*
X155173200Y-65421800D01*
X155927600Y-65421800D01*
X155927600Y-65438600D01*
G37*
G36*
X155877300Y-65455400D02*
G01*
X155173200Y-65455400D01*
X155173200Y-65438600D01*
X155877300Y-65438600D01*
X155877300Y-65455400D01*
G37*
G36*
X155860500Y-65472100D02*
G01*
X155173200Y-65472100D01*
X155173200Y-65455400D01*
X155860500Y-65455400D01*
X155860500Y-65472100D01*
G37*
G36*
X155843800Y-65488900D02*
G01*
X155173200Y-65488900D01*
X155173200Y-65472100D01*
X155843800Y-65472100D01*
X155843800Y-65488900D01*
G37*
G36*
X155843800Y-65505700D02*
G01*
X155173200Y-65505700D01*
X155173200Y-65488900D01*
X155843800Y-65488900D01*
X155843800Y-65505700D01*
G37*
G36*
X155827000Y-65522400D02*
G01*
X155173200Y-65522400D01*
X155173200Y-65505700D01*
X155827000Y-65505700D01*
X155827000Y-65522400D01*
G37*
G36*
X155827000Y-65539200D02*
G01*
X155173200Y-65539200D01*
X155173200Y-65522400D01*
X155827000Y-65522400D01*
X155827000Y-65539200D01*
G37*
G36*
X155827000Y-65556000D02*
G01*
X155173200Y-65556000D01*
X155173200Y-65539200D01*
X155827000Y-65539200D01*
X155827000Y-65556000D01*
G37*
G36*
X155827000Y-65572700D02*
G01*
X155173200Y-65572700D01*
X155173200Y-65556000D01*
X155827000Y-65556000D01*
X155827000Y-65572700D01*
G37*
G36*
X155827000Y-65589500D02*
G01*
X155173200Y-65589500D01*
X155173200Y-65572700D01*
X155827000Y-65572700D01*
X155827000Y-65589500D01*
G37*
G36*
X155810200Y-65606200D02*
G01*
X155173200Y-65606200D01*
X155173200Y-65589500D01*
X155810200Y-65589500D01*
X155810200Y-65606200D01*
G37*
G36*
X155810200Y-65623000D02*
G01*
X155173200Y-65623000D01*
X155173200Y-65606200D01*
X155810200Y-65606200D01*
X155810200Y-65623000D01*
G37*
G36*
X155810200Y-65639800D02*
G01*
X155173200Y-65639800D01*
X155173200Y-65623000D01*
X155810200Y-65623000D01*
X155810200Y-65639800D01*
G37*
G36*
X155810200Y-65656500D02*
G01*
X155173200Y-65656500D01*
X155173200Y-65639800D01*
X155810200Y-65639800D01*
X155810200Y-65656500D01*
G37*
G36*
X155810200Y-65673300D02*
G01*
X155173200Y-65673300D01*
X155173200Y-65656500D01*
X155810200Y-65656500D01*
X155810200Y-65673300D01*
G37*
G36*
X155810200Y-65690100D02*
G01*
X155173200Y-65690100D01*
X155173200Y-65673300D01*
X155810200Y-65673300D01*
X155810200Y-65690100D01*
G37*
G36*
X155810200Y-65706800D02*
G01*
X155173200Y-65706800D01*
X155173200Y-65690100D01*
X155810200Y-65690100D01*
X155810200Y-65706800D01*
G37*
G36*
X155810200Y-65723600D02*
G01*
X155173200Y-65723600D01*
X155173200Y-65706800D01*
X155810200Y-65706800D01*
X155810200Y-65723600D01*
G37*
G36*
X155810200Y-65740400D02*
G01*
X155173200Y-65740400D01*
X155173200Y-65723600D01*
X155810200Y-65723600D01*
X155810200Y-65740400D01*
G37*
G36*
X155810200Y-65757100D02*
G01*
X155173200Y-65757100D01*
X155173200Y-65740400D01*
X155810200Y-65740400D01*
X155810200Y-65757100D01*
G37*
G36*
X155810200Y-65773900D02*
G01*
X155173200Y-65773900D01*
X155173200Y-65757100D01*
X155810200Y-65757100D01*
X155810200Y-65773900D01*
G37*
G36*
X155810200Y-65790700D02*
G01*
X155173200Y-65790700D01*
X155173200Y-65773900D01*
X155810200Y-65773900D01*
X155810200Y-65790700D01*
G37*
G36*
X155810200Y-65807400D02*
G01*
X155173200Y-65807400D01*
X155173200Y-65790700D01*
X155810200Y-65790700D01*
X155810200Y-65807400D01*
G37*
G36*
X155810200Y-65824200D02*
G01*
X155173200Y-65824200D01*
X155173200Y-65807400D01*
X155810200Y-65807400D01*
X155810200Y-65824200D01*
G37*
G36*
X155810200Y-65840900D02*
G01*
X155173200Y-65840900D01*
X155173200Y-65824200D01*
X155810200Y-65824200D01*
X155810200Y-65840900D01*
G37*
G36*
X155810200Y-65857700D02*
G01*
X155173200Y-65857700D01*
X155173200Y-65840900D01*
X155810200Y-65840900D01*
X155810200Y-65857700D01*
G37*
G36*
X155810200Y-65874500D02*
G01*
X155173200Y-65874500D01*
X155173200Y-65857700D01*
X155810200Y-65857700D01*
X155810200Y-65874500D01*
G37*
G36*
X155810200Y-65891200D02*
G01*
X155173200Y-65891200D01*
X155173200Y-65874500D01*
X155810200Y-65874500D01*
X155810200Y-65891200D01*
G37*
G36*
X155810200Y-65908000D02*
G01*
X155173200Y-65908000D01*
X155173200Y-65891200D01*
X155810200Y-65891200D01*
X155810200Y-65908000D01*
G37*
G36*
X155810200Y-65924800D02*
G01*
X155173200Y-65924800D01*
X155173200Y-65908000D01*
X155810200Y-65908000D01*
X155810200Y-65924800D01*
G37*
G36*
X155810200Y-65941500D02*
G01*
X155173200Y-65941500D01*
X155173200Y-65924800D01*
X155810200Y-65924800D01*
X155810200Y-65941500D01*
G37*
G36*
X155810200Y-65958300D02*
G01*
X155173200Y-65958300D01*
X155173200Y-65941500D01*
X155810200Y-65941500D01*
X155810200Y-65958300D01*
G37*
G36*
X155810200Y-65975100D02*
G01*
X155173200Y-65975100D01*
X155173200Y-65958300D01*
X155810200Y-65958300D01*
X155810200Y-65975100D01*
G37*
G36*
X155810200Y-65991800D02*
G01*
X155173200Y-65991800D01*
X155173200Y-65975100D01*
X155810200Y-65975100D01*
X155810200Y-65991800D01*
G37*
G36*
X155810200Y-66008600D02*
G01*
X155173200Y-66008600D01*
X155173200Y-65991800D01*
X155810200Y-65991800D01*
X155810200Y-66008600D01*
G37*
G36*
X155810200Y-66025300D02*
G01*
X155173200Y-66025300D01*
X155173200Y-66008600D01*
X155810200Y-66008600D01*
X155810200Y-66025300D01*
G37*
G36*
X155810200Y-66042100D02*
G01*
X155173200Y-66042100D01*
X155173200Y-66025300D01*
X155810200Y-66025300D01*
X155810200Y-66042100D01*
G37*
G36*
X155810200Y-66058900D02*
G01*
X155173200Y-66058900D01*
X155173200Y-66042100D01*
X155810200Y-66042100D01*
X155810200Y-66058900D01*
G37*
G36*
X155810200Y-66075600D02*
G01*
X155173200Y-66075600D01*
X155173200Y-66058900D01*
X155810200Y-66058900D01*
X155810200Y-66075600D01*
G37*
G36*
X155810200Y-66092400D02*
G01*
X155173200Y-66092400D01*
X155173200Y-66075600D01*
X155810200Y-66075600D01*
X155810200Y-66092400D01*
G37*
G36*
X155810200Y-66109200D02*
G01*
X155173200Y-66109200D01*
X155173200Y-66092400D01*
X155810200Y-66092400D01*
X155810200Y-66109200D01*
G37*
G36*
X155810200Y-66125900D02*
G01*
X155173200Y-66125900D01*
X155173200Y-66109200D01*
X155810200Y-66109200D01*
X155810200Y-66125900D01*
G37*
G36*
X155810200Y-66142700D02*
G01*
X155173200Y-66142700D01*
X155173200Y-66125900D01*
X155810200Y-66125900D01*
X155810200Y-66142700D01*
G37*
G36*
X155810200Y-66159500D02*
G01*
X155173200Y-66159500D01*
X155173200Y-66142700D01*
X155810200Y-66142700D01*
X155810200Y-66159500D01*
G37*
G36*
X155810200Y-66176200D02*
G01*
X155173200Y-66176200D01*
X155173200Y-66159500D01*
X155810200Y-66159500D01*
X155810200Y-66176200D01*
G37*
G36*
X155810200Y-66193000D02*
G01*
X155173200Y-66193000D01*
X155173200Y-66176200D01*
X155810200Y-66176200D01*
X155810200Y-66193000D01*
G37*
G36*
X155810200Y-66209800D02*
G01*
X155173200Y-66209800D01*
X155173200Y-66193000D01*
X155810200Y-66193000D01*
X155810200Y-66209800D01*
G37*
G36*
X155810200Y-66226500D02*
G01*
X155173200Y-66226500D01*
X155173200Y-66209800D01*
X155810200Y-66209800D01*
X155810200Y-66226500D01*
G37*
G36*
X155810200Y-66243300D02*
G01*
X155173200Y-66243300D01*
X155173200Y-66226500D01*
X155810200Y-66226500D01*
X155810200Y-66243300D01*
G37*
G36*
X155810200Y-66260000D02*
G01*
X155173200Y-66260000D01*
X155173200Y-66243300D01*
X155810200Y-66243300D01*
X155810200Y-66260000D01*
G37*
G36*
X155810200Y-66276800D02*
G01*
X155173200Y-66276800D01*
X155173200Y-66260000D01*
X155810200Y-66260000D01*
X155810200Y-66276800D01*
G37*
G36*
X155810200Y-66293600D02*
G01*
X155173200Y-66293600D01*
X155173200Y-66276800D01*
X155810200Y-66276800D01*
X155810200Y-66293600D01*
G37*
G36*
X155810200Y-66310300D02*
G01*
X155173200Y-66310300D01*
X155173200Y-66293600D01*
X155810200Y-66293600D01*
X155810200Y-66310300D01*
G37*
G36*
X155810200Y-66327100D02*
G01*
X155173200Y-66327100D01*
X155173200Y-66310300D01*
X155810200Y-66310300D01*
X155810200Y-66327100D01*
G37*
G36*
X155810200Y-66343900D02*
G01*
X155173200Y-66343900D01*
X155173200Y-66327100D01*
X155810200Y-66327100D01*
X155810200Y-66343900D01*
G37*
G36*
X155810200Y-66360600D02*
G01*
X155173200Y-66360600D01*
X155173200Y-66343900D01*
X155810200Y-66343900D01*
X155810200Y-66360600D01*
G37*
G36*
X155810200Y-66377400D02*
G01*
X155173200Y-66377400D01*
X155173200Y-66360600D01*
X155810200Y-66360600D01*
X155810200Y-66377400D01*
G37*
G36*
X155810200Y-66394200D02*
G01*
X155173200Y-66394200D01*
X155173200Y-66377400D01*
X155810200Y-66377400D01*
X155810200Y-66394200D01*
G37*
G36*
X155810200Y-66410900D02*
G01*
X155173200Y-66410900D01*
X155173200Y-66394200D01*
X155810200Y-66394200D01*
X155810200Y-66410900D01*
G37*
G36*
X155810200Y-66427700D02*
G01*
X155173200Y-66427700D01*
X155173200Y-66410900D01*
X155810200Y-66410900D01*
X155810200Y-66427700D01*
G37*
G36*
X155810200Y-66444400D02*
G01*
X155173200Y-66444400D01*
X155173200Y-66427700D01*
X155810200Y-66427700D01*
X155810200Y-66444400D01*
G37*
G36*
X155810200Y-66461200D02*
G01*
X155173200Y-66461200D01*
X155173200Y-66444400D01*
X155810200Y-66444400D01*
X155810200Y-66461200D01*
G37*
G36*
X155810200Y-66478000D02*
G01*
X155173200Y-66478000D01*
X155173200Y-66461200D01*
X155810200Y-66461200D01*
X155810200Y-66478000D01*
G37*
G36*
X155810200Y-66494700D02*
G01*
X155173200Y-66494700D01*
X155173200Y-66478000D01*
X155810200Y-66478000D01*
X155810200Y-66494700D01*
G37*
G36*
X155810200Y-66511500D02*
G01*
X155173200Y-66511500D01*
X155173200Y-66494700D01*
X155810200Y-66494700D01*
X155810200Y-66511500D01*
G37*
G36*
X155810200Y-66528300D02*
G01*
X155173200Y-66528300D01*
X155173200Y-66511500D01*
X155810200Y-66511500D01*
X155810200Y-66528300D01*
G37*
G36*
X155810200Y-66545000D02*
G01*
X155173200Y-66545000D01*
X155173200Y-66528300D01*
X155810200Y-66528300D01*
X155810200Y-66545000D01*
G37*
G36*
X155810200Y-66561800D02*
G01*
X155173200Y-66561800D01*
X155173200Y-66545000D01*
X155810200Y-66545000D01*
X155810200Y-66561800D01*
G37*
G36*
X155810200Y-66578600D02*
G01*
X155173200Y-66578600D01*
X155173200Y-66561800D01*
X155810200Y-66561800D01*
X155810200Y-66578600D01*
G37*
G36*
X155810200Y-66595300D02*
G01*
X155173200Y-66595300D01*
X155173200Y-66578600D01*
X155810200Y-66578600D01*
X155810200Y-66595300D01*
G37*
G36*
X155810200Y-66612100D02*
G01*
X155173200Y-66612100D01*
X155173200Y-66595300D01*
X155810200Y-66595300D01*
X155810200Y-66612100D01*
G37*
G36*
X155810200Y-66628900D02*
G01*
X155173200Y-66628900D01*
X155173200Y-66612100D01*
X155810200Y-66612100D01*
X155810200Y-66628900D01*
G37*
G36*
X155810200Y-66645600D02*
G01*
X155173200Y-66645600D01*
X155173200Y-66628900D01*
X155810200Y-66628900D01*
X155810200Y-66645600D01*
G37*
G36*
X155810200Y-66662400D02*
G01*
X155173200Y-66662400D01*
X155173200Y-66645600D01*
X155810200Y-66645600D01*
X155810200Y-66662400D01*
G37*
G36*
X155810200Y-66679100D02*
G01*
X155173200Y-66679100D01*
X155173200Y-66662400D01*
X155810200Y-66662400D01*
X155810200Y-66679100D01*
G37*
G36*
X155810200Y-66695900D02*
G01*
X155173200Y-66695900D01*
X155173200Y-66679100D01*
X155810200Y-66679100D01*
X155810200Y-66695900D01*
G37*
G36*
X155810200Y-66712700D02*
G01*
X155173200Y-66712700D01*
X155173200Y-66695900D01*
X155810200Y-66695900D01*
X155810200Y-66712700D01*
G37*
G36*
X155810200Y-66729400D02*
G01*
X155173200Y-66729400D01*
X155173200Y-66712700D01*
X155810200Y-66712700D01*
X155810200Y-66729400D01*
G37*
G36*
X155810200Y-66746200D02*
G01*
X155173200Y-66746200D01*
X155173200Y-66729400D01*
X155810200Y-66729400D01*
X155810200Y-66746200D01*
G37*
G36*
X155810200Y-66763000D02*
G01*
X155173200Y-66763000D01*
X155173200Y-66746200D01*
X155810200Y-66746200D01*
X155810200Y-66763000D01*
G37*
G36*
X155810200Y-66779700D02*
G01*
X155173200Y-66779700D01*
X155173200Y-66763000D01*
X155810200Y-66763000D01*
X155810200Y-66779700D01*
G37*
G36*
X155810200Y-66796500D02*
G01*
X155173200Y-66796500D01*
X155173200Y-66779700D01*
X155810200Y-66779700D01*
X155810200Y-66796500D01*
G37*
G36*
X155810200Y-66813300D02*
G01*
X155173200Y-66813300D01*
X155173200Y-66796500D01*
X155810200Y-66796500D01*
X155810200Y-66813300D01*
G37*
G36*
X155810200Y-66830000D02*
G01*
X155173200Y-66830000D01*
X155173200Y-66813300D01*
X155810200Y-66813300D01*
X155810200Y-66830000D01*
G37*
G36*
X155810200Y-66846800D02*
G01*
X155173200Y-66846800D01*
X155173200Y-66830000D01*
X155810200Y-66830000D01*
X155810200Y-66846800D01*
G37*
G36*
X155810200Y-66863500D02*
G01*
X155173200Y-66863500D01*
X155173200Y-66846800D01*
X155810200Y-66846800D01*
X155810200Y-66863500D01*
G37*
G36*
X155810200Y-66880300D02*
G01*
X155173200Y-66880300D01*
X155173200Y-66863500D01*
X155810200Y-66863500D01*
X155810200Y-66880300D01*
G37*
G36*
X155810200Y-66897100D02*
G01*
X155173200Y-66897100D01*
X155173200Y-66880300D01*
X155810200Y-66880300D01*
X155810200Y-66897100D01*
G37*
G36*
X155810200Y-66913800D02*
G01*
X155173200Y-66913800D01*
X155173200Y-66897100D01*
X155810200Y-66897100D01*
X155810200Y-66913800D01*
G37*
G36*
X155810200Y-66930600D02*
G01*
X155173200Y-66930600D01*
X155173200Y-66913800D01*
X155810200Y-66913800D01*
X155810200Y-66930600D01*
G37*
G36*
X155810200Y-66947400D02*
G01*
X155173200Y-66947400D01*
X155173200Y-66930600D01*
X155810200Y-66930600D01*
X155810200Y-66947400D01*
G37*
G36*
X155810200Y-66964100D02*
G01*
X155173200Y-66964100D01*
X155173200Y-66947400D01*
X155810200Y-66947400D01*
X155810200Y-66964100D01*
G37*
G36*
X155810200Y-66980900D02*
G01*
X155173200Y-66980900D01*
X155173200Y-66964100D01*
X155810200Y-66964100D01*
X155810200Y-66980900D01*
G37*
G36*
X155810200Y-66997700D02*
G01*
X155173200Y-66997700D01*
X155173200Y-66980900D01*
X155810200Y-66980900D01*
X155810200Y-66997700D01*
G37*
G36*
X155810200Y-67014400D02*
G01*
X155173200Y-67014400D01*
X155173200Y-66997700D01*
X155810200Y-66997700D01*
X155810200Y-67014400D01*
G37*
G36*
X155810200Y-67031200D02*
G01*
X155173200Y-67031200D01*
X155173200Y-67014400D01*
X155810200Y-67014400D01*
X155810200Y-67031200D01*
G37*
G36*
X155810200Y-67048000D02*
G01*
X155173200Y-67048000D01*
X155173200Y-67031200D01*
X155810200Y-67031200D01*
X155810200Y-67048000D01*
G37*
G36*
X155810200Y-67064700D02*
G01*
X155173200Y-67064700D01*
X155173200Y-67048000D01*
X155810200Y-67048000D01*
X155810200Y-67064700D01*
G37*
G36*
X155810200Y-67081500D02*
G01*
X155173200Y-67081500D01*
X155173200Y-67064700D01*
X155810200Y-67064700D01*
X155810200Y-67081500D01*
G37*
G36*
X155810200Y-67098200D02*
G01*
X155173200Y-67098200D01*
X155173200Y-67081500D01*
X155810200Y-67081500D01*
X155810200Y-67098200D01*
G37*
G36*
X155810200Y-67115000D02*
G01*
X155173200Y-67115000D01*
X155173200Y-67098200D01*
X155810200Y-67098200D01*
X155810200Y-67115000D01*
G37*
G36*
X155810200Y-67131800D02*
G01*
X155173200Y-67131800D01*
X155173200Y-67115000D01*
X155810200Y-67115000D01*
X155810200Y-67131800D01*
G37*
G36*
X155810200Y-67148500D02*
G01*
X155173200Y-67148500D01*
X155173200Y-67131800D01*
X155810200Y-67131800D01*
X155810200Y-67148500D01*
G37*
G36*
X155810200Y-67165300D02*
G01*
X155173200Y-67165300D01*
X155173200Y-67148500D01*
X155810200Y-67148500D01*
X155810200Y-67165300D01*
G37*
G36*
X157201700Y-65254200D02*
G01*
X155190000Y-65254200D01*
X155190000Y-65237400D01*
X157201700Y-65237400D01*
X157201700Y-65254200D01*
G37*
G36*
X157201700Y-65271000D02*
G01*
X155190000Y-65271000D01*
X155190000Y-65254200D01*
X157201700Y-65254200D01*
X157201700Y-65271000D01*
G37*
G36*
X157201700Y-65287700D02*
G01*
X155190000Y-65287700D01*
X155190000Y-65271000D01*
X157201700Y-65271000D01*
X157201700Y-65287700D01*
G37*
G36*
X157201700Y-65304500D02*
G01*
X155190000Y-65304500D01*
X155190000Y-65287700D01*
X157201700Y-65287700D01*
X157201700Y-65304500D01*
G37*
G36*
X157201700Y-65321300D02*
G01*
X155190000Y-65321300D01*
X155190000Y-65304500D01*
X157201700Y-65304500D01*
X157201700Y-65321300D01*
G37*
G36*
X157201700Y-65338000D02*
G01*
X155190000Y-65338000D01*
X155190000Y-65321300D01*
X157201700Y-65321300D01*
X157201700Y-65338000D01*
G37*
G36*
X157201700Y-65354800D02*
G01*
X155190000Y-65354800D01*
X155190000Y-65338000D01*
X157201700Y-65338000D01*
X157201700Y-65354800D01*
G37*
G36*
X157201700Y-65371600D02*
G01*
X155190000Y-65371600D01*
X155190000Y-65354800D01*
X157201700Y-65354800D01*
X157201700Y-65371600D01*
G37*
G36*
X157201700Y-65388300D02*
G01*
X155190000Y-65388300D01*
X155190000Y-65371600D01*
X157201700Y-65371600D01*
X157201700Y-65388300D01*
G37*
G36*
X156547900Y-65187100D02*
G01*
X155206700Y-65187100D01*
X155206700Y-65170400D01*
X156547900Y-65170400D01*
X156547900Y-65187100D01*
G37*
G36*
X157201700Y-65203900D02*
G01*
X155206700Y-65203900D01*
X155206700Y-65187100D01*
X157201700Y-65187100D01*
X157201700Y-65203900D01*
G37*
G36*
X157201700Y-65220700D02*
G01*
X155206700Y-65220700D01*
X155206700Y-65203900D01*
X157201700Y-65203900D01*
X157201700Y-65220700D01*
G37*
G36*
X157201700Y-65237400D02*
G01*
X155206700Y-65237400D01*
X155206700Y-65220700D01*
X157201700Y-65220700D01*
X157201700Y-65237400D01*
G37*
G36*
X156497600Y-65153600D02*
G01*
X155223500Y-65153600D01*
X155223500Y-65136900D01*
X156497600Y-65136900D01*
X156497600Y-65153600D01*
G37*
G36*
X156531100Y-65170400D02*
G01*
X155223500Y-65170400D01*
X155223500Y-65153600D01*
X156531100Y-65153600D01*
X156531100Y-65170400D01*
G37*
G36*
X155877300Y-64198100D02*
G01*
X155240300Y-64198100D01*
X155240300Y-64181300D01*
X155877300Y-64181300D01*
X155877300Y-64198100D01*
G37*
G36*
X156464000Y-65120100D02*
G01*
X155240300Y-65120100D01*
X155240300Y-65103300D01*
X156464000Y-65103300D01*
X156464000Y-65120100D01*
G37*
G36*
X156497600Y-65136900D02*
G01*
X155240300Y-65136900D01*
X155240300Y-65120100D01*
X156497600Y-65120100D01*
X156497600Y-65136900D01*
G37*
G36*
X156430500Y-65086600D02*
G01*
X155257000Y-65086600D01*
X155257000Y-65069800D01*
X156430500Y-65069800D01*
X156430500Y-65086600D01*
G37*
G36*
X156447300Y-65103300D02*
G01*
X155257000Y-65103300D01*
X155257000Y-65086600D01*
X156447300Y-65086600D01*
X156447300Y-65103300D01*
G37*
G36*
X156397000Y-65069800D02*
G01*
X155273800Y-65069800D01*
X155273800Y-65053000D01*
X156397000Y-65053000D01*
X156397000Y-65069800D01*
G37*
G36*
X156380200Y-65053000D02*
G01*
X155290600Y-65053000D01*
X155290600Y-65036300D01*
X156380200Y-65036300D01*
X156380200Y-65053000D01*
G37*
G36*
X156363500Y-65036300D02*
G01*
X155307300Y-65036300D01*
X155307300Y-65019500D01*
X156363500Y-65019500D01*
X156363500Y-65036300D01*
G37*
G36*
X156346700Y-65019500D02*
G01*
X155324100Y-65019500D01*
X155324100Y-65002700D01*
X156346700Y-65002700D01*
X156346700Y-65019500D01*
G37*
G36*
X156313200Y-65002700D02*
G01*
X155340800Y-65002700D01*
X155340800Y-64986000D01*
X156313200Y-64986000D01*
X156313200Y-65002700D01*
G37*
G36*
X155642600Y-64499800D02*
G01*
X155357600Y-64499800D01*
X155357600Y-64483100D01*
X155642600Y-64483100D01*
X155642600Y-64499800D01*
G37*
G36*
X156296400Y-64986000D02*
G01*
X155357600Y-64986000D01*
X155357600Y-64969200D01*
X156296400Y-64969200D01*
X156296400Y-64986000D01*
G37*
G36*
X155877300Y-64181300D02*
G01*
X155391100Y-64181300D01*
X155391100Y-64164500D01*
X155877300Y-64164500D01*
X155877300Y-64181300D01*
G37*
G36*
X155642600Y-64483100D02*
G01*
X155391100Y-64483100D01*
X155391100Y-64466300D01*
X155642600Y-64466300D01*
X155642600Y-64483100D01*
G37*
G36*
X156262900Y-64969200D02*
G01*
X155391100Y-64969200D01*
X155391100Y-64952500D01*
X156262900Y-64952500D01*
X156262900Y-64969200D01*
G37*
G36*
X155642600Y-64466300D02*
G01*
X155407900Y-64466300D01*
X155407900Y-64449500D01*
X155642600Y-64449500D01*
X155642600Y-64466300D01*
G37*
G36*
X155877300Y-64164500D02*
G01*
X155424700Y-64164500D01*
X155424700Y-64147800D01*
X155877300Y-64147800D01*
X155877300Y-64164500D01*
G37*
G36*
X155642600Y-64449500D02*
G01*
X155424700Y-64449500D01*
X155424700Y-64432800D01*
X155642600Y-64432800D01*
X155642600Y-64449500D01*
G37*
G36*
X155877300Y-64131000D02*
G01*
X155441400Y-64131000D01*
X155441400Y-64114300D01*
X155877300Y-64114300D01*
X155877300Y-64131000D01*
G37*
G36*
X155877300Y-64147800D02*
G01*
X155441400Y-64147800D01*
X155441400Y-64131000D01*
X155877300Y-64131000D01*
X155877300Y-64147800D01*
G37*
G36*
X155877300Y-64315400D02*
G01*
X155441400Y-64315400D01*
X155441400Y-64298700D01*
X155877300Y-64298700D01*
X155877300Y-64315400D01*
G37*
G36*
X155877300Y-64332200D02*
G01*
X155441400Y-64332200D01*
X155441400Y-64315400D01*
X155877300Y-64315400D01*
X155877300Y-64332200D01*
G37*
G36*
X155877300Y-64348900D02*
G01*
X155441400Y-64348900D01*
X155441400Y-64332200D01*
X155877300Y-64332200D01*
X155877300Y-64348900D01*
G37*
G36*
X155877300Y-64365700D02*
G01*
X155441400Y-64365700D01*
X155441400Y-64348900D01*
X155877300Y-64348900D01*
X155877300Y-64365700D01*
G37*
G36*
X155877300Y-64382500D02*
G01*
X155441400Y-64382500D01*
X155441400Y-64365700D01*
X155877300Y-64365700D01*
X155877300Y-64382500D01*
G37*
G36*
X155877300Y-64399200D02*
G01*
X155441400Y-64399200D01*
X155441400Y-64382500D01*
X155877300Y-64382500D01*
X155877300Y-64399200D01*
G37*
G36*
X155642600Y-64416000D02*
G01*
X155441400Y-64416000D01*
X155441400Y-64399200D01*
X155642600Y-64399200D01*
X155642600Y-64416000D01*
G37*
G36*
X155642600Y-64432800D02*
G01*
X155441400Y-64432800D01*
X155441400Y-64416000D01*
X155642600Y-64416000D01*
X155642600Y-64432800D01*
G37*
G36*
X156212600Y-64952500D02*
G01*
X155441400Y-64952500D01*
X155441400Y-64935700D01*
X156212600Y-64935700D01*
X156212600Y-64952500D01*
G37*
G36*
X155877300Y-63913100D02*
G01*
X155458200Y-63913100D01*
X155458200Y-63896300D01*
X155877300Y-63896300D01*
X155877300Y-63913100D01*
G37*
G36*
X155877300Y-63929800D02*
G01*
X155458200Y-63929800D01*
X155458200Y-63913100D01*
X155877300Y-63913100D01*
X155877300Y-63929800D01*
G37*
G36*
X155877300Y-63946600D02*
G01*
X155458200Y-63946600D01*
X155458200Y-63929800D01*
X155877300Y-63929800D01*
X155877300Y-63946600D01*
G37*
G36*
X155877300Y-63963400D02*
G01*
X155458200Y-63963400D01*
X155458200Y-63946600D01*
X155877300Y-63946600D01*
X155877300Y-63963400D01*
G37*
G36*
X155877300Y-63980100D02*
G01*
X155458200Y-63980100D01*
X155458200Y-63963400D01*
X155877300Y-63963400D01*
X155877300Y-63980100D01*
G37*
G36*
X155877300Y-63996900D02*
G01*
X155458200Y-63996900D01*
X155458200Y-63980100D01*
X155877300Y-63980100D01*
X155877300Y-63996900D01*
G37*
G36*
X155877300Y-64013700D02*
G01*
X155458200Y-64013700D01*
X155458200Y-63996900D01*
X155877300Y-63996900D01*
X155877300Y-64013700D01*
G37*
G36*
X155877300Y-64030400D02*
G01*
X155458200Y-64030400D01*
X155458200Y-64013700D01*
X155877300Y-64013700D01*
X155877300Y-64030400D01*
G37*
G36*
X155877300Y-64047200D02*
G01*
X155458200Y-64047200D01*
X155458200Y-64030400D01*
X155877300Y-64030400D01*
X155877300Y-64047200D01*
G37*
G36*
X155877300Y-64064000D02*
G01*
X155458200Y-64064000D01*
X155458200Y-64047200D01*
X155877300Y-64047200D01*
X155877300Y-64064000D01*
G37*
G36*
X155877300Y-64080700D02*
G01*
X155458200Y-64080700D01*
X155458200Y-64064000D01*
X155877300Y-64064000D01*
X155877300Y-64080700D01*
G37*
G36*
X155877300Y-64097500D02*
G01*
X155458200Y-64097500D01*
X155458200Y-64080700D01*
X155877300Y-64080700D01*
X155877300Y-64097500D01*
G37*
G36*
X155877300Y-64114300D02*
G01*
X155458200Y-64114300D01*
X155458200Y-64097500D01*
X155877300Y-64097500D01*
X155877300Y-64114300D01*
G37*
G36*
X156195800Y-64935700D02*
G01*
X155475000Y-64935700D01*
X155475000Y-64918900D01*
X156195800Y-64918900D01*
X156195800Y-64935700D01*
G37*
G36*
X156095200Y-64918900D02*
G01*
X155575500Y-64918900D01*
X155575500Y-64902200D01*
X156095200Y-64902200D01*
X156095200Y-64918900D01*
G37*
G36*
X156397000Y-63913100D02*
G01*
X155977900Y-63913100D01*
X155977900Y-63896300D01*
X156397000Y-63896300D01*
X156397000Y-63913100D01*
G37*
G36*
X156397000Y-63929800D02*
G01*
X155977900Y-63929800D01*
X155977900Y-63913100D01*
X156397000Y-63913100D01*
X156397000Y-63929800D01*
G37*
G36*
X156397000Y-63946600D02*
G01*
X155977900Y-63946600D01*
X155977900Y-63929800D01*
X156397000Y-63929800D01*
X156397000Y-63946600D01*
G37*
G36*
X156397000Y-63963400D02*
G01*
X155977900Y-63963400D01*
X155977900Y-63946600D01*
X156397000Y-63946600D01*
X156397000Y-63963400D01*
G37*
G36*
X156397000Y-63980100D02*
G01*
X155977900Y-63980100D01*
X155977900Y-63963400D01*
X156397000Y-63963400D01*
X156397000Y-63980100D01*
G37*
G36*
X156397000Y-63996900D02*
G01*
X155977900Y-63996900D01*
X155977900Y-63980100D01*
X156397000Y-63980100D01*
X156397000Y-63996900D01*
G37*
G36*
X156397000Y-64013700D02*
G01*
X155977900Y-64013700D01*
X155977900Y-63996900D01*
X156397000Y-63996900D01*
X156397000Y-64013700D01*
G37*
G36*
X156397000Y-64030400D02*
G01*
X155977900Y-64030400D01*
X155977900Y-64013700D01*
X156397000Y-64013700D01*
X156397000Y-64030400D01*
G37*
G36*
X156397000Y-64047200D02*
G01*
X155977900Y-64047200D01*
X155977900Y-64030400D01*
X156397000Y-64030400D01*
X156397000Y-64047200D01*
G37*
G36*
X156397000Y-64064000D02*
G01*
X155977900Y-64064000D01*
X155977900Y-64047200D01*
X156397000Y-64047200D01*
X156397000Y-64064000D01*
G37*
G36*
X156397000Y-64080700D02*
G01*
X155977900Y-64080700D01*
X155977900Y-64064000D01*
X156397000Y-64064000D01*
X156397000Y-64080700D01*
G37*
G36*
X156397000Y-64097500D02*
G01*
X155977900Y-64097500D01*
X155977900Y-64080700D01*
X156397000Y-64080700D01*
X156397000Y-64097500D01*
G37*
G36*
X156397000Y-64114300D02*
G01*
X155977900Y-64114300D01*
X155977900Y-64097500D01*
X156397000Y-64097500D01*
X156397000Y-64114300D01*
G37*
G36*
X156397000Y-64131000D02*
G01*
X155977900Y-64131000D01*
X155977900Y-64114300D01*
X156397000Y-64114300D01*
X156397000Y-64131000D01*
G37*
G36*
X156397000Y-64147800D02*
G01*
X155977900Y-64147800D01*
X155977900Y-64131000D01*
X156397000Y-64131000D01*
X156397000Y-64147800D01*
G37*
G36*
X156397000Y-64164500D02*
G01*
X155977900Y-64164500D01*
X155977900Y-64147800D01*
X156397000Y-64147800D01*
X156397000Y-64164500D01*
G37*
G36*
X156397000Y-64181300D02*
G01*
X155977900Y-64181300D01*
X155977900Y-64164500D01*
X156397000Y-64164500D01*
X156397000Y-64181300D01*
G37*
G36*
X156397000Y-64198100D02*
G01*
X155977900Y-64198100D01*
X155977900Y-64181300D01*
X156397000Y-64181300D01*
X156397000Y-64198100D01*
G37*
G36*
X156397000Y-64214800D02*
G01*
X155977900Y-64214800D01*
X155977900Y-64198100D01*
X156397000Y-64198100D01*
X156397000Y-64214800D01*
G37*
G36*
X156397000Y-64231600D02*
G01*
X155977900Y-64231600D01*
X155977900Y-64214800D01*
X156397000Y-64214800D01*
X156397000Y-64231600D01*
G37*
G36*
X156397000Y-64248400D02*
G01*
X155977900Y-64248400D01*
X155977900Y-64231600D01*
X156397000Y-64231600D01*
X156397000Y-64248400D01*
G37*
G36*
X156397000Y-64265100D02*
G01*
X155977900Y-64265100D01*
X155977900Y-64248400D01*
X156397000Y-64248400D01*
X156397000Y-64265100D01*
G37*
G36*
X156397000Y-64281900D02*
G01*
X155977900Y-64281900D01*
X155977900Y-64265100D01*
X156397000Y-64265100D01*
X156397000Y-64281900D01*
G37*
G36*
X156397000Y-64298700D02*
G01*
X155977900Y-64298700D01*
X155977900Y-64281900D01*
X156397000Y-64281900D01*
X156397000Y-64298700D01*
G37*
G36*
X156397000Y-64315400D02*
G01*
X155977900Y-64315400D01*
X155977900Y-64298700D01*
X156397000Y-64298700D01*
X156397000Y-64315400D01*
G37*
G36*
X156397000Y-64332200D02*
G01*
X155977900Y-64332200D01*
X155977900Y-64315400D01*
X156397000Y-64315400D01*
X156397000Y-64332200D01*
G37*
G36*
X156397000Y-64348900D02*
G01*
X155977900Y-64348900D01*
X155977900Y-64332200D01*
X156397000Y-64332200D01*
X156397000Y-64348900D01*
G37*
G36*
X156397000Y-64365700D02*
G01*
X155977900Y-64365700D01*
X155977900Y-64348900D01*
X156397000Y-64348900D01*
X156397000Y-64365700D01*
G37*
G36*
X156397000Y-64382500D02*
G01*
X155977900Y-64382500D01*
X155977900Y-64365700D01*
X156397000Y-64365700D01*
X156397000Y-64382500D01*
G37*
G36*
X156397000Y-64399200D02*
G01*
X155977900Y-64399200D01*
X155977900Y-64382500D01*
X156397000Y-64382500D01*
X156397000Y-64399200D01*
G37*
G36*
X156397000Y-64416000D02*
G01*
X156195800Y-64416000D01*
X156195800Y-64399200D01*
X156397000Y-64399200D01*
X156397000Y-64416000D01*
G37*
G36*
X156397000Y-64432800D02*
G01*
X156195800Y-64432800D01*
X156195800Y-64416000D01*
X156397000Y-64416000D01*
X156397000Y-64432800D01*
G37*
G36*
X156397000Y-64449500D02*
G01*
X156195800Y-64449500D01*
X156195800Y-64432800D01*
X156397000Y-64432800D01*
X156397000Y-64449500D01*
G37*
G36*
X156397000Y-64466300D02*
G01*
X156195800Y-64466300D01*
X156195800Y-64449500D01*
X156397000Y-64449500D01*
X156397000Y-64466300D01*
G37*
G36*
X156397000Y-64483100D02*
G01*
X156195800Y-64483100D01*
X156195800Y-64466300D01*
X156397000Y-64466300D01*
X156397000Y-64483100D01*
G37*
G36*
X156397000Y-64499800D02*
G01*
X156195800Y-64499800D01*
X156195800Y-64483100D01*
X156397000Y-64483100D01*
X156397000Y-64499800D01*
G37*
G36*
X157201700Y-65438600D02*
G01*
X156329900Y-65438600D01*
X156329900Y-65421800D01*
X157201700Y-65421800D01*
X157201700Y-65438600D01*
G37*
G36*
X157201700Y-65455400D02*
G01*
X156397000Y-65455400D01*
X156397000Y-65438600D01*
X157201700Y-65438600D01*
X157201700Y-65455400D01*
G37*
G36*
X157201700Y-65472100D02*
G01*
X156464000Y-65472100D01*
X156464000Y-65455400D01*
X157201700Y-65455400D01*
X157201700Y-65472100D01*
G37*
G36*
X156816100Y-63913100D02*
G01*
X156497600Y-63913100D01*
X156497600Y-63896300D01*
X156816100Y-63896300D01*
X156816100Y-63913100D01*
G37*
G36*
X156816100Y-63929800D02*
G01*
X156497600Y-63929800D01*
X156497600Y-63913100D01*
X156816100Y-63913100D01*
X156816100Y-63929800D01*
G37*
G36*
X156816100Y-63946600D02*
G01*
X156497600Y-63946600D01*
X156497600Y-63929800D01*
X156816100Y-63929800D01*
X156816100Y-63946600D01*
G37*
G36*
X156816100Y-63963400D02*
G01*
X156497600Y-63963400D01*
X156497600Y-63946600D01*
X156816100Y-63946600D01*
X156816100Y-63963400D01*
G37*
G36*
X156816100Y-63980100D02*
G01*
X156497600Y-63980100D01*
X156497600Y-63963400D01*
X156816100Y-63963400D01*
X156816100Y-63980100D01*
G37*
G36*
X156799300Y-63996900D02*
G01*
X156497600Y-63996900D01*
X156497600Y-63980100D01*
X156799300Y-63980100D01*
X156799300Y-63996900D01*
G37*
G36*
X156799300Y-64013700D02*
G01*
X156497600Y-64013700D01*
X156497600Y-63996900D01*
X156799300Y-63996900D01*
X156799300Y-64013700D01*
G37*
G36*
X156799300Y-64030400D02*
G01*
X156497600Y-64030400D01*
X156497600Y-64013700D01*
X156799300Y-64013700D01*
X156799300Y-64030400D01*
G37*
G36*
X156799300Y-64047200D02*
G01*
X156497600Y-64047200D01*
X156497600Y-64030400D01*
X156799300Y-64030400D01*
X156799300Y-64047200D01*
G37*
G36*
X156799300Y-64064000D02*
G01*
X156497600Y-64064000D01*
X156497600Y-64047200D01*
X156799300Y-64047200D01*
X156799300Y-64064000D01*
G37*
G36*
X156782600Y-64080700D02*
G01*
X156497600Y-64080700D01*
X156497600Y-64064000D01*
X156782600Y-64064000D01*
X156782600Y-64080700D01*
G37*
G36*
X156765800Y-64181300D02*
G01*
X156497600Y-64181300D01*
X156497600Y-64164500D01*
X156765800Y-64164500D01*
X156765800Y-64181300D01*
G37*
G36*
X156799300Y-64198100D02*
G01*
X156497600Y-64198100D01*
X156497600Y-64181300D01*
X156799300Y-64181300D01*
X156799300Y-64198100D01*
G37*
G36*
X156799300Y-64214800D02*
G01*
X156497600Y-64214800D01*
X156497600Y-64198100D01*
X156799300Y-64198100D01*
X156799300Y-64214800D01*
G37*
G36*
X156816100Y-64231600D02*
G01*
X156497600Y-64231600D01*
X156497600Y-64214800D01*
X156816100Y-64214800D01*
X156816100Y-64231600D01*
G37*
G36*
X156816100Y-64248400D02*
G01*
X156497600Y-64248400D01*
X156497600Y-64231600D01*
X156816100Y-64231600D01*
X156816100Y-64248400D01*
G37*
G36*
X156816100Y-64265100D02*
G01*
X156497600Y-64265100D01*
X156497600Y-64248400D01*
X156816100Y-64248400D01*
X156816100Y-64265100D01*
G37*
G36*
X156816100Y-64281900D02*
G01*
X156497600Y-64281900D01*
X156497600Y-64265100D01*
X156816100Y-64265100D01*
X156816100Y-64281900D01*
G37*
G36*
X156816100Y-64298700D02*
G01*
X156497600Y-64298700D01*
X156497600Y-64281900D01*
X156816100Y-64281900D01*
X156816100Y-64298700D01*
G37*
G36*
X156816100Y-64315400D02*
G01*
X156497600Y-64315400D01*
X156497600Y-64298700D01*
X156816100Y-64298700D01*
X156816100Y-64315400D01*
G37*
G36*
X156816100Y-64332200D02*
G01*
X156497600Y-64332200D01*
X156497600Y-64315400D01*
X156816100Y-64315400D01*
X156816100Y-64332200D01*
G37*
G36*
X156816100Y-64348900D02*
G01*
X156497600Y-64348900D01*
X156497600Y-64332200D01*
X156816100Y-64332200D01*
X156816100Y-64348900D01*
G37*
G36*
X156816100Y-64365700D02*
G01*
X156497600Y-64365700D01*
X156497600Y-64348900D01*
X156816100Y-64348900D01*
X156816100Y-64365700D01*
G37*
G36*
X156799300Y-64382500D02*
G01*
X156497600Y-64382500D01*
X156497600Y-64365700D01*
X156799300Y-64365700D01*
X156799300Y-64382500D01*
G37*
G36*
X156799300Y-64399200D02*
G01*
X156497600Y-64399200D01*
X156497600Y-64382500D01*
X156799300Y-64382500D01*
X156799300Y-64399200D01*
G37*
G36*
X157201700Y-65488900D02*
G01*
X156497600Y-65488900D01*
X156497600Y-65472100D01*
X157201700Y-65472100D01*
X157201700Y-65488900D01*
G37*
G36*
X157201700Y-65505700D02*
G01*
X156547900Y-65505700D01*
X156547900Y-65488900D01*
X157201700Y-65488900D01*
X157201700Y-65505700D01*
G37*
G36*
X157201700Y-64918900D02*
G01*
X156564600Y-64918900D01*
X156564600Y-64902200D01*
X157201700Y-64902200D01*
X157201700Y-64918900D01*
G37*
G36*
X157201700Y-64935700D02*
G01*
X156564600Y-64935700D01*
X156564600Y-64918900D01*
X157201700Y-64918900D01*
X157201700Y-64935700D01*
G37*
G36*
X157201700Y-64952500D02*
G01*
X156564600Y-64952500D01*
X156564600Y-64935700D01*
X157201700Y-64935700D01*
X157201700Y-64952500D01*
G37*
G36*
X157201700Y-64969200D02*
G01*
X156564600Y-64969200D01*
X156564600Y-64952500D01*
X157201700Y-64952500D01*
X157201700Y-64969200D01*
G37*
G36*
X157201700Y-64986000D02*
G01*
X156564600Y-64986000D01*
X156564600Y-64969200D01*
X157201700Y-64969200D01*
X157201700Y-64986000D01*
G37*
G36*
X157201700Y-65002700D02*
G01*
X156564600Y-65002700D01*
X156564600Y-64986000D01*
X157201700Y-64986000D01*
X157201700Y-65002700D01*
G37*
G36*
X157201700Y-65019500D02*
G01*
X156564600Y-65019500D01*
X156564600Y-65002700D01*
X157201700Y-65002700D01*
X157201700Y-65019500D01*
G37*
G36*
X157201700Y-65036300D02*
G01*
X156564600Y-65036300D01*
X156564600Y-65019500D01*
X157201700Y-65019500D01*
X157201700Y-65036300D01*
G37*
G36*
X157201700Y-65053000D02*
G01*
X156564600Y-65053000D01*
X156564600Y-65036300D01*
X157201700Y-65036300D01*
X157201700Y-65053000D01*
G37*
G36*
X157201700Y-65069800D02*
G01*
X156564600Y-65069800D01*
X156564600Y-65053000D01*
X157201700Y-65053000D01*
X157201700Y-65069800D01*
G37*
G36*
X157201700Y-65086600D02*
G01*
X156564600Y-65086600D01*
X156564600Y-65069800D01*
X157201700Y-65069800D01*
X157201700Y-65086600D01*
G37*
G36*
X157201700Y-65103300D02*
G01*
X156564600Y-65103300D01*
X156564600Y-65086600D01*
X157201700Y-65086600D01*
X157201700Y-65103300D01*
G37*
G36*
X157201700Y-65120100D02*
G01*
X156564600Y-65120100D01*
X156564600Y-65103300D01*
X157201700Y-65103300D01*
X157201700Y-65120100D01*
G37*
G36*
X157201700Y-65136900D02*
G01*
X156564600Y-65136900D01*
X156564600Y-65120100D01*
X157201700Y-65120100D01*
X157201700Y-65136900D01*
G37*
G36*
X157201700Y-65153600D02*
G01*
X156564600Y-65153600D01*
X156564600Y-65136900D01*
X157201700Y-65136900D01*
X157201700Y-65153600D01*
G37*
G36*
X157201700Y-65170400D02*
G01*
X156564600Y-65170400D01*
X156564600Y-65153600D01*
X157201700Y-65153600D01*
X157201700Y-65170400D01*
G37*
G36*
X157201700Y-65187100D02*
G01*
X156564600Y-65187100D01*
X156564600Y-65170400D01*
X157201700Y-65170400D01*
X157201700Y-65187100D01*
G37*
G36*
X157201700Y-65522400D02*
G01*
X156564600Y-65522400D01*
X156564600Y-65505700D01*
X157201700Y-65505700D01*
X157201700Y-65522400D01*
G37*
G36*
X157201700Y-65539200D02*
G01*
X156564600Y-65539200D01*
X156564600Y-65522400D01*
X157201700Y-65522400D01*
X157201700Y-65539200D01*
G37*
G36*
X157201700Y-65556000D02*
G01*
X156564600Y-65556000D01*
X156564600Y-65539200D01*
X157201700Y-65539200D01*
X157201700Y-65556000D01*
G37*
G36*
X157201700Y-65572700D02*
G01*
X156564600Y-65572700D01*
X156564600Y-65556000D01*
X157201700Y-65556000D01*
X157201700Y-65572700D01*
G37*
G36*
X157201700Y-65589500D02*
G01*
X156564600Y-65589500D01*
X156564600Y-65572700D01*
X157201700Y-65572700D01*
X157201700Y-65589500D01*
G37*
G36*
X157201700Y-65606200D02*
G01*
X156564600Y-65606200D01*
X156564600Y-65589500D01*
X157201700Y-65589500D01*
X157201700Y-65606200D01*
G37*
G36*
X157201700Y-65623000D02*
G01*
X156564600Y-65623000D01*
X156564600Y-65606200D01*
X157201700Y-65606200D01*
X157201700Y-65623000D01*
G37*
G36*
X157201700Y-65639800D02*
G01*
X156564600Y-65639800D01*
X156564600Y-65623000D01*
X157201700Y-65623000D01*
X157201700Y-65639800D01*
G37*
G36*
X157201700Y-65656500D02*
G01*
X156564600Y-65656500D01*
X156564600Y-65639800D01*
X157201700Y-65639800D01*
X157201700Y-65656500D01*
G37*
G36*
X157201700Y-65673300D02*
G01*
X156564600Y-65673300D01*
X156564600Y-65656500D01*
X157201700Y-65656500D01*
X157201700Y-65673300D01*
G37*
G36*
X157201700Y-65690100D02*
G01*
X156564600Y-65690100D01*
X156564600Y-65673300D01*
X157201700Y-65673300D01*
X157201700Y-65690100D01*
G37*
G36*
X157201700Y-65706800D02*
G01*
X156564600Y-65706800D01*
X156564600Y-65690100D01*
X157201700Y-65690100D01*
X157201700Y-65706800D01*
G37*
G36*
X157201700Y-65723600D02*
G01*
X156564600Y-65723600D01*
X156564600Y-65706800D01*
X157201700Y-65706800D01*
X157201700Y-65723600D01*
G37*
G36*
X157201700Y-65740400D02*
G01*
X156564600Y-65740400D01*
X156564600Y-65723600D01*
X157201700Y-65723600D01*
X157201700Y-65740400D01*
G37*
G36*
X157201700Y-65757100D02*
G01*
X156564600Y-65757100D01*
X156564600Y-65740400D01*
X157201700Y-65740400D01*
X157201700Y-65757100D01*
G37*
G36*
X157201700Y-65773900D02*
G01*
X156564600Y-65773900D01*
X156564600Y-65757100D01*
X157201700Y-65757100D01*
X157201700Y-65773900D01*
G37*
G36*
X157201700Y-65790700D02*
G01*
X156564600Y-65790700D01*
X156564600Y-65773900D01*
X157201700Y-65773900D01*
X157201700Y-65790700D01*
G37*
G36*
X157201700Y-65807400D02*
G01*
X156564600Y-65807400D01*
X156564600Y-65790700D01*
X157201700Y-65790700D01*
X157201700Y-65807400D01*
G37*
G36*
X157201700Y-65824200D02*
G01*
X156564600Y-65824200D01*
X156564600Y-65807400D01*
X157201700Y-65807400D01*
X157201700Y-65824200D01*
G37*
G36*
X157201700Y-65840900D02*
G01*
X156564600Y-65840900D01*
X156564600Y-65824200D01*
X157201700Y-65824200D01*
X157201700Y-65840900D01*
G37*
G36*
X157201700Y-65857700D02*
G01*
X156564600Y-65857700D01*
X156564600Y-65840900D01*
X157201700Y-65840900D01*
X157201700Y-65857700D01*
G37*
G36*
X157201700Y-65874500D02*
G01*
X156564600Y-65874500D01*
X156564600Y-65857700D01*
X157201700Y-65857700D01*
X157201700Y-65874500D01*
G37*
G36*
X157201700Y-65891200D02*
G01*
X156564600Y-65891200D01*
X156564600Y-65874500D01*
X157201700Y-65874500D01*
X157201700Y-65891200D01*
G37*
G36*
X157201700Y-65908000D02*
G01*
X156564600Y-65908000D01*
X156564600Y-65891200D01*
X157201700Y-65891200D01*
X157201700Y-65908000D01*
G37*
G36*
X157201700Y-65924800D02*
G01*
X156564600Y-65924800D01*
X156564600Y-65908000D01*
X157201700Y-65908000D01*
X157201700Y-65924800D01*
G37*
G36*
X157201700Y-65941500D02*
G01*
X156564600Y-65941500D01*
X156564600Y-65924800D01*
X157201700Y-65924800D01*
X157201700Y-65941500D01*
G37*
G36*
X157201700Y-65958300D02*
G01*
X156564600Y-65958300D01*
X156564600Y-65941500D01*
X157201700Y-65941500D01*
X157201700Y-65958300D01*
G37*
G36*
X157201700Y-65975100D02*
G01*
X156564600Y-65975100D01*
X156564600Y-65958300D01*
X157201700Y-65958300D01*
X157201700Y-65975100D01*
G37*
G36*
X157201700Y-65991800D02*
G01*
X156564600Y-65991800D01*
X156564600Y-65975100D01*
X157201700Y-65975100D01*
X157201700Y-65991800D01*
G37*
G36*
X157201700Y-66008600D02*
G01*
X156564600Y-66008600D01*
X156564600Y-65991800D01*
X157201700Y-65991800D01*
X157201700Y-66008600D01*
G37*
G36*
X157201700Y-66025300D02*
G01*
X156564600Y-66025300D01*
X156564600Y-66008600D01*
X157201700Y-66008600D01*
X157201700Y-66025300D01*
G37*
G36*
X157201700Y-66042100D02*
G01*
X156564600Y-66042100D01*
X156564600Y-66025300D01*
X157201700Y-66025300D01*
X157201700Y-66042100D01*
G37*
G36*
X157201700Y-66058900D02*
G01*
X156564600Y-66058900D01*
X156564600Y-66042100D01*
X157201700Y-66042100D01*
X157201700Y-66058900D01*
G37*
G36*
X157201700Y-66075600D02*
G01*
X156564600Y-66075600D01*
X156564600Y-66058900D01*
X157201700Y-66058900D01*
X157201700Y-66075600D01*
G37*
G36*
X157201700Y-66092400D02*
G01*
X156564600Y-66092400D01*
X156564600Y-66075600D01*
X157201700Y-66075600D01*
X157201700Y-66092400D01*
G37*
G36*
X157201700Y-66109200D02*
G01*
X156564600Y-66109200D01*
X156564600Y-66092400D01*
X157201700Y-66092400D01*
X157201700Y-66109200D01*
G37*
G36*
X157201700Y-66125900D02*
G01*
X156564600Y-66125900D01*
X156564600Y-66109200D01*
X157201700Y-66109200D01*
X157201700Y-66125900D01*
G37*
G36*
X157201700Y-66142700D02*
G01*
X156564600Y-66142700D01*
X156564600Y-66125900D01*
X157201700Y-66125900D01*
X157201700Y-66142700D01*
G37*
G36*
X157201700Y-66159500D02*
G01*
X156564600Y-66159500D01*
X156564600Y-66142700D01*
X157201700Y-66142700D01*
X157201700Y-66159500D01*
G37*
G36*
X157201700Y-66176200D02*
G01*
X156564600Y-66176200D01*
X156564600Y-66159500D01*
X157201700Y-66159500D01*
X157201700Y-66176200D01*
G37*
G36*
X157201700Y-66193000D02*
G01*
X156564600Y-66193000D01*
X156564600Y-66176200D01*
X157201700Y-66176200D01*
X157201700Y-66193000D01*
G37*
G36*
X157201700Y-66209800D02*
G01*
X156564600Y-66209800D01*
X156564600Y-66193000D01*
X157201700Y-66193000D01*
X157201700Y-66209800D01*
G37*
G36*
X157201700Y-66226500D02*
G01*
X156564600Y-66226500D01*
X156564600Y-66209800D01*
X157201700Y-66209800D01*
X157201700Y-66226500D01*
G37*
G36*
X157201700Y-66243300D02*
G01*
X156564600Y-66243300D01*
X156564600Y-66226500D01*
X157201700Y-66226500D01*
X157201700Y-66243300D01*
G37*
G36*
X157201700Y-66260000D02*
G01*
X156564600Y-66260000D01*
X156564600Y-66243300D01*
X157201700Y-66243300D01*
X157201700Y-66260000D01*
G37*
G36*
X157201700Y-66276800D02*
G01*
X156564600Y-66276800D01*
X156564600Y-66260000D01*
X157201700Y-66260000D01*
X157201700Y-66276800D01*
G37*
G36*
X157201700Y-66293600D02*
G01*
X156564600Y-66293600D01*
X156564600Y-66276800D01*
X157201700Y-66276800D01*
X157201700Y-66293600D01*
G37*
G36*
X157201700Y-66310300D02*
G01*
X156564600Y-66310300D01*
X156564600Y-66293600D01*
X157201700Y-66293600D01*
X157201700Y-66310300D01*
G37*
G36*
X157201700Y-66327100D02*
G01*
X156564600Y-66327100D01*
X156564600Y-66310300D01*
X157201700Y-66310300D01*
X157201700Y-66327100D01*
G37*
G36*
X157201700Y-66343900D02*
G01*
X156564600Y-66343900D01*
X156564600Y-66327100D01*
X157201700Y-66327100D01*
X157201700Y-66343900D01*
G37*
G36*
X157201700Y-66360600D02*
G01*
X156564600Y-66360600D01*
X156564600Y-66343900D01*
X157201700Y-66343900D01*
X157201700Y-66360600D01*
G37*
G36*
X157201700Y-66377400D02*
G01*
X156564600Y-66377400D01*
X156564600Y-66360600D01*
X157201700Y-66360600D01*
X157201700Y-66377400D01*
G37*
G36*
X157201700Y-66394200D02*
G01*
X156564600Y-66394200D01*
X156564600Y-66377400D01*
X157201700Y-66377400D01*
X157201700Y-66394200D01*
G37*
G36*
X157201700Y-66410900D02*
G01*
X156564600Y-66410900D01*
X156564600Y-66394200D01*
X157201700Y-66394200D01*
X157201700Y-66410900D01*
G37*
G36*
X157201700Y-66427700D02*
G01*
X156564600Y-66427700D01*
X156564600Y-66410900D01*
X157201700Y-66410900D01*
X157201700Y-66427700D01*
G37*
G36*
X157201700Y-66444400D02*
G01*
X156564600Y-66444400D01*
X156564600Y-66427700D01*
X157201700Y-66427700D01*
X157201700Y-66444400D01*
G37*
G36*
X157201700Y-66461200D02*
G01*
X156564600Y-66461200D01*
X156564600Y-66444400D01*
X157201700Y-66444400D01*
X157201700Y-66461200D01*
G37*
G36*
X157201700Y-66478000D02*
G01*
X156564600Y-66478000D01*
X156564600Y-66461200D01*
X157201700Y-66461200D01*
X157201700Y-66478000D01*
G37*
G36*
X157201700Y-66494700D02*
G01*
X156564600Y-66494700D01*
X156564600Y-66478000D01*
X157201700Y-66478000D01*
X157201700Y-66494700D01*
G37*
G36*
X157201700Y-66511500D02*
G01*
X156564600Y-66511500D01*
X156564600Y-66494700D01*
X157201700Y-66494700D01*
X157201700Y-66511500D01*
G37*
G36*
X157201700Y-66528300D02*
G01*
X156564600Y-66528300D01*
X156564600Y-66511500D01*
X157201700Y-66511500D01*
X157201700Y-66528300D01*
G37*
G36*
X157201700Y-66545000D02*
G01*
X156564600Y-66545000D01*
X156564600Y-66528300D01*
X157201700Y-66528300D01*
X157201700Y-66545000D01*
G37*
G36*
X157201700Y-66561800D02*
G01*
X156564600Y-66561800D01*
X156564600Y-66545000D01*
X157201700Y-66545000D01*
X157201700Y-66561800D01*
G37*
G36*
X157201700Y-66578600D02*
G01*
X156564600Y-66578600D01*
X156564600Y-66561800D01*
X157201700Y-66561800D01*
X157201700Y-66578600D01*
G37*
G36*
X157201700Y-66595300D02*
G01*
X156564600Y-66595300D01*
X156564600Y-66578600D01*
X157201700Y-66578600D01*
X157201700Y-66595300D01*
G37*
G36*
X157201700Y-66612100D02*
G01*
X156564600Y-66612100D01*
X156564600Y-66595300D01*
X157201700Y-66595300D01*
X157201700Y-66612100D01*
G37*
G36*
X157201700Y-66628900D02*
G01*
X156564600Y-66628900D01*
X156564600Y-66612100D01*
X157201700Y-66612100D01*
X157201700Y-66628900D01*
G37*
G36*
X157201700Y-66645600D02*
G01*
X156564600Y-66645600D01*
X156564600Y-66628900D01*
X157201700Y-66628900D01*
X157201700Y-66645600D01*
G37*
G36*
X157201700Y-66662400D02*
G01*
X156564600Y-66662400D01*
X156564600Y-66645600D01*
X157201700Y-66645600D01*
X157201700Y-66662400D01*
G37*
G36*
X157201700Y-66679100D02*
G01*
X156564600Y-66679100D01*
X156564600Y-66662400D01*
X157201700Y-66662400D01*
X157201700Y-66679100D01*
G37*
G36*
X157201700Y-66695900D02*
G01*
X156564600Y-66695900D01*
X156564600Y-66679100D01*
X157201700Y-66679100D01*
X157201700Y-66695900D01*
G37*
G36*
X157201700Y-66712700D02*
G01*
X156564600Y-66712700D01*
X156564600Y-66695900D01*
X157201700Y-66695900D01*
X157201700Y-66712700D01*
G37*
G36*
X157201700Y-66729400D02*
G01*
X156564600Y-66729400D01*
X156564600Y-66712700D01*
X157201700Y-66712700D01*
X157201700Y-66729400D01*
G37*
G36*
X157201700Y-66746200D02*
G01*
X156564600Y-66746200D01*
X156564600Y-66729400D01*
X157201700Y-66729400D01*
X157201700Y-66746200D01*
G37*
G36*
X157201700Y-66763000D02*
G01*
X156564600Y-66763000D01*
X156564600Y-66746200D01*
X157201700Y-66746200D01*
X157201700Y-66763000D01*
G37*
G36*
X157201700Y-66779700D02*
G01*
X156564600Y-66779700D01*
X156564600Y-66763000D01*
X157201700Y-66763000D01*
X157201700Y-66779700D01*
G37*
G36*
X157201700Y-66796500D02*
G01*
X156564600Y-66796500D01*
X156564600Y-66779700D01*
X157201700Y-66779700D01*
X157201700Y-66796500D01*
G37*
G36*
X157201700Y-66813300D02*
G01*
X156564600Y-66813300D01*
X156564600Y-66796500D01*
X157201700Y-66796500D01*
X157201700Y-66813300D01*
G37*
G36*
X157201700Y-66830000D02*
G01*
X156564600Y-66830000D01*
X156564600Y-66813300D01*
X157201700Y-66813300D01*
X157201700Y-66830000D01*
G37*
G36*
X157201700Y-66846800D02*
G01*
X156564600Y-66846800D01*
X156564600Y-66830000D01*
X157201700Y-66830000D01*
X157201700Y-66846800D01*
G37*
G36*
X157201700Y-66863500D02*
G01*
X156564600Y-66863500D01*
X156564600Y-66846800D01*
X157201700Y-66846800D01*
X157201700Y-66863500D01*
G37*
G36*
X157201700Y-66880300D02*
G01*
X156564600Y-66880300D01*
X156564600Y-66863500D01*
X157201700Y-66863500D01*
X157201700Y-66880300D01*
G37*
G36*
X157201700Y-66897100D02*
G01*
X156564600Y-66897100D01*
X156564600Y-66880300D01*
X157201700Y-66880300D01*
X157201700Y-66897100D01*
G37*
G36*
X157201700Y-66913800D02*
G01*
X156564600Y-66913800D01*
X156564600Y-66897100D01*
X157201700Y-66897100D01*
X157201700Y-66913800D01*
G37*
G36*
X157201700Y-66930600D02*
G01*
X156564600Y-66930600D01*
X156564600Y-66913800D01*
X157201700Y-66913800D01*
X157201700Y-66930600D01*
G37*
G36*
X157201700Y-66947400D02*
G01*
X156564600Y-66947400D01*
X156564600Y-66930600D01*
X157201700Y-66930600D01*
X157201700Y-66947400D01*
G37*
G36*
X157201700Y-66964100D02*
G01*
X156564600Y-66964100D01*
X156564600Y-66947400D01*
X157201700Y-66947400D01*
X157201700Y-66964100D01*
G37*
G36*
X157201700Y-66980900D02*
G01*
X156564600Y-66980900D01*
X156564600Y-66964100D01*
X157201700Y-66964100D01*
X157201700Y-66980900D01*
G37*
G36*
X157201700Y-66997700D02*
G01*
X156564600Y-66997700D01*
X156564600Y-66980900D01*
X157201700Y-66980900D01*
X157201700Y-66997700D01*
G37*
G36*
X157201700Y-67014400D02*
G01*
X156564600Y-67014400D01*
X156564600Y-66997700D01*
X157201700Y-66997700D01*
X157201700Y-67014400D01*
G37*
G36*
X157201700Y-67031200D02*
G01*
X156564600Y-67031200D01*
X156564600Y-67014400D01*
X157201700Y-67014400D01*
X157201700Y-67031200D01*
G37*
G36*
X157201700Y-67048000D02*
G01*
X156564600Y-67048000D01*
X156564600Y-67031200D01*
X157201700Y-67031200D01*
X157201700Y-67048000D01*
G37*
G36*
X157201700Y-67064700D02*
G01*
X156564600Y-67064700D01*
X156564600Y-67048000D01*
X157201700Y-67048000D01*
X157201700Y-67064700D01*
G37*
G36*
X157201700Y-67081500D02*
G01*
X156564600Y-67081500D01*
X156564600Y-67064700D01*
X157201700Y-67064700D01*
X157201700Y-67081500D01*
G37*
G36*
X157201700Y-67098200D02*
G01*
X156564600Y-67098200D01*
X156564600Y-67081500D01*
X157201700Y-67081500D01*
X157201700Y-67098200D01*
G37*
G36*
X157201700Y-67115000D02*
G01*
X156564600Y-67115000D01*
X156564600Y-67098200D01*
X157201700Y-67098200D01*
X157201700Y-67115000D01*
G37*
G36*
X157201700Y-67131800D02*
G01*
X156564600Y-67131800D01*
X156564600Y-67115000D01*
X157201700Y-67115000D01*
X157201700Y-67131800D01*
G37*
G36*
X157201700Y-67148500D02*
G01*
X156564600Y-67148500D01*
X156564600Y-67131800D01*
X157201700Y-67131800D01*
X157201700Y-67148500D01*
G37*
G36*
X157201700Y-67165300D02*
G01*
X156564600Y-67165300D01*
X156564600Y-67148500D01*
X157201700Y-67148500D01*
X157201700Y-67165300D01*
G37*
G36*
X157201700Y-64131000D02*
G01*
X156799300Y-64131000D01*
X156799300Y-64114300D01*
X157201700Y-64114300D01*
X157201700Y-64131000D01*
G37*
G36*
X157201700Y-64499800D02*
G01*
X156816100Y-64499800D01*
X156816100Y-64483100D01*
X157201700Y-64483100D01*
X157201700Y-64499800D01*
G37*
G36*
X157201700Y-64147800D02*
G01*
X156832800Y-64147800D01*
X156832800Y-64131000D01*
X157201700Y-64131000D01*
X157201700Y-64147800D01*
G37*
G36*
X157201700Y-64483100D02*
G01*
X156849600Y-64483100D01*
X156849600Y-64466300D01*
X157201700Y-64466300D01*
X157201700Y-64483100D01*
G37*
G36*
X157201700Y-64114300D02*
G01*
X156866400Y-64114300D01*
X156866400Y-64097500D01*
X157201700Y-64097500D01*
X157201700Y-64114300D01*
G37*
G36*
X157201700Y-64164500D02*
G01*
X156866400Y-64164500D01*
X156866400Y-64147800D01*
X157201700Y-64147800D01*
X157201700Y-64164500D01*
G37*
G36*
X157201700Y-64466300D02*
G01*
X156866400Y-64466300D01*
X156866400Y-64449500D01*
X157201700Y-64449500D01*
X157201700Y-64466300D01*
G37*
G36*
X157201700Y-64080700D02*
G01*
X156883100Y-64080700D01*
X156883100Y-64064000D01*
X157201700Y-64064000D01*
X157201700Y-64080700D01*
G37*
G36*
X157201700Y-64097500D02*
G01*
X156883100Y-64097500D01*
X156883100Y-64080700D01*
X157201700Y-64080700D01*
X157201700Y-64097500D01*
G37*
G36*
X157201700Y-64181300D02*
G01*
X156883100Y-64181300D01*
X156883100Y-64164500D01*
X157201700Y-64164500D01*
X157201700Y-64181300D01*
G37*
G36*
X157201700Y-64432800D02*
G01*
X156883100Y-64432800D01*
X156883100Y-64416000D01*
X157201700Y-64416000D01*
X157201700Y-64432800D01*
G37*
G36*
X157201700Y-64449500D02*
G01*
X156883100Y-64449500D01*
X156883100Y-64432800D01*
X157201700Y-64432800D01*
X157201700Y-64449500D01*
G37*
G36*
X157201700Y-64030400D02*
G01*
X156899900Y-64030400D01*
X156899900Y-64013700D01*
X157201700Y-64013700D01*
X157201700Y-64030400D01*
G37*
G36*
X157201700Y-64047200D02*
G01*
X156899900Y-64047200D01*
X156899900Y-64030400D01*
X157201700Y-64030400D01*
X157201700Y-64047200D01*
G37*
G36*
X157201700Y-64064000D02*
G01*
X156899900Y-64064000D01*
X156899900Y-64047200D01*
X157201700Y-64047200D01*
X157201700Y-64064000D01*
G37*
G36*
X157201700Y-64198100D02*
G01*
X156899900Y-64198100D01*
X156899900Y-64181300D01*
X157201700Y-64181300D01*
X157201700Y-64198100D01*
G37*
G36*
X157201700Y-64214800D02*
G01*
X156899900Y-64214800D01*
X156899900Y-64198100D01*
X157201700Y-64198100D01*
X157201700Y-64214800D01*
G37*
G36*
X157201700Y-64416000D02*
G01*
X156899900Y-64416000D01*
X156899900Y-64399200D01*
X157201700Y-64399200D01*
X157201700Y-64416000D01*
G37*
G36*
X157201700Y-63913100D02*
G01*
X156916700Y-63913100D01*
X156916700Y-63896300D01*
X157201700Y-63896300D01*
X157201700Y-63913100D01*
G37*
G36*
X157201700Y-63929800D02*
G01*
X156916700Y-63929800D01*
X156916700Y-63913100D01*
X157201700Y-63913100D01*
X157201700Y-63929800D01*
G37*
G36*
X157201700Y-63946600D02*
G01*
X156916700Y-63946600D01*
X156916700Y-63929800D01*
X157201700Y-63929800D01*
X157201700Y-63946600D01*
G37*
G36*
X157201700Y-63963400D02*
G01*
X156916700Y-63963400D01*
X156916700Y-63946600D01*
X157201700Y-63946600D01*
X157201700Y-63963400D01*
G37*
G36*
X157201700Y-63980100D02*
G01*
X156916700Y-63980100D01*
X156916700Y-63963400D01*
X157201700Y-63963400D01*
X157201700Y-63980100D01*
G37*
G36*
X157201700Y-63996900D02*
G01*
X156916700Y-63996900D01*
X156916700Y-63980100D01*
X157201700Y-63980100D01*
X157201700Y-63996900D01*
G37*
G36*
X157201700Y-64013700D02*
G01*
X156916700Y-64013700D01*
X156916700Y-63996900D01*
X157201700Y-63996900D01*
X157201700Y-64013700D01*
G37*
G36*
X157201700Y-64231600D02*
G01*
X156916700Y-64231600D01*
X156916700Y-64214800D01*
X157201700Y-64214800D01*
X157201700Y-64231600D01*
G37*
G36*
X157201700Y-64248400D02*
G01*
X156916700Y-64248400D01*
X156916700Y-64231600D01*
X157201700Y-64231600D01*
X157201700Y-64248400D01*
G37*
G36*
X157201700Y-64265100D02*
G01*
X156916700Y-64265100D01*
X156916700Y-64248400D01*
X157201700Y-64248400D01*
X157201700Y-64265100D01*
G37*
G36*
X157201700Y-64281900D02*
G01*
X156916700Y-64281900D01*
X156916700Y-64265100D01*
X157201700Y-64265100D01*
X157201700Y-64281900D01*
G37*
G36*
X157201700Y-64298700D02*
G01*
X156916700Y-64298700D01*
X156916700Y-64281900D01*
X157201700Y-64281900D01*
X157201700Y-64298700D01*
G37*
G36*
X157201700Y-64315400D02*
G01*
X156916700Y-64315400D01*
X156916700Y-64298700D01*
X157201700Y-64298700D01*
X157201700Y-64315400D01*
G37*
G36*
X157201700Y-64332200D02*
G01*
X156916700Y-64332200D01*
X156916700Y-64315400D01*
X157201700Y-64315400D01*
X157201700Y-64332200D01*
G37*
G36*
X157201700Y-64348900D02*
G01*
X156916700Y-64348900D01*
X156916700Y-64332200D01*
X157201700Y-64332200D01*
X157201700Y-64348900D01*
G37*
G36*
X157201700Y-64365700D02*
G01*
X156916700Y-64365700D01*
X156916700Y-64348900D01*
X157201700Y-64348900D01*
X157201700Y-64365700D01*
G37*
G36*
X157201700Y-64382500D02*
G01*
X156916700Y-64382500D01*
X156916700Y-64365700D01*
X157201700Y-64365700D01*
X157201700Y-64382500D01*
G37*
G36*
X157201700Y-64399200D02*
G01*
X156916700Y-64399200D01*
X156916700Y-64382500D01*
X157201700Y-64382500D01*
X157201700Y-64399200D01*
G37*
G36*
X157587200Y-63913100D02*
G01*
X157302200Y-63913100D01*
X157302200Y-63896300D01*
X157587200Y-63896300D01*
X157587200Y-63913100D01*
G37*
G36*
X157587200Y-63929800D02*
G01*
X157302200Y-63929800D01*
X157302200Y-63913100D01*
X157587200Y-63913100D01*
X157587200Y-63929800D01*
G37*
G36*
X157587200Y-63946600D02*
G01*
X157302200Y-63946600D01*
X157302200Y-63929800D01*
X157587200Y-63929800D01*
X157587200Y-63946600D01*
G37*
G36*
X157587200Y-63963400D02*
G01*
X157302200Y-63963400D01*
X157302200Y-63946600D01*
X157587200Y-63946600D01*
X157587200Y-63963400D01*
G37*
G36*
X157587200Y-63980100D02*
G01*
X157302200Y-63980100D01*
X157302200Y-63963400D01*
X157587200Y-63963400D01*
X157587200Y-63980100D01*
G37*
G36*
X157587200Y-63996900D02*
G01*
X157302200Y-63996900D01*
X157302200Y-63980100D01*
X157587200Y-63980100D01*
X157587200Y-63996900D01*
G37*
G36*
X157587200Y-64013700D02*
G01*
X157302200Y-64013700D01*
X157302200Y-63996900D01*
X157587200Y-63996900D01*
X157587200Y-64013700D01*
G37*
G36*
X157587200Y-64030400D02*
G01*
X157302200Y-64030400D01*
X157302200Y-64013700D01*
X157587200Y-64013700D01*
X157587200Y-64030400D01*
G37*
G36*
X157587200Y-64047200D02*
G01*
X157302200Y-64047200D01*
X157302200Y-64030400D01*
X157587200Y-64030400D01*
X157587200Y-64047200D01*
G37*
G36*
X157587200Y-64064000D02*
G01*
X157302200Y-64064000D01*
X157302200Y-64047200D01*
X157587200Y-64047200D01*
X157587200Y-64064000D01*
G37*
G36*
X157587200Y-64080700D02*
G01*
X157302200Y-64080700D01*
X157302200Y-64064000D01*
X157587200Y-64064000D01*
X157587200Y-64080700D01*
G37*
G36*
X157587200Y-64097500D02*
G01*
X157302200Y-64097500D01*
X157302200Y-64080700D01*
X157587200Y-64080700D01*
X157587200Y-64097500D01*
G37*
G36*
X157587200Y-64114300D02*
G01*
X157302200Y-64114300D01*
X157302200Y-64097500D01*
X157587200Y-64097500D01*
X157587200Y-64114300D01*
G37*
G36*
X157587200Y-64131000D02*
G01*
X157302200Y-64131000D01*
X157302200Y-64114300D01*
X157587200Y-64114300D01*
X157587200Y-64131000D01*
G37*
G36*
X157587200Y-64147800D02*
G01*
X157302200Y-64147800D01*
X157302200Y-64131000D01*
X157587200Y-64131000D01*
X157587200Y-64147800D01*
G37*
G36*
X157587200Y-64164500D02*
G01*
X157302200Y-64164500D01*
X157302200Y-64147800D01*
X157587200Y-64147800D01*
X157587200Y-64164500D01*
G37*
G36*
X157587200Y-64181300D02*
G01*
X157302200Y-64181300D01*
X157302200Y-64164500D01*
X157587200Y-64164500D01*
X157587200Y-64181300D01*
G37*
G36*
X157587200Y-64198100D02*
G01*
X157302200Y-64198100D01*
X157302200Y-64181300D01*
X157587200Y-64181300D01*
X157587200Y-64198100D01*
G37*
G36*
X157587200Y-64214800D02*
G01*
X157302200Y-64214800D01*
X157302200Y-64198100D01*
X157587200Y-64198100D01*
X157587200Y-64214800D01*
G37*
G36*
X157587200Y-64231600D02*
G01*
X157302200Y-64231600D01*
X157302200Y-64214800D01*
X157587200Y-64214800D01*
X157587200Y-64231600D01*
G37*
G36*
X157587200Y-64248400D02*
G01*
X157302200Y-64248400D01*
X157302200Y-64231600D01*
X157587200Y-64231600D01*
X157587200Y-64248400D01*
G37*
G36*
X157587200Y-64265100D02*
G01*
X157302200Y-64265100D01*
X157302200Y-64248400D01*
X157587200Y-64248400D01*
X157587200Y-64265100D01*
G37*
G36*
X157587200Y-64281900D02*
G01*
X157302200Y-64281900D01*
X157302200Y-64265100D01*
X157587200Y-64265100D01*
X157587200Y-64281900D01*
G37*
G36*
X157587200Y-64298700D02*
G01*
X157302200Y-64298700D01*
X157302200Y-64281900D01*
X157587200Y-64281900D01*
X157587200Y-64298700D01*
G37*
G36*
X157587200Y-64315400D02*
G01*
X157302200Y-64315400D01*
X157302200Y-64298700D01*
X157587200Y-64298700D01*
X157587200Y-64315400D01*
G37*
G36*
X157587200Y-64332200D02*
G01*
X157302200Y-64332200D01*
X157302200Y-64315400D01*
X157587200Y-64315400D01*
X157587200Y-64332200D01*
G37*
G36*
X157587200Y-64348900D02*
G01*
X157302200Y-64348900D01*
X157302200Y-64332200D01*
X157587200Y-64332200D01*
X157587200Y-64348900D01*
G37*
G36*
X157587200Y-64365700D02*
G01*
X157302200Y-64365700D01*
X157302200Y-64348900D01*
X157587200Y-64348900D01*
X157587200Y-64365700D01*
G37*
G36*
X157587200Y-64382500D02*
G01*
X157302200Y-64382500D01*
X157302200Y-64365700D01*
X157587200Y-64365700D01*
X157587200Y-64382500D01*
G37*
G36*
X157587200Y-64399200D02*
G01*
X157302200Y-64399200D01*
X157302200Y-64382500D01*
X157587200Y-64382500D01*
X157587200Y-64399200D01*
G37*
G36*
X157587200Y-64416000D02*
G01*
X157302200Y-64416000D01*
X157302200Y-64399200D01*
X157587200Y-64399200D01*
X157587200Y-64416000D01*
G37*
G36*
X157587200Y-64432800D02*
G01*
X157302200Y-64432800D01*
X157302200Y-64416000D01*
X157587200Y-64416000D01*
X157587200Y-64432800D01*
G37*
G36*
X157587200Y-64449500D02*
G01*
X157302200Y-64449500D01*
X157302200Y-64432800D01*
X157587200Y-64432800D01*
X157587200Y-64449500D01*
G37*
G36*
X157587200Y-64466300D02*
G01*
X157302200Y-64466300D01*
X157302200Y-64449500D01*
X157587200Y-64449500D01*
X157587200Y-64466300D01*
G37*
G36*
X157587200Y-64483100D02*
G01*
X157302200Y-64483100D01*
X157302200Y-64466300D01*
X157587200Y-64466300D01*
X157587200Y-64483100D01*
G37*
G36*
X157587200Y-64499800D02*
G01*
X157302200Y-64499800D01*
X157302200Y-64483100D01*
X157587200Y-64483100D01*
X157587200Y-64499800D01*
G37*
G36*
X158056600Y-64918900D02*
G01*
X157419600Y-64918900D01*
X157419600Y-64902200D01*
X158056600Y-64902200D01*
X158056600Y-64918900D01*
G37*
G36*
X158056600Y-64935700D02*
G01*
X157419600Y-64935700D01*
X157419600Y-64918900D01*
X158056600Y-64918900D01*
X158056600Y-64935700D01*
G37*
G36*
X158056600Y-64952500D02*
G01*
X157419600Y-64952500D01*
X157419600Y-64935700D01*
X158056600Y-64935700D01*
X158056600Y-64952500D01*
G37*
G36*
X158056600Y-64969200D02*
G01*
X157419600Y-64969200D01*
X157419600Y-64952500D01*
X158056600Y-64952500D01*
X158056600Y-64969200D01*
G37*
G36*
X158056600Y-64986000D02*
G01*
X157419600Y-64986000D01*
X157419600Y-64969200D01*
X158056600Y-64969200D01*
X158056600Y-64986000D01*
G37*
G36*
X158056600Y-65002700D02*
G01*
X157419600Y-65002700D01*
X157419600Y-64986000D01*
X158056600Y-64986000D01*
X158056600Y-65002700D01*
G37*
G36*
X158056600Y-65019500D02*
G01*
X157419600Y-65019500D01*
X157419600Y-65002700D01*
X158056600Y-65002700D01*
X158056600Y-65019500D01*
G37*
G36*
X158056600Y-65036300D02*
G01*
X157419600Y-65036300D01*
X157419600Y-65019500D01*
X158056600Y-65019500D01*
X158056600Y-65036300D01*
G37*
G36*
X158056600Y-65053000D02*
G01*
X157419600Y-65053000D01*
X157419600Y-65036300D01*
X158056600Y-65036300D01*
X158056600Y-65053000D01*
G37*
G36*
X158056600Y-65069800D02*
G01*
X157419600Y-65069800D01*
X157419600Y-65053000D01*
X158056600Y-65053000D01*
X158056600Y-65069800D01*
G37*
G36*
X158056600Y-65086600D02*
G01*
X157419600Y-65086600D01*
X157419600Y-65069800D01*
X158056600Y-65069800D01*
X158056600Y-65086600D01*
G37*
G36*
X158056600Y-65103300D02*
G01*
X157419600Y-65103300D01*
X157419600Y-65086600D01*
X158056600Y-65086600D01*
X158056600Y-65103300D01*
G37*
G36*
X158056600Y-65120100D02*
G01*
X157419600Y-65120100D01*
X157419600Y-65103300D01*
X158056600Y-65103300D01*
X158056600Y-65120100D01*
G37*
G36*
X158056600Y-65136900D02*
G01*
X157419600Y-65136900D01*
X157419600Y-65120100D01*
X158056600Y-65120100D01*
X158056600Y-65136900D01*
G37*
G36*
X158056600Y-65153600D02*
G01*
X157419600Y-65153600D01*
X157419600Y-65136900D01*
X158056600Y-65136900D01*
X158056600Y-65153600D01*
G37*
G36*
X158056600Y-65170400D02*
G01*
X157419600Y-65170400D01*
X157419600Y-65153600D01*
X158056600Y-65153600D01*
X158056600Y-65170400D01*
G37*
G36*
X158056600Y-65187100D02*
G01*
X157419600Y-65187100D01*
X157419600Y-65170400D01*
X158056600Y-65170400D01*
X158056600Y-65187100D01*
G37*
G36*
X158056600Y-65203900D02*
G01*
X157419600Y-65203900D01*
X157419600Y-65187100D01*
X158056600Y-65187100D01*
X158056600Y-65203900D01*
G37*
G36*
X158056600Y-65220700D02*
G01*
X157419600Y-65220700D01*
X157419600Y-65203900D01*
X158056600Y-65203900D01*
X158056600Y-65220700D01*
G37*
G36*
X158056600Y-65237400D02*
G01*
X157419600Y-65237400D01*
X157419600Y-65220700D01*
X158056600Y-65220700D01*
X158056600Y-65237400D01*
G37*
G36*
X158056600Y-65254200D02*
G01*
X157419600Y-65254200D01*
X157419600Y-65237400D01*
X158056600Y-65237400D01*
X158056600Y-65254200D01*
G37*
G36*
X158056600Y-65271000D02*
G01*
X157419600Y-65271000D01*
X157419600Y-65254200D01*
X158056600Y-65254200D01*
X158056600Y-65271000D01*
G37*
G36*
X158056600Y-65287700D02*
G01*
X157419600Y-65287700D01*
X157419600Y-65271000D01*
X158056600Y-65271000D01*
X158056600Y-65287700D01*
G37*
G36*
X158056600Y-65304500D02*
G01*
X157419600Y-65304500D01*
X157419600Y-65287700D01*
X158056600Y-65287700D01*
X158056600Y-65304500D01*
G37*
G36*
X158056600Y-65321300D02*
G01*
X157419600Y-65321300D01*
X157419600Y-65304500D01*
X158056600Y-65304500D01*
X158056600Y-65321300D01*
G37*
G36*
X158056600Y-65338000D02*
G01*
X157419600Y-65338000D01*
X157419600Y-65321300D01*
X158056600Y-65321300D01*
X158056600Y-65338000D01*
G37*
G36*
X158056600Y-65354800D02*
G01*
X157419600Y-65354800D01*
X157419600Y-65338000D01*
X158056600Y-65338000D01*
X158056600Y-65354800D01*
G37*
G36*
X158056600Y-65371600D02*
G01*
X157419600Y-65371600D01*
X157419600Y-65354800D01*
X158056600Y-65354800D01*
X158056600Y-65371600D01*
G37*
G36*
X158056600Y-65388300D02*
G01*
X157419600Y-65388300D01*
X157419600Y-65371600D01*
X158056600Y-65371600D01*
X158056600Y-65388300D01*
G37*
G36*
X158056600Y-65405100D02*
G01*
X157419600Y-65405100D01*
X157419600Y-65388300D01*
X158056600Y-65388300D01*
X158056600Y-65405100D01*
G37*
G36*
X158056600Y-65421800D02*
G01*
X157419600Y-65421800D01*
X157419600Y-65405100D01*
X158056600Y-65405100D01*
X158056600Y-65421800D01*
G37*
G36*
X158056600Y-65438600D02*
G01*
X157419600Y-65438600D01*
X157419600Y-65421800D01*
X158056600Y-65421800D01*
X158056600Y-65438600D01*
G37*
G36*
X158056600Y-65455400D02*
G01*
X157419600Y-65455400D01*
X157419600Y-65438600D01*
X158056600Y-65438600D01*
X158056600Y-65455400D01*
G37*
G36*
X158056600Y-65472100D02*
G01*
X157419600Y-65472100D01*
X157419600Y-65455400D01*
X158056600Y-65455400D01*
X158056600Y-65472100D01*
G37*
G36*
X158056600Y-65488900D02*
G01*
X157419600Y-65488900D01*
X157419600Y-65472100D01*
X158056600Y-65472100D01*
X158056600Y-65488900D01*
G37*
G36*
X158056600Y-65505700D02*
G01*
X157419600Y-65505700D01*
X157419600Y-65488900D01*
X158056600Y-65488900D01*
X158056600Y-65505700D01*
G37*
G36*
X158056600Y-65522400D02*
G01*
X157419600Y-65522400D01*
X157419600Y-65505700D01*
X158056600Y-65505700D01*
X158056600Y-65522400D01*
G37*
G36*
X158056600Y-65539200D02*
G01*
X157419600Y-65539200D01*
X157419600Y-65522400D01*
X158056600Y-65522400D01*
X158056600Y-65539200D01*
G37*
G36*
X158056600Y-65556000D02*
G01*
X157419600Y-65556000D01*
X157419600Y-65539200D01*
X158056600Y-65539200D01*
X158056600Y-65556000D01*
G37*
G36*
X158056600Y-65572700D02*
G01*
X157419600Y-65572700D01*
X157419600Y-65556000D01*
X158056600Y-65556000D01*
X158056600Y-65572700D01*
G37*
G36*
X158056600Y-65589500D02*
G01*
X157419600Y-65589500D01*
X157419600Y-65572700D01*
X158056600Y-65572700D01*
X158056600Y-65589500D01*
G37*
G36*
X158056600Y-65606200D02*
G01*
X157419600Y-65606200D01*
X157419600Y-65589500D01*
X158056600Y-65589500D01*
X158056600Y-65606200D01*
G37*
G36*
X158056600Y-65623000D02*
G01*
X157419600Y-65623000D01*
X157419600Y-65606200D01*
X158056600Y-65606200D01*
X158056600Y-65623000D01*
G37*
G36*
X158056600Y-65639800D02*
G01*
X157419600Y-65639800D01*
X157419600Y-65623000D01*
X158056600Y-65623000D01*
X158056600Y-65639800D01*
G37*
G36*
X158056600Y-65656500D02*
G01*
X157419600Y-65656500D01*
X157419600Y-65639800D01*
X158056600Y-65639800D01*
X158056600Y-65656500D01*
G37*
G36*
X158056600Y-65673300D02*
G01*
X157419600Y-65673300D01*
X157419600Y-65656500D01*
X158056600Y-65656500D01*
X158056600Y-65673300D01*
G37*
G36*
X158056600Y-65690100D02*
G01*
X157419600Y-65690100D01*
X157419600Y-65673300D01*
X158056600Y-65673300D01*
X158056600Y-65690100D01*
G37*
G36*
X158056600Y-65706800D02*
G01*
X157419600Y-65706800D01*
X157419600Y-65690100D01*
X158056600Y-65690100D01*
X158056600Y-65706800D01*
G37*
G36*
X158056600Y-65723600D02*
G01*
X157419600Y-65723600D01*
X157419600Y-65706800D01*
X158056600Y-65706800D01*
X158056600Y-65723600D01*
G37*
G36*
X158056600Y-65740400D02*
G01*
X157419600Y-65740400D01*
X157419600Y-65723600D01*
X158056600Y-65723600D01*
X158056600Y-65740400D01*
G37*
G36*
X158056600Y-65757100D02*
G01*
X157419600Y-65757100D01*
X157419600Y-65740400D01*
X158056600Y-65740400D01*
X158056600Y-65757100D01*
G37*
G36*
X158056600Y-65773900D02*
G01*
X157419600Y-65773900D01*
X157419600Y-65757100D01*
X158056600Y-65757100D01*
X158056600Y-65773900D01*
G37*
G36*
X158056600Y-65790700D02*
G01*
X157419600Y-65790700D01*
X157419600Y-65773900D01*
X158056600Y-65773900D01*
X158056600Y-65790700D01*
G37*
G36*
X158056600Y-65807400D02*
G01*
X157419600Y-65807400D01*
X157419600Y-65790700D01*
X158056600Y-65790700D01*
X158056600Y-65807400D01*
G37*
G36*
X158056600Y-65824200D02*
G01*
X157419600Y-65824200D01*
X157419600Y-65807400D01*
X158056600Y-65807400D01*
X158056600Y-65824200D01*
G37*
G36*
X158056600Y-65840900D02*
G01*
X157419600Y-65840900D01*
X157419600Y-65824200D01*
X158056600Y-65824200D01*
X158056600Y-65840900D01*
G37*
G36*
X158056600Y-65857700D02*
G01*
X157419600Y-65857700D01*
X157419600Y-65840900D01*
X158056600Y-65840900D01*
X158056600Y-65857700D01*
G37*
G36*
X158056600Y-65874500D02*
G01*
X157419600Y-65874500D01*
X157419600Y-65857700D01*
X158056600Y-65857700D01*
X158056600Y-65874500D01*
G37*
G36*
X158056600Y-65891200D02*
G01*
X157419600Y-65891200D01*
X157419600Y-65874500D01*
X158056600Y-65874500D01*
X158056600Y-65891200D01*
G37*
G36*
X158056600Y-65908000D02*
G01*
X157419600Y-65908000D01*
X157419600Y-65891200D01*
X158056600Y-65891200D01*
X158056600Y-65908000D01*
G37*
G36*
X158056600Y-65924800D02*
G01*
X157419600Y-65924800D01*
X157419600Y-65908000D01*
X158056600Y-65908000D01*
X158056600Y-65924800D01*
G37*
G36*
X158056600Y-65941500D02*
G01*
X157419600Y-65941500D01*
X157419600Y-65924800D01*
X158056600Y-65924800D01*
X158056600Y-65941500D01*
G37*
G36*
X158056600Y-65958300D02*
G01*
X157419600Y-65958300D01*
X157419600Y-65941500D01*
X158056600Y-65941500D01*
X158056600Y-65958300D01*
G37*
G36*
X158056600Y-65975100D02*
G01*
X157419600Y-65975100D01*
X157419600Y-65958300D01*
X158056600Y-65958300D01*
X158056600Y-65975100D01*
G37*
G36*
X158056600Y-65991800D02*
G01*
X157419600Y-65991800D01*
X157419600Y-65975100D01*
X158056600Y-65975100D01*
X158056600Y-65991800D01*
G37*
G36*
X158056600Y-66008600D02*
G01*
X157419600Y-66008600D01*
X157419600Y-65991800D01*
X158056600Y-65991800D01*
X158056600Y-66008600D01*
G37*
G36*
X158056600Y-66025300D02*
G01*
X157419600Y-66025300D01*
X157419600Y-66008600D01*
X158056600Y-66008600D01*
X158056600Y-66025300D01*
G37*
G36*
X158056600Y-66042100D02*
G01*
X157419600Y-66042100D01*
X157419600Y-66025300D01*
X158056600Y-66025300D01*
X158056600Y-66042100D01*
G37*
G36*
X158056600Y-66058900D02*
G01*
X157419600Y-66058900D01*
X157419600Y-66042100D01*
X158056600Y-66042100D01*
X158056600Y-66058900D01*
G37*
G36*
X158056600Y-66075600D02*
G01*
X157419600Y-66075600D01*
X157419600Y-66058900D01*
X158056600Y-66058900D01*
X158056600Y-66075600D01*
G37*
G36*
X158056600Y-66092400D02*
G01*
X157419600Y-66092400D01*
X157419600Y-66075600D01*
X158056600Y-66075600D01*
X158056600Y-66092400D01*
G37*
G36*
X158056600Y-66109200D02*
G01*
X157419600Y-66109200D01*
X157419600Y-66092400D01*
X158056600Y-66092400D01*
X158056600Y-66109200D01*
G37*
G36*
X158056600Y-66125900D02*
G01*
X157419600Y-66125900D01*
X157419600Y-66109200D01*
X158056600Y-66109200D01*
X158056600Y-66125900D01*
G37*
G36*
X158056600Y-66142700D02*
G01*
X157419600Y-66142700D01*
X157419600Y-66125900D01*
X158056600Y-66125900D01*
X158056600Y-66142700D01*
G37*
G36*
X158056600Y-66159500D02*
G01*
X157419600Y-66159500D01*
X157419600Y-66142700D01*
X158056600Y-66142700D01*
X158056600Y-66159500D01*
G37*
G36*
X158056600Y-66176200D02*
G01*
X157419600Y-66176200D01*
X157419600Y-66159500D01*
X158056600Y-66159500D01*
X158056600Y-66176200D01*
G37*
G36*
X158056600Y-66193000D02*
G01*
X157419600Y-66193000D01*
X157419600Y-66176200D01*
X158056600Y-66176200D01*
X158056600Y-66193000D01*
G37*
G36*
X158056600Y-66209800D02*
G01*
X157419600Y-66209800D01*
X157419600Y-66193000D01*
X158056600Y-66193000D01*
X158056600Y-66209800D01*
G37*
G36*
X158056600Y-66226500D02*
G01*
X157419600Y-66226500D01*
X157419600Y-66209800D01*
X158056600Y-66209800D01*
X158056600Y-66226500D01*
G37*
G36*
X158056600Y-66243300D02*
G01*
X157419600Y-66243300D01*
X157419600Y-66226500D01*
X158056600Y-66226500D01*
X158056600Y-66243300D01*
G37*
G36*
X158056600Y-66260000D02*
G01*
X157419600Y-66260000D01*
X157419600Y-66243300D01*
X158056600Y-66243300D01*
X158056600Y-66260000D01*
G37*
G36*
X158056600Y-66276800D02*
G01*
X157419600Y-66276800D01*
X157419600Y-66260000D01*
X158056600Y-66260000D01*
X158056600Y-66276800D01*
G37*
G36*
X158056600Y-66293600D02*
G01*
X157419600Y-66293600D01*
X157419600Y-66276800D01*
X158056600Y-66276800D01*
X158056600Y-66293600D01*
G37*
G36*
X158056600Y-66310300D02*
G01*
X157419600Y-66310300D01*
X157419600Y-66293600D01*
X158056600Y-66293600D01*
X158056600Y-66310300D01*
G37*
G36*
X158056600Y-66327100D02*
G01*
X157419600Y-66327100D01*
X157419600Y-66310300D01*
X158056600Y-66310300D01*
X158056600Y-66327100D01*
G37*
G36*
X158056600Y-66343900D02*
G01*
X157419600Y-66343900D01*
X157419600Y-66327100D01*
X158056600Y-66327100D01*
X158056600Y-66343900D01*
G37*
G36*
X158056600Y-66360600D02*
G01*
X157419600Y-66360600D01*
X157419600Y-66343900D01*
X158056600Y-66343900D01*
X158056600Y-66360600D01*
G37*
G36*
X158056600Y-66377400D02*
G01*
X157419600Y-66377400D01*
X157419600Y-66360600D01*
X158056600Y-66360600D01*
X158056600Y-66377400D01*
G37*
G36*
X158056600Y-66394200D02*
G01*
X157419600Y-66394200D01*
X157419600Y-66377400D01*
X158056600Y-66377400D01*
X158056600Y-66394200D01*
G37*
G36*
X158056600Y-66410900D02*
G01*
X157419600Y-66410900D01*
X157419600Y-66394200D01*
X158056600Y-66394200D01*
X158056600Y-66410900D01*
G37*
G36*
X158056600Y-66427700D02*
G01*
X157419600Y-66427700D01*
X157419600Y-66410900D01*
X158056600Y-66410900D01*
X158056600Y-66427700D01*
G37*
G36*
X158056600Y-66444400D02*
G01*
X157419600Y-66444400D01*
X157419600Y-66427700D01*
X158056600Y-66427700D01*
X158056600Y-66444400D01*
G37*
G36*
X158056600Y-66461200D02*
G01*
X157419600Y-66461200D01*
X157419600Y-66444400D01*
X158056600Y-66444400D01*
X158056600Y-66461200D01*
G37*
G36*
X158056600Y-66478000D02*
G01*
X157419600Y-66478000D01*
X157419600Y-66461200D01*
X158056600Y-66461200D01*
X158056600Y-66478000D01*
G37*
G36*
X158056600Y-66494700D02*
G01*
X157419600Y-66494700D01*
X157419600Y-66478000D01*
X158056600Y-66478000D01*
X158056600Y-66494700D01*
G37*
G36*
X158056600Y-66511500D02*
G01*
X157419600Y-66511500D01*
X157419600Y-66494700D01*
X158056600Y-66494700D01*
X158056600Y-66511500D01*
G37*
G36*
X158056600Y-66528300D02*
G01*
X157419600Y-66528300D01*
X157419600Y-66511500D01*
X158056600Y-66511500D01*
X158056600Y-66528300D01*
G37*
G36*
X158056600Y-66545000D02*
G01*
X157419600Y-66545000D01*
X157419600Y-66528300D01*
X158056600Y-66528300D01*
X158056600Y-66545000D01*
G37*
G36*
X158056600Y-66561800D02*
G01*
X157419600Y-66561800D01*
X157419600Y-66545000D01*
X158056600Y-66545000D01*
X158056600Y-66561800D01*
G37*
G36*
X158056600Y-66578600D02*
G01*
X157419600Y-66578600D01*
X157419600Y-66561800D01*
X158056600Y-66561800D01*
X158056600Y-66578600D01*
G37*
G36*
X158056600Y-66595300D02*
G01*
X157419600Y-66595300D01*
X157419600Y-66578600D01*
X158056600Y-66578600D01*
X158056600Y-66595300D01*
G37*
G36*
X158056600Y-66612100D02*
G01*
X157419600Y-66612100D01*
X157419600Y-66595300D01*
X158056600Y-66595300D01*
X158056600Y-66612100D01*
G37*
G36*
X158056600Y-66628900D02*
G01*
X157419600Y-66628900D01*
X157419600Y-66612100D01*
X158056600Y-66612100D01*
X158056600Y-66628900D01*
G37*
G36*
X158056600Y-66645600D02*
G01*
X157419600Y-66645600D01*
X157419600Y-66628900D01*
X158056600Y-66628900D01*
X158056600Y-66645600D01*
G37*
G36*
X158056600Y-66662400D02*
G01*
X157419600Y-66662400D01*
X157419600Y-66645600D01*
X158056600Y-66645600D01*
X158056600Y-66662400D01*
G37*
G36*
X158056600Y-66679100D02*
G01*
X157419600Y-66679100D01*
X157419600Y-66662400D01*
X158056600Y-66662400D01*
X158056600Y-66679100D01*
G37*
G36*
X158056600Y-66695900D02*
G01*
X157419600Y-66695900D01*
X157419600Y-66679100D01*
X158056600Y-66679100D01*
X158056600Y-66695900D01*
G37*
G36*
X158056600Y-66712700D02*
G01*
X157419600Y-66712700D01*
X157419600Y-66695900D01*
X158056600Y-66695900D01*
X158056600Y-66712700D01*
G37*
G36*
X158056600Y-66729400D02*
G01*
X157419600Y-66729400D01*
X157419600Y-66712700D01*
X158056600Y-66712700D01*
X158056600Y-66729400D01*
G37*
G36*
X158056600Y-66746200D02*
G01*
X157419600Y-66746200D01*
X157419600Y-66729400D01*
X158056600Y-66729400D01*
X158056600Y-66746200D01*
G37*
G36*
X158056600Y-66763000D02*
G01*
X157419600Y-66763000D01*
X157419600Y-66746200D01*
X158056600Y-66746200D01*
X158056600Y-66763000D01*
G37*
G36*
X158056600Y-66779700D02*
G01*
X157419600Y-66779700D01*
X157419600Y-66763000D01*
X158056600Y-66763000D01*
X158056600Y-66779700D01*
G37*
G36*
X158056600Y-66796500D02*
G01*
X157419600Y-66796500D01*
X157419600Y-66779700D01*
X158056600Y-66779700D01*
X158056600Y-66796500D01*
G37*
G36*
X158056600Y-66813300D02*
G01*
X157419600Y-66813300D01*
X157419600Y-66796500D01*
X158056600Y-66796500D01*
X158056600Y-66813300D01*
G37*
G36*
X158056600Y-66830000D02*
G01*
X157419600Y-66830000D01*
X157419600Y-66813300D01*
X158056600Y-66813300D01*
X158056600Y-66830000D01*
G37*
G36*
X158056600Y-66846800D02*
G01*
X157419600Y-66846800D01*
X157419600Y-66830000D01*
X158056600Y-66830000D01*
X158056600Y-66846800D01*
G37*
G36*
X158056600Y-66863500D02*
G01*
X157419600Y-66863500D01*
X157419600Y-66846800D01*
X158056600Y-66846800D01*
X158056600Y-66863500D01*
G37*
G36*
X158056600Y-66880300D02*
G01*
X157419600Y-66880300D01*
X157419600Y-66863500D01*
X158056600Y-66863500D01*
X158056600Y-66880300D01*
G37*
G36*
X158056600Y-66897100D02*
G01*
X157419600Y-66897100D01*
X157419600Y-66880300D01*
X158056600Y-66880300D01*
X158056600Y-66897100D01*
G37*
G36*
X158056600Y-66913800D02*
G01*
X157419600Y-66913800D01*
X157419600Y-66897100D01*
X158056600Y-66897100D01*
X158056600Y-66913800D01*
G37*
G36*
X158056600Y-66930600D02*
G01*
X157419600Y-66930600D01*
X157419600Y-66913800D01*
X158056600Y-66913800D01*
X158056600Y-66930600D01*
G37*
G36*
X158056600Y-66947400D02*
G01*
X157419600Y-66947400D01*
X157419600Y-66930600D01*
X158056600Y-66930600D01*
X158056600Y-66947400D01*
G37*
G36*
X158056600Y-66964100D02*
G01*
X157419600Y-66964100D01*
X157419600Y-66947400D01*
X158056600Y-66947400D01*
X158056600Y-66964100D01*
G37*
G36*
X158056600Y-66980900D02*
G01*
X157419600Y-66980900D01*
X157419600Y-66964100D01*
X158056600Y-66964100D01*
X158056600Y-66980900D01*
G37*
G36*
X158056600Y-66997700D02*
G01*
X157419600Y-66997700D01*
X157419600Y-66980900D01*
X158056600Y-66980900D01*
X158056600Y-66997700D01*
G37*
G36*
X158056600Y-67014400D02*
G01*
X157419600Y-67014400D01*
X157419600Y-66997700D01*
X158056600Y-66997700D01*
X158056600Y-67014400D01*
G37*
G36*
X158056600Y-67031200D02*
G01*
X157419600Y-67031200D01*
X157419600Y-67014400D01*
X158056600Y-67014400D01*
X158056600Y-67031200D01*
G37*
G36*
X158056600Y-67048000D02*
G01*
X157419600Y-67048000D01*
X157419600Y-67031200D01*
X158056600Y-67031200D01*
X158056600Y-67048000D01*
G37*
G36*
X158056600Y-67064700D02*
G01*
X157419600Y-67064700D01*
X157419600Y-67048000D01*
X158056600Y-67048000D01*
X158056600Y-67064700D01*
G37*
G36*
X158056600Y-67081500D02*
G01*
X157419600Y-67081500D01*
X157419600Y-67064700D01*
X158056600Y-67064700D01*
X158056600Y-67081500D01*
G37*
G36*
X158056600Y-67098200D02*
G01*
X157419600Y-67098200D01*
X157419600Y-67081500D01*
X158056600Y-67081500D01*
X158056600Y-67098200D01*
G37*
G36*
X158056600Y-67115000D02*
G01*
X157419600Y-67115000D01*
X157419600Y-67098200D01*
X158056600Y-67098200D01*
X158056600Y-67115000D01*
G37*
G36*
X158056600Y-67131800D02*
G01*
X157419600Y-67131800D01*
X157419600Y-67115000D01*
X158056600Y-67115000D01*
X158056600Y-67131800D01*
G37*
G36*
X158056600Y-67148500D02*
G01*
X157419600Y-67148500D01*
X157419600Y-67131800D01*
X158056600Y-67131800D01*
X158056600Y-67148500D01*
G37*
G36*
X158056600Y-67165300D02*
G01*
X157419600Y-67165300D01*
X157419600Y-67148500D01*
X158056600Y-67148500D01*
X158056600Y-67165300D01*
G37*
G36*
X158056600Y-67483800D02*
G01*
X157419600Y-67483800D01*
X157419600Y-67467100D01*
X158056600Y-67467100D01*
X158056600Y-67483800D01*
G37*
G36*
X158056600Y-67500600D02*
G01*
X157419600Y-67500600D01*
X157419600Y-67483800D01*
X158056600Y-67483800D01*
X158056600Y-67500600D01*
G37*
G36*
X158056600Y-67517300D02*
G01*
X157419600Y-67517300D01*
X157419600Y-67500600D01*
X158056600Y-67500600D01*
X158056600Y-67517300D01*
G37*
G36*
X158056600Y-67534100D02*
G01*
X157419600Y-67534100D01*
X157419600Y-67517300D01*
X158056600Y-67517300D01*
X158056600Y-67534100D01*
G37*
G36*
X158056600Y-67550900D02*
G01*
X157419600Y-67550900D01*
X157419600Y-67534100D01*
X158056600Y-67534100D01*
X158056600Y-67550900D01*
G37*
G36*
X158056600Y-67567600D02*
G01*
X157419600Y-67567600D01*
X157419600Y-67550900D01*
X158056600Y-67550900D01*
X158056600Y-67567600D01*
G37*
G36*
X158056600Y-67584400D02*
G01*
X157419600Y-67584400D01*
X157419600Y-67567600D01*
X158056600Y-67567600D01*
X158056600Y-67584400D01*
G37*
G36*
X158056600Y-67601200D02*
G01*
X157419600Y-67601200D01*
X157419600Y-67584400D01*
X158056600Y-67584400D01*
X158056600Y-67601200D01*
G37*
G36*
X158056600Y-67617900D02*
G01*
X157419600Y-67617900D01*
X157419600Y-67601200D01*
X158056600Y-67601200D01*
X158056600Y-67617900D01*
G37*
G36*
X158056600Y-67634700D02*
G01*
X157419600Y-67634700D01*
X157419600Y-67617900D01*
X158056600Y-67617900D01*
X158056600Y-67634700D01*
G37*
G36*
X158056600Y-67651500D02*
G01*
X157419600Y-67651500D01*
X157419600Y-67634700D01*
X158056600Y-67634700D01*
X158056600Y-67651500D01*
G37*
G36*
X158056600Y-67668200D02*
G01*
X157419600Y-67668200D01*
X157419600Y-67651500D01*
X158056600Y-67651500D01*
X158056600Y-67668200D01*
G37*
G36*
X158056600Y-67685000D02*
G01*
X157419600Y-67685000D01*
X157419600Y-67668200D01*
X158056600Y-67668200D01*
X158056600Y-67685000D01*
G37*
G36*
X158056600Y-67701700D02*
G01*
X157419600Y-67701700D01*
X157419600Y-67685000D01*
X158056600Y-67685000D01*
X158056600Y-67701700D01*
G37*
G36*
X158056600Y-67718500D02*
G01*
X157419600Y-67718500D01*
X157419600Y-67701700D01*
X158056600Y-67701700D01*
X158056600Y-67718500D01*
G37*
G36*
X158056600Y-67735300D02*
G01*
X157419600Y-67735300D01*
X157419600Y-67718500D01*
X158056600Y-67718500D01*
X158056600Y-67735300D01*
G37*
G36*
X158056600Y-67752000D02*
G01*
X157419600Y-67752000D01*
X157419600Y-67735300D01*
X158056600Y-67735300D01*
X158056600Y-67752000D01*
G37*
G36*
X158056600Y-67768800D02*
G01*
X157419600Y-67768800D01*
X157419600Y-67752000D01*
X158056600Y-67752000D01*
X158056600Y-67768800D01*
G37*
G36*
X158056600Y-67785600D02*
G01*
X157419600Y-67785600D01*
X157419600Y-67768800D01*
X158056600Y-67768800D01*
X158056600Y-67785600D01*
G37*
G36*
X158056600Y-67802300D02*
G01*
X157419600Y-67802300D01*
X157419600Y-67785600D01*
X158056600Y-67785600D01*
X158056600Y-67802300D01*
G37*
G36*
X158056600Y-67819100D02*
G01*
X157419600Y-67819100D01*
X157419600Y-67802300D01*
X158056600Y-67802300D01*
X158056600Y-67819100D01*
G37*
G36*
X158056600Y-67835900D02*
G01*
X157419600Y-67835900D01*
X157419600Y-67819100D01*
X158056600Y-67819100D01*
X158056600Y-67835900D01*
G37*
G36*
X158056600Y-67852600D02*
G01*
X157419600Y-67852600D01*
X157419600Y-67835900D01*
X158056600Y-67835900D01*
X158056600Y-67852600D01*
G37*
G36*
X158056600Y-67869400D02*
G01*
X157419600Y-67869400D01*
X157419600Y-67852600D01*
X158056600Y-67852600D01*
X158056600Y-67869400D01*
G37*
G36*
X158056600Y-67886200D02*
G01*
X157419600Y-67886200D01*
X157419600Y-67869400D01*
X158056600Y-67869400D01*
X158056600Y-67886200D01*
G37*
G36*
X158056600Y-67902900D02*
G01*
X157419600Y-67902900D01*
X157419600Y-67886200D01*
X158056600Y-67886200D01*
X158056600Y-67902900D01*
G37*
G36*
X158056600Y-67919700D02*
G01*
X157419600Y-67919700D01*
X157419600Y-67902900D01*
X158056600Y-67902900D01*
X158056600Y-67919700D01*
G37*
G36*
X158056600Y-67936400D02*
G01*
X157419600Y-67936400D01*
X157419600Y-67919700D01*
X158056600Y-67919700D01*
X158056600Y-67936400D01*
G37*
G36*
X158291300Y-63913100D02*
G01*
X157704600Y-63913100D01*
X157704600Y-63896300D01*
X158291300Y-63896300D01*
X158291300Y-63913100D01*
G37*
G36*
X158291300Y-63929800D02*
G01*
X157704600Y-63929800D01*
X157704600Y-63913100D01*
X158291300Y-63913100D01*
X158291300Y-63929800D01*
G37*
G36*
X158274500Y-63946600D02*
G01*
X157704600Y-63946600D01*
X157704600Y-63929800D01*
X158274500Y-63929800D01*
X158274500Y-63946600D01*
G37*
G36*
X158274500Y-63963400D02*
G01*
X157704600Y-63963400D01*
X157704600Y-63946600D01*
X158274500Y-63946600D01*
X158274500Y-63963400D01*
G37*
G36*
X158274500Y-63980100D02*
G01*
X157704600Y-63980100D01*
X157704600Y-63963400D01*
X158274500Y-63963400D01*
X158274500Y-63980100D01*
G37*
G36*
X158274500Y-63996900D02*
G01*
X157704600Y-63996900D01*
X157704600Y-63980100D01*
X158274500Y-63980100D01*
X158274500Y-63996900D01*
G37*
G36*
X158274500Y-64013700D02*
G01*
X157704600Y-64013700D01*
X157704600Y-63996900D01*
X158274500Y-63996900D01*
X158274500Y-64013700D01*
G37*
G36*
X158710400Y-64030400D02*
G01*
X157704600Y-64030400D01*
X157704600Y-64013700D01*
X158710400Y-64013700D01*
X158710400Y-64030400D01*
G37*
G36*
X158710400Y-64047200D02*
G01*
X157704600Y-64047200D01*
X157704600Y-64030400D01*
X158710400Y-64030400D01*
X158710400Y-64047200D01*
G37*
G36*
X158693600Y-64064000D02*
G01*
X157704600Y-64064000D01*
X157704600Y-64047200D01*
X158693600Y-64047200D01*
X158693600Y-64064000D01*
G37*
G36*
X158693600Y-64080700D02*
G01*
X157704600Y-64080700D01*
X157704600Y-64064000D01*
X158693600Y-64064000D01*
X158693600Y-64080700D01*
G37*
G36*
X158660100Y-64097500D02*
G01*
X157704600Y-64097500D01*
X157704600Y-64080700D01*
X158660100Y-64080700D01*
X158660100Y-64097500D01*
G37*
G36*
X158559500Y-64114300D02*
G01*
X157704600Y-64114300D01*
X157704600Y-64097500D01*
X158559500Y-64097500D01*
X158559500Y-64114300D01*
G37*
G36*
X158308100Y-64214800D02*
G01*
X157704600Y-64214800D01*
X157704600Y-64198100D01*
X158308100Y-64198100D01*
X158308100Y-64214800D01*
G37*
G36*
X158291300Y-64231600D02*
G01*
X157704600Y-64231600D01*
X157704600Y-64214800D01*
X158291300Y-64214800D01*
X158291300Y-64231600D01*
G37*
G36*
X158291300Y-64248400D02*
G01*
X157704600Y-64248400D01*
X157704600Y-64231600D01*
X158291300Y-64231600D01*
X158291300Y-64248400D01*
G37*
G36*
X158291300Y-64265100D02*
G01*
X157704600Y-64265100D01*
X157704600Y-64248400D01*
X158291300Y-64248400D01*
X158291300Y-64265100D01*
G37*
G36*
X158291300Y-64281900D02*
G01*
X157704600Y-64281900D01*
X157704600Y-64265100D01*
X158291300Y-64265100D01*
X158291300Y-64281900D01*
G37*
G36*
X158291300Y-64298700D02*
G01*
X157704600Y-64298700D01*
X157704600Y-64281900D01*
X158291300Y-64281900D01*
X158291300Y-64298700D01*
G37*
G36*
X158291300Y-64315400D02*
G01*
X157704600Y-64315400D01*
X157704600Y-64298700D01*
X158291300Y-64298700D01*
X158291300Y-64315400D01*
G37*
G36*
X158291300Y-64332200D02*
G01*
X157704600Y-64332200D01*
X157704600Y-64315400D01*
X158291300Y-64315400D01*
X158291300Y-64332200D01*
G37*
G36*
X158291300Y-64348900D02*
G01*
X157704600Y-64348900D01*
X157704600Y-64332200D01*
X158291300Y-64332200D01*
X158291300Y-64348900D01*
G37*
G36*
X158291300Y-64365700D02*
G01*
X157704600Y-64365700D01*
X157704600Y-64348900D01*
X158291300Y-64348900D01*
X158291300Y-64365700D01*
G37*
G36*
X158291300Y-64382500D02*
G01*
X157704600Y-64382500D01*
X157704600Y-64365700D01*
X158291300Y-64365700D01*
X158291300Y-64382500D01*
G37*
G36*
X158308100Y-64399200D02*
G01*
X157704600Y-64399200D01*
X157704600Y-64382500D01*
X158308100Y-64382500D01*
X158308100Y-64399200D01*
G37*
G36*
X158375100Y-64131000D02*
G01*
X158006300Y-64131000D01*
X158006300Y-64114300D01*
X158375100Y-64114300D01*
X158375100Y-64131000D01*
G37*
G36*
X158324800Y-64147800D02*
G01*
X158006300Y-64147800D01*
X158006300Y-64131000D01*
X158324800Y-64131000D01*
X158324800Y-64147800D01*
G37*
G36*
X158324800Y-64164500D02*
G01*
X158006300Y-64164500D01*
X158006300Y-64147800D01*
X158324800Y-64147800D01*
X158324800Y-64164500D01*
G37*
G36*
X158308100Y-64181300D02*
G01*
X158006300Y-64181300D01*
X158006300Y-64164500D01*
X158308100Y-64164500D01*
X158308100Y-64181300D01*
G37*
G36*
X158308100Y-64198100D02*
G01*
X158006300Y-64198100D01*
X158006300Y-64181300D01*
X158308100Y-64181300D01*
X158308100Y-64198100D01*
G37*
G36*
X158308100Y-64416000D02*
G01*
X158056600Y-64416000D01*
X158056600Y-64399200D01*
X158308100Y-64399200D01*
X158308100Y-64416000D01*
G37*
G36*
X158308100Y-64432800D02*
G01*
X158056600Y-64432800D01*
X158056600Y-64416000D01*
X158308100Y-64416000D01*
X158308100Y-64432800D01*
G37*
G36*
X158308100Y-64449500D02*
G01*
X158056600Y-64449500D01*
X158056600Y-64432800D01*
X158308100Y-64432800D01*
X158308100Y-64449500D01*
G37*
G36*
X158324800Y-64466300D02*
G01*
X158056600Y-64466300D01*
X158056600Y-64449500D01*
X158324800Y-64449500D01*
X158324800Y-64466300D01*
G37*
G36*
X158358400Y-64483100D02*
G01*
X158056600Y-64483100D01*
X158056600Y-64466300D01*
X158358400Y-64466300D01*
X158358400Y-64483100D01*
G37*
G36*
X158391900Y-64499800D02*
G01*
X158056600Y-64499800D01*
X158056600Y-64483100D01*
X158391900Y-64483100D01*
X158391900Y-64499800D01*
G37*
G36*
X159381000Y-65271000D02*
G01*
X158274500Y-65271000D01*
X158274500Y-65254200D01*
X159381000Y-65254200D01*
X159381000Y-65271000D01*
G37*
G36*
X159381000Y-65287700D02*
G01*
X158274500Y-65287700D01*
X158274500Y-65271000D01*
X159381000Y-65271000D01*
X159381000Y-65287700D01*
G37*
G36*
X159381000Y-65304500D02*
G01*
X158274500Y-65304500D01*
X158274500Y-65287700D01*
X159381000Y-65287700D01*
X159381000Y-65304500D01*
G37*
G36*
X159381000Y-65321300D02*
G01*
X158274500Y-65321300D01*
X158274500Y-65304500D01*
X159381000Y-65304500D01*
X159381000Y-65321300D01*
G37*
G36*
X159381000Y-65338000D02*
G01*
X158274500Y-65338000D01*
X158274500Y-65321300D01*
X159381000Y-65321300D01*
X159381000Y-65338000D01*
G37*
G36*
X159381000Y-65354800D02*
G01*
X158274500Y-65354800D01*
X158274500Y-65338000D01*
X159381000Y-65338000D01*
X159381000Y-65354800D01*
G37*
G36*
X159381000Y-65371600D02*
G01*
X158274500Y-65371600D01*
X158274500Y-65354800D01*
X159381000Y-65354800D01*
X159381000Y-65371600D01*
G37*
G36*
X159381000Y-65388300D02*
G01*
X158274500Y-65388300D01*
X158274500Y-65371600D01*
X159381000Y-65371600D01*
X159381000Y-65388300D01*
G37*
G36*
X159381000Y-65405100D02*
G01*
X158274500Y-65405100D01*
X158274500Y-65388300D01*
X159381000Y-65388300D01*
X159381000Y-65405100D01*
G37*
G36*
X159012200Y-65421800D02*
G01*
X158274500Y-65421800D01*
X158274500Y-65405100D01*
X159012200Y-65405100D01*
X159012200Y-65421800D01*
G37*
G36*
X158961900Y-65438600D02*
G01*
X158274500Y-65438600D01*
X158274500Y-65421800D01*
X158961900Y-65421800D01*
X158961900Y-65438600D01*
G37*
G36*
X158945100Y-65455400D02*
G01*
X158274500Y-65455400D01*
X158274500Y-65438600D01*
X158945100Y-65438600D01*
X158945100Y-65455400D01*
G37*
G36*
X158928300Y-65472100D02*
G01*
X158274500Y-65472100D01*
X158274500Y-65455400D01*
X158928300Y-65455400D01*
X158928300Y-65472100D01*
G37*
G36*
X158928300Y-65488900D02*
G01*
X158274500Y-65488900D01*
X158274500Y-65472100D01*
X158928300Y-65472100D01*
X158928300Y-65488900D01*
G37*
G36*
X158928300Y-65505700D02*
G01*
X158274500Y-65505700D01*
X158274500Y-65488900D01*
X158928300Y-65488900D01*
X158928300Y-65505700D01*
G37*
G36*
X158911600Y-65522400D02*
G01*
X158274500Y-65522400D01*
X158274500Y-65505700D01*
X158911600Y-65505700D01*
X158911600Y-65522400D01*
G37*
G36*
X158911600Y-65539200D02*
G01*
X158274500Y-65539200D01*
X158274500Y-65522400D01*
X158911600Y-65522400D01*
X158911600Y-65539200D01*
G37*
G36*
X158911600Y-65556000D02*
G01*
X158274500Y-65556000D01*
X158274500Y-65539200D01*
X158911600Y-65539200D01*
X158911600Y-65556000D01*
G37*
G36*
X158911600Y-65572700D02*
G01*
X158274500Y-65572700D01*
X158274500Y-65556000D01*
X158911600Y-65556000D01*
X158911600Y-65572700D01*
G37*
G36*
X158911600Y-65589500D02*
G01*
X158274500Y-65589500D01*
X158274500Y-65572700D01*
X158911600Y-65572700D01*
X158911600Y-65589500D01*
G37*
G36*
X158911600Y-65606200D02*
G01*
X158274500Y-65606200D01*
X158274500Y-65589500D01*
X158911600Y-65589500D01*
X158911600Y-65606200D01*
G37*
G36*
X158911600Y-65623000D02*
G01*
X158274500Y-65623000D01*
X158274500Y-65606200D01*
X158911600Y-65606200D01*
X158911600Y-65623000D01*
G37*
G36*
X158911600Y-65639800D02*
G01*
X158274500Y-65639800D01*
X158274500Y-65623000D01*
X158911600Y-65623000D01*
X158911600Y-65639800D01*
G37*
G36*
X158911600Y-65656500D02*
G01*
X158274500Y-65656500D01*
X158274500Y-65639800D01*
X158911600Y-65639800D01*
X158911600Y-65656500D01*
G37*
G36*
X158911600Y-65673300D02*
G01*
X158274500Y-65673300D01*
X158274500Y-65656500D01*
X158911600Y-65656500D01*
X158911600Y-65673300D01*
G37*
G36*
X158911600Y-65690100D02*
G01*
X158274500Y-65690100D01*
X158274500Y-65673300D01*
X158911600Y-65673300D01*
X158911600Y-65690100D01*
G37*
G36*
X158911600Y-65706800D02*
G01*
X158274500Y-65706800D01*
X158274500Y-65690100D01*
X158911600Y-65690100D01*
X158911600Y-65706800D01*
G37*
G36*
X158911600Y-65723600D02*
G01*
X158274500Y-65723600D01*
X158274500Y-65706800D01*
X158911600Y-65706800D01*
X158911600Y-65723600D01*
G37*
G36*
X158911600Y-65740400D02*
G01*
X158274500Y-65740400D01*
X158274500Y-65723600D01*
X158911600Y-65723600D01*
X158911600Y-65740400D01*
G37*
G36*
X158911600Y-65757100D02*
G01*
X158274500Y-65757100D01*
X158274500Y-65740400D01*
X158911600Y-65740400D01*
X158911600Y-65757100D01*
G37*
G36*
X158911600Y-65773900D02*
G01*
X158274500Y-65773900D01*
X158274500Y-65757100D01*
X158911600Y-65757100D01*
X158911600Y-65773900D01*
G37*
G36*
X158911600Y-65790700D02*
G01*
X158274500Y-65790700D01*
X158274500Y-65773900D01*
X158911600Y-65773900D01*
X158911600Y-65790700D01*
G37*
G36*
X158911600Y-65807400D02*
G01*
X158274500Y-65807400D01*
X158274500Y-65790700D01*
X158911600Y-65790700D01*
X158911600Y-65807400D01*
G37*
G36*
X158911600Y-65824200D02*
G01*
X158274500Y-65824200D01*
X158274500Y-65807400D01*
X158911600Y-65807400D01*
X158911600Y-65824200D01*
G37*
G36*
X158911600Y-65840900D02*
G01*
X158274500Y-65840900D01*
X158274500Y-65824200D01*
X158911600Y-65824200D01*
X158911600Y-65840900D01*
G37*
G36*
X158911600Y-65857700D02*
G01*
X158274500Y-65857700D01*
X158274500Y-65840900D01*
X158911600Y-65840900D01*
X158911600Y-65857700D01*
G37*
G36*
X158911600Y-65874500D02*
G01*
X158274500Y-65874500D01*
X158274500Y-65857700D01*
X158911600Y-65857700D01*
X158911600Y-65874500D01*
G37*
G36*
X158911600Y-65891200D02*
G01*
X158274500Y-65891200D01*
X158274500Y-65874500D01*
X158911600Y-65874500D01*
X158911600Y-65891200D01*
G37*
G36*
X158911600Y-65908000D02*
G01*
X158274500Y-65908000D01*
X158274500Y-65891200D01*
X158911600Y-65891200D01*
X158911600Y-65908000D01*
G37*
G36*
X158911600Y-65924800D02*
G01*
X158274500Y-65924800D01*
X158274500Y-65908000D01*
X158911600Y-65908000D01*
X158911600Y-65924800D01*
G37*
G36*
X158911600Y-65941500D02*
G01*
X158274500Y-65941500D01*
X158274500Y-65924800D01*
X158911600Y-65924800D01*
X158911600Y-65941500D01*
G37*
G36*
X158911600Y-65958300D02*
G01*
X158274500Y-65958300D01*
X158274500Y-65941500D01*
X158911600Y-65941500D01*
X158911600Y-65958300D01*
G37*
G36*
X158911600Y-65975100D02*
G01*
X158274500Y-65975100D01*
X158274500Y-65958300D01*
X158911600Y-65958300D01*
X158911600Y-65975100D01*
G37*
G36*
X158911600Y-65991800D02*
G01*
X158274500Y-65991800D01*
X158274500Y-65975100D01*
X158911600Y-65975100D01*
X158911600Y-65991800D01*
G37*
G36*
X158911600Y-66008600D02*
G01*
X158274500Y-66008600D01*
X158274500Y-65991800D01*
X158911600Y-65991800D01*
X158911600Y-66008600D01*
G37*
G36*
X158911600Y-66025300D02*
G01*
X158274500Y-66025300D01*
X158274500Y-66008600D01*
X158911600Y-66008600D01*
X158911600Y-66025300D01*
G37*
G36*
X158911600Y-66042100D02*
G01*
X158274500Y-66042100D01*
X158274500Y-66025300D01*
X158911600Y-66025300D01*
X158911600Y-66042100D01*
G37*
G36*
X158911600Y-66058900D02*
G01*
X158274500Y-66058900D01*
X158274500Y-66042100D01*
X158911600Y-66042100D01*
X158911600Y-66058900D01*
G37*
G36*
X158911600Y-66075600D02*
G01*
X158274500Y-66075600D01*
X158274500Y-66058900D01*
X158911600Y-66058900D01*
X158911600Y-66075600D01*
G37*
G36*
X158911600Y-66092400D02*
G01*
X158274500Y-66092400D01*
X158274500Y-66075600D01*
X158911600Y-66075600D01*
X158911600Y-66092400D01*
G37*
G36*
X158911600Y-66109200D02*
G01*
X158274500Y-66109200D01*
X158274500Y-66092400D01*
X158911600Y-66092400D01*
X158911600Y-66109200D01*
G37*
G36*
X158911600Y-66125900D02*
G01*
X158274500Y-66125900D01*
X158274500Y-66109200D01*
X158911600Y-66109200D01*
X158911600Y-66125900D01*
G37*
G36*
X158911600Y-66142700D02*
G01*
X158274500Y-66142700D01*
X158274500Y-66125900D01*
X158911600Y-66125900D01*
X158911600Y-66142700D01*
G37*
G36*
X158911600Y-66159500D02*
G01*
X158274500Y-66159500D01*
X158274500Y-66142700D01*
X158911600Y-66142700D01*
X158911600Y-66159500D01*
G37*
G36*
X158911600Y-66176200D02*
G01*
X158274500Y-66176200D01*
X158274500Y-66159500D01*
X158911600Y-66159500D01*
X158911600Y-66176200D01*
G37*
G36*
X158911600Y-66193000D02*
G01*
X158274500Y-66193000D01*
X158274500Y-66176200D01*
X158911600Y-66176200D01*
X158911600Y-66193000D01*
G37*
G36*
X158911600Y-66209800D02*
G01*
X158274500Y-66209800D01*
X158274500Y-66193000D01*
X158911600Y-66193000D01*
X158911600Y-66209800D01*
G37*
G36*
X158911600Y-66226500D02*
G01*
X158274500Y-66226500D01*
X158274500Y-66209800D01*
X158911600Y-66209800D01*
X158911600Y-66226500D01*
G37*
G36*
X158911600Y-66243300D02*
G01*
X158274500Y-66243300D01*
X158274500Y-66226500D01*
X158911600Y-66226500D01*
X158911600Y-66243300D01*
G37*
G36*
X158911600Y-66260000D02*
G01*
X158274500Y-66260000D01*
X158274500Y-66243300D01*
X158911600Y-66243300D01*
X158911600Y-66260000D01*
G37*
G36*
X158911600Y-66276800D02*
G01*
X158274500Y-66276800D01*
X158274500Y-66260000D01*
X158911600Y-66260000D01*
X158911600Y-66276800D01*
G37*
G36*
X158911600Y-66293600D02*
G01*
X158274500Y-66293600D01*
X158274500Y-66276800D01*
X158911600Y-66276800D01*
X158911600Y-66293600D01*
G37*
G36*
X158911600Y-66310300D02*
G01*
X158274500Y-66310300D01*
X158274500Y-66293600D01*
X158911600Y-66293600D01*
X158911600Y-66310300D01*
G37*
G36*
X158911600Y-66327100D02*
G01*
X158274500Y-66327100D01*
X158274500Y-66310300D01*
X158911600Y-66310300D01*
X158911600Y-66327100D01*
G37*
G36*
X158911600Y-66343900D02*
G01*
X158274500Y-66343900D01*
X158274500Y-66327100D01*
X158911600Y-66327100D01*
X158911600Y-66343900D01*
G37*
G36*
X158911600Y-66360600D02*
G01*
X158274500Y-66360600D01*
X158274500Y-66343900D01*
X158911600Y-66343900D01*
X158911600Y-66360600D01*
G37*
G36*
X158911600Y-66377400D02*
G01*
X158274500Y-66377400D01*
X158274500Y-66360600D01*
X158911600Y-66360600D01*
X158911600Y-66377400D01*
G37*
G36*
X158911600Y-66394200D02*
G01*
X158274500Y-66394200D01*
X158274500Y-66377400D01*
X158911600Y-66377400D01*
X158911600Y-66394200D01*
G37*
G36*
X158911600Y-66410900D02*
G01*
X158274500Y-66410900D01*
X158274500Y-66394200D01*
X158911600Y-66394200D01*
X158911600Y-66410900D01*
G37*
G36*
X158911600Y-66427700D02*
G01*
X158274500Y-66427700D01*
X158274500Y-66410900D01*
X158911600Y-66410900D01*
X158911600Y-66427700D01*
G37*
G36*
X158911600Y-66444400D02*
G01*
X158274500Y-66444400D01*
X158274500Y-66427700D01*
X158911600Y-66427700D01*
X158911600Y-66444400D01*
G37*
G36*
X158911600Y-66461200D02*
G01*
X158274500Y-66461200D01*
X158274500Y-66444400D01*
X158911600Y-66444400D01*
X158911600Y-66461200D01*
G37*
G36*
X158911600Y-66478000D02*
G01*
X158274500Y-66478000D01*
X158274500Y-66461200D01*
X158911600Y-66461200D01*
X158911600Y-66478000D01*
G37*
G36*
X158911600Y-66494700D02*
G01*
X158274500Y-66494700D01*
X158274500Y-66478000D01*
X158911600Y-66478000D01*
X158911600Y-66494700D01*
G37*
G36*
X158911600Y-66511500D02*
G01*
X158274500Y-66511500D01*
X158274500Y-66494700D01*
X158911600Y-66494700D01*
X158911600Y-66511500D01*
G37*
G36*
X158911600Y-66528300D02*
G01*
X158274500Y-66528300D01*
X158274500Y-66511500D01*
X158911600Y-66511500D01*
X158911600Y-66528300D01*
G37*
G36*
X158911600Y-66545000D02*
G01*
X158274500Y-66545000D01*
X158274500Y-66528300D01*
X158911600Y-66528300D01*
X158911600Y-66545000D01*
G37*
G36*
X158911600Y-66561800D02*
G01*
X158274500Y-66561800D01*
X158274500Y-66545000D01*
X158911600Y-66545000D01*
X158911600Y-66561800D01*
G37*
G36*
X158911600Y-66578600D02*
G01*
X158274500Y-66578600D01*
X158274500Y-66561800D01*
X158911600Y-66561800D01*
X158911600Y-66578600D01*
G37*
G36*
X158911600Y-66595300D02*
G01*
X158274500Y-66595300D01*
X158274500Y-66578600D01*
X158911600Y-66578600D01*
X158911600Y-66595300D01*
G37*
G36*
X158911600Y-66612100D02*
G01*
X158274500Y-66612100D01*
X158274500Y-66595300D01*
X158911600Y-66595300D01*
X158911600Y-66612100D01*
G37*
G36*
X158911600Y-66628900D02*
G01*
X158274500Y-66628900D01*
X158274500Y-66612100D01*
X158911600Y-66612100D01*
X158911600Y-66628900D01*
G37*
G36*
X158911600Y-66645600D02*
G01*
X158274500Y-66645600D01*
X158274500Y-66628900D01*
X158911600Y-66628900D01*
X158911600Y-66645600D01*
G37*
G36*
X158911600Y-66662400D02*
G01*
X158274500Y-66662400D01*
X158274500Y-66645600D01*
X158911600Y-66645600D01*
X158911600Y-66662400D01*
G37*
G36*
X159381000Y-66679100D02*
G01*
X158274500Y-66679100D01*
X158274500Y-66662400D01*
X159381000Y-66662400D01*
X159381000Y-66679100D01*
G37*
G36*
X159381000Y-66695900D02*
G01*
X158274500Y-66695900D01*
X158274500Y-66679100D01*
X159381000Y-66679100D01*
X159381000Y-66695900D01*
G37*
G36*
X159381000Y-66712700D02*
G01*
X158274500Y-66712700D01*
X158274500Y-66695900D01*
X159381000Y-66695900D01*
X159381000Y-66712700D01*
G37*
G36*
X159381000Y-66729400D02*
G01*
X158274500Y-66729400D01*
X158274500Y-66712700D01*
X159381000Y-66712700D01*
X159381000Y-66729400D01*
G37*
G36*
X159381000Y-66746200D02*
G01*
X158274500Y-66746200D01*
X158274500Y-66729400D01*
X159381000Y-66729400D01*
X159381000Y-66746200D01*
G37*
G36*
X159381000Y-66763000D02*
G01*
X158274500Y-66763000D01*
X158274500Y-66746200D01*
X159381000Y-66746200D01*
X159381000Y-66763000D01*
G37*
G36*
X159381000Y-66779700D02*
G01*
X158274500Y-66779700D01*
X158274500Y-66763000D01*
X159381000Y-66763000D01*
X159381000Y-66779700D01*
G37*
G36*
X159381000Y-66796500D02*
G01*
X158274500Y-66796500D01*
X158274500Y-66779700D01*
X159381000Y-66779700D01*
X159381000Y-66796500D01*
G37*
G36*
X159381000Y-66813300D02*
G01*
X158274500Y-66813300D01*
X158274500Y-66796500D01*
X159381000Y-66796500D01*
X159381000Y-66813300D01*
G37*
G36*
X159381000Y-66830000D02*
G01*
X158274500Y-66830000D01*
X158274500Y-66813300D01*
X159381000Y-66813300D01*
X159381000Y-66830000D01*
G37*
G36*
X159381000Y-66846800D02*
G01*
X158274500Y-66846800D01*
X158274500Y-66830000D01*
X159381000Y-66830000D01*
X159381000Y-66846800D01*
G37*
G36*
X159381000Y-66863500D02*
G01*
X158274500Y-66863500D01*
X158274500Y-66846800D01*
X159381000Y-66846800D01*
X159381000Y-66863500D01*
G37*
G36*
X159381000Y-66880300D02*
G01*
X158274500Y-66880300D01*
X158274500Y-66863500D01*
X159381000Y-66863500D01*
X159381000Y-66880300D01*
G37*
G36*
X159381000Y-66897100D02*
G01*
X158274500Y-66897100D01*
X158274500Y-66880300D01*
X159381000Y-66880300D01*
X159381000Y-66897100D01*
G37*
G36*
X159381000Y-66913800D02*
G01*
X158274500Y-66913800D01*
X158274500Y-66897100D01*
X159381000Y-66897100D01*
X159381000Y-66913800D01*
G37*
G36*
X159381000Y-66930600D02*
G01*
X158274500Y-66930600D01*
X158274500Y-66913800D01*
X159381000Y-66913800D01*
X159381000Y-66930600D01*
G37*
G36*
X159381000Y-66947400D02*
G01*
X158274500Y-66947400D01*
X158274500Y-66930600D01*
X159381000Y-66930600D01*
X159381000Y-66947400D01*
G37*
G36*
X159381000Y-66964100D02*
G01*
X158274500Y-66964100D01*
X158274500Y-66947400D01*
X159381000Y-66947400D01*
X159381000Y-66964100D01*
G37*
G36*
X159381000Y-66980900D02*
G01*
X158274500Y-66980900D01*
X158274500Y-66964100D01*
X159381000Y-66964100D01*
X159381000Y-66980900D01*
G37*
G36*
X159381000Y-66997700D02*
G01*
X158274500Y-66997700D01*
X158274500Y-66980900D01*
X159381000Y-66980900D01*
X159381000Y-66997700D01*
G37*
G36*
X159381000Y-67014400D02*
G01*
X158274500Y-67014400D01*
X158274500Y-66997700D01*
X159381000Y-66997700D01*
X159381000Y-67014400D01*
G37*
G36*
X159381000Y-67031200D02*
G01*
X158274500Y-67031200D01*
X158274500Y-67014400D01*
X159381000Y-67014400D01*
X159381000Y-67031200D01*
G37*
G36*
X159381000Y-67048000D02*
G01*
X158274500Y-67048000D01*
X158274500Y-67031200D01*
X159381000Y-67031200D01*
X159381000Y-67048000D01*
G37*
G36*
X159381000Y-67064700D02*
G01*
X158274500Y-67064700D01*
X158274500Y-67048000D01*
X159381000Y-67048000D01*
X159381000Y-67064700D01*
G37*
G36*
X159381000Y-67081500D02*
G01*
X158274500Y-67081500D01*
X158274500Y-67064700D01*
X159381000Y-67064700D01*
X159381000Y-67081500D01*
G37*
G36*
X159381000Y-67098200D02*
G01*
X158274500Y-67098200D01*
X158274500Y-67081500D01*
X159381000Y-67081500D01*
X159381000Y-67098200D01*
G37*
G36*
X159381000Y-67115000D02*
G01*
X158274500Y-67115000D01*
X158274500Y-67098200D01*
X159381000Y-67098200D01*
X159381000Y-67115000D01*
G37*
G36*
X159381000Y-67131800D02*
G01*
X158274500Y-67131800D01*
X158274500Y-67115000D01*
X159381000Y-67115000D01*
X159381000Y-67131800D01*
G37*
G36*
X159381000Y-67148500D02*
G01*
X158274500Y-67148500D01*
X158274500Y-67131800D01*
X159381000Y-67131800D01*
X159381000Y-67148500D01*
G37*
G36*
X159381000Y-67165300D02*
G01*
X158274500Y-67165300D01*
X158274500Y-67148500D01*
X159381000Y-67148500D01*
X159381000Y-67165300D01*
G37*
G36*
X158911600Y-67182100D02*
G01*
X158274500Y-67182100D01*
X158274500Y-67165300D01*
X158911600Y-67165300D01*
X158911600Y-67182100D01*
G37*
G36*
X158911600Y-67198800D02*
G01*
X158274500Y-67198800D01*
X158274500Y-67182100D01*
X158911600Y-67182100D01*
X158911600Y-67198800D01*
G37*
G36*
X158911600Y-67215600D02*
G01*
X158274500Y-67215600D01*
X158274500Y-67198800D01*
X158911600Y-67198800D01*
X158911600Y-67215600D01*
G37*
G36*
X158911600Y-67232400D02*
G01*
X158274500Y-67232400D01*
X158274500Y-67215600D01*
X158911600Y-67215600D01*
X158911600Y-67232400D01*
G37*
G36*
X158911600Y-67249100D02*
G01*
X158274500Y-67249100D01*
X158274500Y-67232400D01*
X158911600Y-67232400D01*
X158911600Y-67249100D01*
G37*
G36*
X158911600Y-67265900D02*
G01*
X158274500Y-67265900D01*
X158274500Y-67249100D01*
X158911600Y-67249100D01*
X158911600Y-67265900D01*
G37*
G36*
X158911600Y-67282600D02*
G01*
X158274500Y-67282600D01*
X158274500Y-67265900D01*
X158911600Y-67265900D01*
X158911600Y-67282600D01*
G37*
G36*
X158911600Y-67299400D02*
G01*
X158274500Y-67299400D01*
X158274500Y-67282600D01*
X158911600Y-67282600D01*
X158911600Y-67299400D01*
G37*
G36*
X158911600Y-67316200D02*
G01*
X158274500Y-67316200D01*
X158274500Y-67299400D01*
X158911600Y-67299400D01*
X158911600Y-67316200D01*
G37*
G36*
X158911600Y-67332900D02*
G01*
X158274500Y-67332900D01*
X158274500Y-67316200D01*
X158911600Y-67316200D01*
X158911600Y-67332900D01*
G37*
G36*
X158911600Y-67349700D02*
G01*
X158274500Y-67349700D01*
X158274500Y-67332900D01*
X158911600Y-67332900D01*
X158911600Y-67349700D01*
G37*
G36*
X158911600Y-67366500D02*
G01*
X158274500Y-67366500D01*
X158274500Y-67349700D01*
X158911600Y-67349700D01*
X158911600Y-67366500D01*
G37*
G36*
X158911600Y-67383200D02*
G01*
X158274500Y-67383200D01*
X158274500Y-67366500D01*
X158911600Y-67366500D01*
X158911600Y-67383200D01*
G37*
G36*
X158911600Y-67400000D02*
G01*
X158274500Y-67400000D01*
X158274500Y-67383200D01*
X158911600Y-67383200D01*
X158911600Y-67400000D01*
G37*
G36*
X158911600Y-67416800D02*
G01*
X158274500Y-67416800D01*
X158274500Y-67400000D01*
X158911600Y-67400000D01*
X158911600Y-67416800D01*
G37*
G36*
X158911600Y-67433500D02*
G01*
X158274500Y-67433500D01*
X158274500Y-67416800D01*
X158911600Y-67416800D01*
X158911600Y-67433500D01*
G37*
G36*
X158911600Y-67450300D02*
G01*
X158274500Y-67450300D01*
X158274500Y-67433500D01*
X158911600Y-67433500D01*
X158911600Y-67450300D01*
G37*
G36*
X158911600Y-67467100D02*
G01*
X158274500Y-67467100D01*
X158274500Y-67450300D01*
X158911600Y-67450300D01*
X158911600Y-67467100D01*
G37*
G36*
X158911600Y-67483800D02*
G01*
X158274500Y-67483800D01*
X158274500Y-67467100D01*
X158911600Y-67467100D01*
X158911600Y-67483800D01*
G37*
G36*
X159381000Y-65187100D02*
G01*
X158291300Y-65187100D01*
X158291300Y-65170400D01*
X159381000Y-65170400D01*
X159381000Y-65187100D01*
G37*
G36*
X159381000Y-65203900D02*
G01*
X158291300Y-65203900D01*
X158291300Y-65187100D01*
X159381000Y-65187100D01*
X159381000Y-65203900D01*
G37*
G36*
X159381000Y-65220700D02*
G01*
X158291300Y-65220700D01*
X158291300Y-65203900D01*
X159381000Y-65203900D01*
X159381000Y-65220700D01*
G37*
G36*
X159381000Y-65237400D02*
G01*
X158291300Y-65237400D01*
X158291300Y-65220700D01*
X159381000Y-65220700D01*
X159381000Y-65237400D01*
G37*
G36*
X159381000Y-65254200D02*
G01*
X158291300Y-65254200D01*
X158291300Y-65237400D01*
X159381000Y-65237400D01*
X159381000Y-65254200D01*
G37*
G36*
X159381000Y-65120100D02*
G01*
X158308100Y-65120100D01*
X158308100Y-65103300D01*
X159381000Y-65103300D01*
X159381000Y-65120100D01*
G37*
G36*
X159381000Y-65136900D02*
G01*
X158308100Y-65136900D01*
X158308100Y-65120100D01*
X159381000Y-65120100D01*
X159381000Y-65136900D01*
G37*
G36*
X159381000Y-65153600D02*
G01*
X158308100Y-65153600D01*
X158308100Y-65136900D01*
X159381000Y-65136900D01*
X159381000Y-65153600D01*
G37*
G36*
X159381000Y-65170400D02*
G01*
X158308100Y-65170400D01*
X158308100Y-65153600D01*
X159381000Y-65153600D01*
X159381000Y-65170400D01*
G37*
G36*
X159381000Y-65086600D02*
G01*
X158324800Y-65086600D01*
X158324800Y-65069800D01*
X159381000Y-65069800D01*
X159381000Y-65086600D01*
G37*
G36*
X159381000Y-65103300D02*
G01*
X158324800Y-65103300D01*
X158324800Y-65086600D01*
X159381000Y-65086600D01*
X159381000Y-65103300D01*
G37*
G36*
X159381000Y-65069800D02*
G01*
X158341600Y-65069800D01*
X158341600Y-65053000D01*
X159381000Y-65053000D01*
X159381000Y-65069800D01*
G37*
G36*
X159381000Y-65036300D02*
G01*
X158358400Y-65036300D01*
X158358400Y-65019500D01*
X159381000Y-65019500D01*
X159381000Y-65036300D01*
G37*
G36*
X159381000Y-65053000D02*
G01*
X158358400Y-65053000D01*
X158358400Y-65036300D01*
X159381000Y-65036300D01*
X159381000Y-65053000D01*
G37*
G36*
X158693600Y-63929800D02*
G01*
X158375100Y-63929800D01*
X158375100Y-63913100D01*
X158693600Y-63913100D01*
X158693600Y-63929800D01*
G37*
G36*
X158710400Y-63946600D02*
G01*
X158375100Y-63946600D01*
X158375100Y-63929800D01*
X158710400Y-63929800D01*
X158710400Y-63946600D01*
G37*
G36*
X158710400Y-63963400D02*
G01*
X158375100Y-63963400D01*
X158375100Y-63946600D01*
X158710400Y-63946600D01*
X158710400Y-63963400D01*
G37*
G36*
X158710400Y-63980100D02*
G01*
X158375100Y-63980100D01*
X158375100Y-63963400D01*
X158710400Y-63963400D01*
X158710400Y-63980100D01*
G37*
G36*
X158710400Y-63996900D02*
G01*
X158375100Y-63996900D01*
X158375100Y-63980100D01*
X158710400Y-63980100D01*
X158710400Y-63996900D01*
G37*
G36*
X158710400Y-64013700D02*
G01*
X158375100Y-64013700D01*
X158375100Y-63996900D01*
X158710400Y-63996900D01*
X158710400Y-64013700D01*
G37*
G36*
X159381000Y-65019500D02*
G01*
X158375100Y-65019500D01*
X158375100Y-65002700D01*
X159381000Y-65002700D01*
X159381000Y-65019500D01*
G37*
G36*
X158693600Y-63913100D02*
G01*
X158391900Y-63913100D01*
X158391900Y-63896300D01*
X158693600Y-63896300D01*
X158693600Y-63913100D01*
G37*
G36*
X159381000Y-64248400D02*
G01*
X158391900Y-64248400D01*
X158391900Y-64231600D01*
X159381000Y-64231600D01*
X159381000Y-64248400D01*
G37*
G36*
X159381000Y-64265100D02*
G01*
X158391900Y-64265100D01*
X158391900Y-64248400D01*
X159381000Y-64248400D01*
X159381000Y-64265100D01*
G37*
G36*
X159381000Y-64281900D02*
G01*
X158391900Y-64281900D01*
X158391900Y-64265100D01*
X159381000Y-64265100D01*
X159381000Y-64281900D01*
G37*
G36*
X159381000Y-64298700D02*
G01*
X158391900Y-64298700D01*
X158391900Y-64281900D01*
X159381000Y-64281900D01*
X159381000Y-64298700D01*
G37*
G36*
X158693600Y-64315400D02*
G01*
X158391900Y-64315400D01*
X158391900Y-64298700D01*
X158693600Y-64298700D01*
X158693600Y-64315400D01*
G37*
G36*
X158693600Y-64332200D02*
G01*
X158391900Y-64332200D01*
X158391900Y-64315400D01*
X158693600Y-64315400D01*
X158693600Y-64332200D01*
G37*
G36*
X158693600Y-64348900D02*
G01*
X158391900Y-64348900D01*
X158391900Y-64332200D01*
X158693600Y-64332200D01*
X158693600Y-64348900D01*
G37*
G36*
X158693600Y-64365700D02*
G01*
X158391900Y-64365700D01*
X158391900Y-64348900D01*
X158693600Y-64348900D01*
X158693600Y-64365700D01*
G37*
G36*
X158693600Y-64382500D02*
G01*
X158391900Y-64382500D01*
X158391900Y-64365700D01*
X158693600Y-64365700D01*
X158693600Y-64382500D01*
G37*
G36*
X158693600Y-64399200D02*
G01*
X158391900Y-64399200D01*
X158391900Y-64382500D01*
X158693600Y-64382500D01*
X158693600Y-64399200D01*
G37*
G36*
X159381000Y-64231600D02*
G01*
X158408700Y-64231600D01*
X158408700Y-64214800D01*
X159381000Y-64214800D01*
X159381000Y-64231600D01*
G37*
G36*
X159381000Y-64986000D02*
G01*
X158408700Y-64986000D01*
X158408700Y-64969200D01*
X159381000Y-64969200D01*
X159381000Y-64986000D01*
G37*
G36*
X159381000Y-65002700D02*
G01*
X158408700Y-65002700D01*
X158408700Y-64986000D01*
X159381000Y-64986000D01*
X159381000Y-65002700D01*
G37*
G36*
X159313900Y-64969200D02*
G01*
X158442200Y-64969200D01*
X158442200Y-64952500D01*
X159313900Y-64952500D01*
X159313900Y-64969200D01*
G37*
G36*
X159381000Y-64214800D02*
G01*
X158459000Y-64214800D01*
X158459000Y-64198100D01*
X159381000Y-64198100D01*
X159381000Y-64214800D01*
G37*
G36*
X159246900Y-64952500D02*
G01*
X158475700Y-64952500D01*
X158475700Y-64935700D01*
X159246900Y-64935700D01*
X159246900Y-64952500D01*
G37*
G36*
X159213300Y-64935700D02*
G01*
X158509200Y-64935700D01*
X158509200Y-64918900D01*
X159213300Y-64918900D01*
X159213300Y-64935700D01*
G37*
G36*
X159096000Y-64918900D02*
G01*
X158559500Y-64918900D01*
X158559500Y-64902200D01*
X159096000Y-64902200D01*
X159096000Y-64918900D01*
G37*
G36*
X159381000Y-64198100D02*
G01*
X158576300Y-64198100D01*
X158576300Y-64181300D01*
X159381000Y-64181300D01*
X159381000Y-64198100D01*
G37*
G36*
X159381000Y-64499800D02*
G01*
X158693600Y-64499800D01*
X158693600Y-64483100D01*
X159381000Y-64483100D01*
X159381000Y-64499800D01*
G37*
G36*
X158894800Y-64902200D02*
G01*
X158693600Y-64902200D01*
X158693600Y-64885400D01*
X158894800Y-64885400D01*
X158894800Y-64902200D01*
G37*
G36*
X159381000Y-64181300D02*
G01*
X158727200Y-64181300D01*
X158727200Y-64164500D01*
X159381000Y-64164500D01*
X159381000Y-64181300D01*
G37*
G36*
X159381000Y-64483100D02*
G01*
X158727200Y-64483100D01*
X158727200Y-64466300D01*
X159381000Y-64466300D01*
X159381000Y-64483100D01*
G37*
G36*
X159381000Y-64164500D02*
G01*
X158760700Y-64164500D01*
X158760700Y-64147800D01*
X159381000Y-64147800D01*
X159381000Y-64164500D01*
G37*
G36*
X159381000Y-64449500D02*
G01*
X158760700Y-64449500D01*
X158760700Y-64432800D01*
X159381000Y-64432800D01*
X159381000Y-64449500D01*
G37*
G36*
X159381000Y-64466300D02*
G01*
X158760700Y-64466300D01*
X158760700Y-64449500D01*
X159381000Y-64449500D01*
X159381000Y-64466300D01*
G37*
G36*
X159381000Y-64147800D02*
G01*
X158777500Y-64147800D01*
X158777500Y-64131000D01*
X159381000Y-64131000D01*
X159381000Y-64147800D01*
G37*
G36*
X159381000Y-64416000D02*
G01*
X158777500Y-64416000D01*
X158777500Y-64399200D01*
X159381000Y-64399200D01*
X159381000Y-64416000D01*
G37*
G36*
X159381000Y-64432800D02*
G01*
X158777500Y-64432800D01*
X158777500Y-64416000D01*
X159381000Y-64416000D01*
X159381000Y-64432800D01*
G37*
G36*
X159381000Y-63913100D02*
G01*
X158794200Y-63913100D01*
X158794200Y-63896300D01*
X159381000Y-63896300D01*
X159381000Y-63913100D01*
G37*
G36*
X159381000Y-63929800D02*
G01*
X158794200Y-63929800D01*
X158794200Y-63913100D01*
X159381000Y-63913100D01*
X159381000Y-63929800D01*
G37*
G36*
X159381000Y-63946600D02*
G01*
X158794200Y-63946600D01*
X158794200Y-63929800D01*
X159381000Y-63929800D01*
X159381000Y-63946600D01*
G37*
G36*
X159381000Y-63963400D02*
G01*
X158794200Y-63963400D01*
X158794200Y-63946600D01*
X159381000Y-63946600D01*
X159381000Y-63963400D01*
G37*
G36*
X159381000Y-63980100D02*
G01*
X158794200Y-63980100D01*
X158794200Y-63963400D01*
X159381000Y-63963400D01*
X159381000Y-63980100D01*
G37*
G36*
X159381000Y-64047200D02*
G01*
X158794200Y-64047200D01*
X158794200Y-64030400D01*
X159381000Y-64030400D01*
X159381000Y-64047200D01*
G37*
G36*
X159381000Y-64064000D02*
G01*
X158794200Y-64064000D01*
X158794200Y-64047200D01*
X159381000Y-64047200D01*
X159381000Y-64064000D01*
G37*
G36*
X159381000Y-64080700D02*
G01*
X158794200Y-64080700D01*
X158794200Y-64064000D01*
X159381000Y-64064000D01*
X159381000Y-64080700D01*
G37*
G36*
X159381000Y-64097500D02*
G01*
X158794200Y-64097500D01*
X158794200Y-64080700D01*
X159381000Y-64080700D01*
X159381000Y-64097500D01*
G37*
G36*
X159381000Y-64114300D02*
G01*
X158794200Y-64114300D01*
X158794200Y-64097500D01*
X159381000Y-64097500D01*
X159381000Y-64114300D01*
G37*
G36*
X159381000Y-64131000D02*
G01*
X158794200Y-64131000D01*
X158794200Y-64114300D01*
X159381000Y-64114300D01*
X159381000Y-64131000D01*
G37*
G36*
X159381000Y-64315400D02*
G01*
X158794200Y-64315400D01*
X158794200Y-64298700D01*
X159381000Y-64298700D01*
X159381000Y-64315400D01*
G37*
G36*
X159381000Y-64332200D02*
G01*
X158794200Y-64332200D01*
X158794200Y-64315400D01*
X159381000Y-64315400D01*
X159381000Y-64332200D01*
G37*
G36*
X159381000Y-64348900D02*
G01*
X158794200Y-64348900D01*
X158794200Y-64332200D01*
X159381000Y-64332200D01*
X159381000Y-64348900D01*
G37*
G36*
X159381000Y-64365700D02*
G01*
X158794200Y-64365700D01*
X158794200Y-64348900D01*
X159381000Y-64348900D01*
X159381000Y-64365700D01*
G37*
G36*
X159381000Y-64382500D02*
G01*
X158794200Y-64382500D01*
X158794200Y-64365700D01*
X159381000Y-64365700D01*
X159381000Y-64382500D01*
G37*
G36*
X159381000Y-64399200D02*
G01*
X158794200Y-64399200D01*
X158794200Y-64382500D01*
X159381000Y-64382500D01*
X159381000Y-64399200D01*
G37*
G36*
X159381000Y-63996900D02*
G01*
X158811000Y-63996900D01*
X158811000Y-63980100D01*
X159381000Y-63980100D01*
X159381000Y-63996900D01*
G37*
G36*
X159381000Y-64013700D02*
G01*
X158811000Y-64013700D01*
X158811000Y-63996900D01*
X159381000Y-63996900D01*
X159381000Y-64013700D01*
G37*
G36*
X159381000Y-64030400D02*
G01*
X158811000Y-64030400D01*
X158811000Y-64013700D01*
X159381000Y-64013700D01*
X159381000Y-64030400D01*
G37*
D11*
%TO.C,J2*%
X180400000Y-82960000D02*
X180400000Y-80300000D01*
X193160000Y-82960000D02*
X180400000Y-82960000D01*
X193160000Y-82960000D02*
X193160000Y-80300000D01*
X195760000Y-81630000D02*
X195760000Y-80300000D01*
X193160000Y-80300000D02*
X180400000Y-80300000D01*
X195760000Y-80300000D02*
X194430000Y-80300000D01*
%TD*%
D12*
X181203146Y-76183145D02*
G75*
G03*
X181203146Y-76183145I-1273146J0D01*
G01*
X197253146Y-76173145D02*
G75*
G03*
X197253146Y-76173145I-1273146J0D01*
G01*
X121264362Y-84734361D02*
G75*
G03*
X121264362Y-84734361I-1664362J0D01*
G01*
X170576291Y-71780000D02*
G75*
G03*
X170576291Y-71780000I-1273146J0D01*
G01*
X160133146Y-71853145D02*
G75*
G03*
X160133146Y-71853145I-1273146J0D01*
G01*
D13*
X220304937Y-59760063D02*
X220304937Y-59760063D01*
G75*
G02*
X223479937Y-62935063I-37J-3175037D01*
G01*
X223410000Y-128140000D01*
G75*
G02*
X220235000Y-131315000I-3175000J0D01*
G01*
X70240000Y-131280000D01*
G75*
G02*
X67065000Y-128105000I0J3175000D01*
G01*
X67150064Y-62955064D01*
G75*
G02*
X70325064Y-59780064I3174996J4D01*
G01*
X161070000Y-59795000D01*
X220304937Y-59760063D01*
M02*
