%TF.GenerationSoftware,KiCad,Pcbnew,8.0.1*%
%TF.CreationDate,2024-04-08T11:37:36-05:00*%
%TF.ProjectId,C1,43312e6b-6963-4616-945f-706362585858,rev?*%
%TF.SameCoordinates,Original*%
%TF.FileFunction,Paste,Top*%
%TF.FilePolarity,Positive*%
%FSLAX46Y46*%
G04 Gerber Fmt 4.6, Leading zero omitted, Abs format (unit mm)*
G04 Created by KiCad (PCBNEW 8.0.1) date 2024-04-08 11:37:36*
%MOMM*%
%LPD*%
G01*
G04 APERTURE LIST*
G04 Aperture macros list*
%AMRoundRect*
0 Rectangle with rounded corners*
0 $1 Rounding radius*
0 $2 $3 $4 $5 $6 $7 $8 $9 X,Y pos of 4 corners*
0 Add a 4 corners polygon primitive as box body*
4,1,4,$2,$3,$4,$5,$6,$7,$8,$9,$2,$3,0*
0 Add four circle primitives for the rounded corners*
1,1,$1+$1,$2,$3*
1,1,$1+$1,$4,$5*
1,1,$1+$1,$6,$7*
1,1,$1+$1,$8,$9*
0 Add four rect primitives between the rounded corners*
20,1,$1+$1,$2,$3,$4,$5,0*
20,1,$1+$1,$4,$5,$6,$7,0*
20,1,$1+$1,$6,$7,$8,$9,0*
20,1,$1+$1,$8,$9,$2,$3,0*%
G04 Aperture macros list end*
%ADD10RoundRect,0.250000X0.700000X-1.950000X0.700000X1.950000X-0.700000X1.950000X-0.700000X-1.950000X0*%
%ADD11RoundRect,0.250000X0.450000X-0.262500X0.450000X0.262500X-0.450000X0.262500X-0.450000X-0.262500X0*%
%ADD12RoundRect,0.147500X-0.172500X0.147500X-0.172500X-0.147500X0.172500X-0.147500X0.172500X0.147500X0*%
%ADD13RoundRect,0.200000X-0.200000X-0.275000X0.200000X-0.275000X0.200000X0.275000X-0.200000X0.275000X0*%
%ADD14RoundRect,0.250000X-0.450000X0.262500X-0.450000X-0.262500X0.450000X-0.262500X0.450000X0.262500X0*%
%ADD15RoundRect,0.200000X-0.275000X0.200000X-0.275000X-0.200000X0.275000X-0.200000X0.275000X0.200000X0*%
%ADD16RoundRect,0.200000X0.275000X-0.200000X0.275000X0.200000X-0.275000X0.200000X-0.275000X-0.200000X0*%
%TA.AperFunction,Profile*%
%ADD17C,0.100000*%
%TD*%
%TA.AperFunction,Profile*%
%ADD18C,0.500000*%
%TD*%
G04 APERTURE END LIST*
D10*
%TO.C,C1*%
X143960000Y-125560000D03*
X143960000Y-116860000D03*
%TD*%
D11*
%TO.C,R3*%
X200620000Y-90122500D03*
X200620000Y-88297500D03*
%TD*%
D10*
%TO.C,C3*%
X131840000Y-125580000D03*
X131840000Y-116880000D03*
%TD*%
D12*
%TO.C,D1*%
X159512000Y-123698000D03*
X159512000Y-124668000D03*
%TD*%
%TO.C,D2*%
X98450000Y-125435000D03*
X98450000Y-126405000D03*
%TD*%
D13*
%TO.C,R6*%
X199230000Y-120400000D03*
X200880000Y-120400000D03*
%TD*%
D12*
%TO.C,D3*%
X200740000Y-85905000D03*
X200740000Y-86875000D03*
%TD*%
D14*
%TO.C,R4*%
X90932000Y-124857500D03*
X90932000Y-126682500D03*
%TD*%
D10*
%TO.C,C2*%
X111900000Y-125430000D03*
X111900000Y-116730000D03*
%TD*%
D15*
%TO.C,R5*%
X202350000Y-120335000D03*
X202350000Y-121985000D03*
%TD*%
%TO.C,R2*%
X96650000Y-124655000D03*
X96650000Y-126305000D03*
%TD*%
D16*
%TO.C,R1*%
X159512000Y-127571000D03*
X159512000Y-125921000D03*
%TD*%
D12*
%TO.C,D4*%
X92920000Y-125715000D03*
X92920000Y-126685000D03*
%TD*%
D17*
X121264362Y-84734361D02*
G75*
G02*
X117935638Y-84734361I-1664362J0D01*
G01*
X117935638Y-84734361D02*
G75*
G02*
X121264362Y-84734361I1664362J0D01*
G01*
X197253146Y-76173145D02*
G75*
G02*
X194706854Y-76173145I-1273146J0D01*
G01*
X194706854Y-76173145D02*
G75*
G02*
X197253146Y-76173145I1273146J0D01*
G01*
D18*
X161119995Y-59574831D02*
X220354932Y-59539894D01*
X220533095Y-59542393D01*
X220887181Y-59582293D01*
X221234573Y-59661586D01*
X221570903Y-59779275D01*
X221891942Y-59933881D01*
X222193652Y-60123460D01*
X222472239Y-60345626D01*
X222724200Y-60597587D01*
X222946366Y-60876174D01*
X223135945Y-61177884D01*
X223290551Y-61498923D01*
X223408240Y-61835253D01*
X223487533Y-62182645D01*
X223527433Y-62536731D01*
X223529932Y-62714894D01*
X223459995Y-127919831D01*
X223457498Y-128097995D01*
X223417602Y-128452082D01*
X223338311Y-128799476D01*
X223220624Y-129135808D01*
X223066019Y-129456848D01*
X222876441Y-129758560D01*
X222654274Y-130037148D01*
X222402312Y-130289110D01*
X222123724Y-130511277D01*
X221822012Y-130700855D01*
X221500972Y-130855460D01*
X221164640Y-130973147D01*
X220817246Y-131052438D01*
X220463159Y-131092334D01*
X220284995Y-131094831D01*
X70289995Y-131059831D01*
X70111831Y-131057334D01*
X69757744Y-131017438D01*
X69410350Y-130938147D01*
X69074018Y-130820460D01*
X68752978Y-130665855D01*
X68451266Y-130476277D01*
X68172678Y-130254110D01*
X67920716Y-130002148D01*
X67698549Y-129723560D01*
X67508971Y-129421848D01*
X67354366Y-129100808D01*
X67236679Y-128764476D01*
X67157388Y-128417082D01*
X67117492Y-128062995D01*
X67114995Y-127884831D01*
X67200059Y-62734895D01*
X67202558Y-62556732D01*
X67242458Y-62202646D01*
X67321751Y-61855254D01*
X67439440Y-61518923D01*
X67594046Y-61197885D01*
X67783624Y-60896175D01*
X68005791Y-60617588D01*
X68257752Y-60365627D01*
X68536339Y-60143460D01*
X68838049Y-59953882D01*
X69159087Y-59799276D01*
X69495418Y-59681587D01*
X69842810Y-59602294D01*
X70196896Y-59562394D01*
X70540000Y-59500000D01*
X161119995Y-59574831D01*
D17*
X181203146Y-76183145D02*
G75*
G02*
X178656854Y-76183145I-1273146J0D01*
G01*
X178656854Y-76183145D02*
G75*
G02*
X181203146Y-76183145I1273146J0D01*
G01*
X160133146Y-71853145D02*
G75*
G02*
X157586854Y-71853145I-1273146J0D01*
G01*
X157586854Y-71853145D02*
G75*
G02*
X160133146Y-71853145I1273146J0D01*
G01*
X170576291Y-71780000D02*
G75*
G02*
X168029999Y-71780000I-1273146J0D01*
G01*
X168029999Y-71780000D02*
G75*
G02*
X170576291Y-71780000I1273146J0D01*
G01*
M02*
