M48
; DRILL file {KiCad 8.0.1} date 2024-04-11T14:09:41-0500
; FORMAT={2:4/ absolute / inch / keep zeros}
; #@! TF.CreationDate,2024-04-11T14:09:41-05:00
; #@! TF.GenerationSoftware,Kicad,Pcbnew,8.0.1
; #@! TF.FileFunction,Plated,1,2,PTH
FMAT,2
INCH
; #@! TA.AperFunction,Plated,PTH,ViaDrill
T1C0.0157
; #@! TA.AperFunction,Plated,PTH,ViaDrill
T2C0.0197
; #@! TA.AperFunction,Plated,PTH,ComponentDrill
T3C0.0300
; #@! TA.AperFunction,Plated,PTH,ComponentDrill
T4C0.0320
; #@! TA.AperFunction,Plated,PTH,ComponentDrill
T5C0.0354
; #@! TA.AperFunction,Plated,PTH,ComponentDrill
T6C0.0374
; #@! TA.AperFunction,Plated,PTH,ComponentDrill
T7C0.0394
; #@! TA.AperFunction,Plated,PTH,ComponentDrill
T8C0.0400
; #@! TA.AperFunction,Plated,PTH,ComponentDrill
T9C0.0402
; #@! TA.AperFunction,Plated,PTH,ComponentDrill
T10C0.0984
; #@! TA.AperFunction,Plated,PTH,ComponentDrill
T11C0.1181
; #@! TA.AperFunction,Plated,PTH,ComponentDrill
T12C0.1791
%
G90
G05
T1
X060350Y-042354
X079024Y-033512
T2
X028956Y-043487
X029654Y-043516
X029806Y-035251
X031307Y-046484
X031801Y-046019
X032213Y-044504
X032217Y-036200
X036535Y-049113
X037019Y-035786
X037728Y-035637
X037736Y-039282
X038335Y-026406
X038673Y-048889
X038835Y-026929
X043374Y-046606
X043398Y-045992
X043398Y-047264
X044197Y-047260
X044921Y-047260
X044945Y-046587
X044976Y-045984
X050685Y-048650
X050724Y-049945
X051303Y-045650
X051327Y-047126
X051331Y-046366
X052980Y-045638
X052992Y-047024
X053130Y-048642
X053169Y-049992
X054008Y-045654
X054209Y-047024
X054906Y-048657
X055007Y-034034
X055020Y-049992
X055311Y-045591
X055413Y-046988
X057465Y-045610
X057472Y-046362
X057480Y-047047
X060701Y-045929
X063067Y-048409
X064132Y-027688
X064228Y-032408
X065121Y-027908
X066075Y-032283
X070578Y-040893
X071303Y-044621
X071539Y-036484
X071656Y-030987
X071795Y-045275
X073156Y-030987
X073693Y-044972
X074156Y-030987
X075594Y-046705
X075850Y-039433
X076075Y-047657
X076098Y-049571
X076822Y-028219
X077059Y-050807
X077555Y-027704
X077787Y-049449
X078094Y-047385
X078904Y-028208
X078913Y-035977
X079608Y-037969
X081350Y-038673
X082318Y-040275
X083156Y-027187
X083281Y-035646
X085575Y-038457
X086165Y-039626
X086177Y-031390
X086780Y-041035
X086803Y-030417
T3
X062044Y-030389
X062044Y-031389
X062044Y-032389
X062044Y-033389
X062044Y-034389
X062144Y-025168
X063144Y-025168
X064144Y-025168
X065144Y-025168
X066144Y-025168
X067144Y-025168
X070550Y-034994
X071550Y-034994
X072550Y-034994
X073550Y-034994
X074550Y-034994
X075550Y-034994
X076550Y-034994
X077550Y-034994
T4
X053850Y-043562
X055255Y-043581
T5
X061539Y-047921
X061539Y-048906
X061539Y-049890
T6
X027634Y-045213
X027634Y-046197
X027634Y-047181
X027791Y-027524
X027791Y-028508
X027791Y-029492
X027791Y-030476
X027791Y-037732
X027791Y-038717
X027791Y-039701
X027791Y-040685
X027791Y-041669
X027791Y-042654
X027850Y-033268
X027850Y-034252
X027850Y-035236
X029582Y-027524
X029582Y-028508
X029582Y-029492
X029582Y-030476
X031382Y-027437
X031382Y-028421
X031382Y-029406
X031382Y-030390
X031476Y-037744
X031476Y-038728
X031476Y-039713
X031476Y-040697
X031476Y-041681
X031476Y-042665
X033300Y-027445
X033300Y-028429
X033300Y-029413
X033300Y-030398
X080524Y-029811
X080524Y-030795
X080524Y-031780
X080524Y-032764
X080524Y-033748
X080524Y-034732
X082480Y-029811
X082480Y-030795
X082480Y-031780
X082480Y-032764
X082480Y-033748
X082480Y-034732
X084512Y-029811
X084512Y-030795
X084512Y-031780
X084512Y-032764
X084512Y-033748
X084512Y-034732
T7
X030882Y-048173
X033874Y-048173
X037831Y-027921
X037831Y-028921
X037831Y-029921
X037831Y-030921
X046248Y-043764
X046804Y-049125
X047626Y-043764
X047804Y-049125
X048804Y-049125
X052176Y-032516
X053176Y-025516
X053176Y-032516
X054176Y-025516
X054176Y-032516
X055176Y-025516
X055176Y-032516
X056176Y-025516
X056176Y-032516
X057176Y-032516
X070827Y-048508
X070827Y-049492
X071547Y-032138
X072547Y-032138
X073547Y-032138
X074346Y-048512
X074346Y-049496
X074547Y-032138
X075547Y-032138
X076547Y-032138
X080591Y-024673
X080591Y-025673
X080591Y-026673
X080591Y-027673
X081591Y-024673
X081591Y-025673
X081591Y-026673
X081591Y-027673
T8
X035450Y-037762
X035450Y-038762
X035450Y-039762
X035450Y-040762
X035450Y-041762
X035450Y-042762
X058450Y-037762
X058450Y-038762
X058450Y-039762
X058450Y-040762
X058450Y-041762
X058450Y-042762
T9
X063075Y-036953
X063075Y-045953
X064075Y-036953
X064075Y-045953
X065075Y-036953
X065075Y-045953
X066075Y-036953
X066075Y-045953
X067075Y-036953
X067075Y-045953
X068075Y-036953
X068075Y-045953
X069075Y-036953
X069075Y-045953
X070075Y-036953
X070075Y-045953
X071075Y-036953
X071075Y-045953
X072075Y-036953
X072075Y-045953
X073075Y-036953
X073075Y-045953
X074075Y-036953
X074075Y-045953
X075075Y-036953
X075075Y-045953
X076075Y-036953
X076075Y-045953
X077075Y-036953
X077075Y-045953
X078075Y-036953
X078075Y-045953
X079075Y-036953
X079075Y-045953
X080075Y-036953
X080075Y-045953
X081075Y-036953
X081075Y-045953
X082075Y-036953
X082075Y-045953
X083075Y-036953
X083075Y-045953
X084075Y-036953
X084075Y-045953
T10
X035950Y-036462
X035950Y-043962
X050426Y-026016
X050426Y-032016
X057950Y-036462
X057950Y-043962
X058926Y-026016
X058926Y-032016
T11
X028157Y-025067
X028169Y-050106
X086197Y-025138
X086244Y-050067
T12
X064882Y-049142
X067717Y-049142
M30
