M48
; DRILL file {KiCad (7.0.0)} date Fri Nov 24 18:14:18 2023
; FORMAT={2:4/ absolute / inch / keep zeros}
; #@! TF.CreationDate,2023-11-24T18:14:18-05:00
; #@! TF.GenerationSoftware,Kicad,Pcbnew,(7.0.0)
; #@! TF.FileFunction,Plated,1,2,PTH
FMAT,2
INCH
; #@! TA.AperFunction,Plated,PTH,ViaDrill
T1C0.0157
; #@! TA.AperFunction,Plated,PTH,ComponentDrill
T2C0.0300
; #@! TA.AperFunction,Plated,PTH,ComponentDrill
T3C0.0315
; #@! TA.AperFunction,Plated,PTH,ComponentDrill
T4C0.0320
; #@! TA.AperFunction,Plated,PTH,ComponentDrill
T5C0.0354
; #@! TA.AperFunction,Plated,PTH,ComponentDrill
T6C0.0374
; #@! TA.AperFunction,Plated,PTH,ComponentDrill
T7C0.0394
; #@! TA.AperFunction,Plated,PTH,ComponentDrill
T8C0.0400
; #@! TA.AperFunction,Plated,PTH,ComponentDrill
T9C0.0402
; #@! TA.AperFunction,Plated,PTH,ComponentDrill
T10C0.0984
; #@! TA.AperFunction,Plated,PTH,ComponentDrill
T11C0.1181
; #@! TA.AperFunction,Plated,PTH,ComponentDrill
T12C0.1791
%
G90
G05
T1
X031256Y-025461
X031260Y-031264
X033134Y-047276
X033646Y-046280
X033799Y-046677
X036661Y-048331
X039110Y-048406
X052728Y-029020
X055217Y-024193
X055339Y-047638
X057193Y-046016
X057240Y-046599
X059449Y-047193
X059563Y-027681
X061854Y-047523
X063906Y-033906
X066138Y-027681
X072079Y-040126
X073776Y-047740
X074768Y-048224
X077256Y-039445
X077453Y-028791
X078469Y-024441
X080177Y-047244
X085189Y-030091
X085197Y-033339
T2
X058226Y-028913
X058253Y-030402
X058253Y-031402
X058253Y-032402
X058253Y-033402
X058253Y-034402
X059226Y-028913
X060226Y-028913
X061226Y-028913
X062226Y-028913
X063226Y-028913
X070057Y-025192
X070057Y-026192
X070057Y-027192
X070057Y-028192
X070057Y-029192
X070057Y-030192
X070057Y-031192
X070057Y-032192
T3
X042346Y-048274
X042346Y-049652
X046697Y-048273
X046697Y-049651
X057079Y-048299
X057079Y-049677
T4
X052487Y-043812
X053891Y-043831
T5
X061941Y-048425
X061941Y-049409
X061941Y-050394
T6
X028043Y-027762
X028043Y-028746
X028043Y-029730
X028043Y-030715
X028280Y-037242
X028280Y-038226
X028280Y-039211
X028280Y-040195
X028280Y-041179
X028280Y-042163
T7
X028224Y-044732
X028224Y-045732
X028224Y-046732
X028228Y-032996
X028228Y-033996
X028228Y-034996
X030673Y-048469
X033665Y-048469
X034642Y-028037
X034642Y-029037
X034642Y-030037
X034642Y-031037
X044884Y-044014
X046262Y-044014
X048853Y-032124
X049853Y-025124
X049853Y-032124
X050567Y-050073
X050853Y-025124
X050853Y-032124
X051567Y-050073
X051853Y-025124
X051853Y-032124
X052567Y-050073
X052853Y-025124
X052853Y-032124
X053853Y-032124
X070530Y-050173
X070531Y-048754
X071530Y-050173
X071531Y-048754
X072476Y-031010
X073476Y-031010
X074476Y-031010
X075476Y-031010
X076476Y-031010
X077476Y-031010
X080496Y-029205
X080496Y-030205
X080496Y-031205
X080496Y-032205
X081496Y-029205
X081496Y-030205
X081496Y-031205
X081496Y-032205
X082673Y-040535
X082673Y-041535
X082673Y-042535
X082673Y-044543
X082673Y-045543
X082673Y-046543
X084563Y-040638
X084563Y-041638
X084563Y-042638
X084563Y-043638
X084563Y-044638
X084563Y-045638
X084563Y-046638
X085575Y-040638
X085575Y-041638
X085575Y-042638
X085575Y-043638
X085575Y-044638
X085575Y-045638
X085575Y-046638
X086622Y-040638
X086622Y-041638
X086622Y-042638
X086622Y-043638
X086622Y-044638
X086622Y-045638
X086622Y-046638
T8
X034087Y-038012
X034087Y-039012
X034087Y-040012
X034087Y-041012
X034087Y-042012
X034087Y-043012
X057087Y-038012
X057087Y-039012
X057087Y-040012
X057087Y-041012
X057087Y-042012
X057087Y-043012
T9
X061126Y-036197
X061126Y-046197
X062126Y-036197
X062126Y-046197
X063126Y-036197
X063126Y-046197
X064126Y-036197
X064126Y-046197
X065126Y-036197
X065126Y-046197
X066126Y-036197
X066126Y-046197
X067126Y-036197
X067126Y-046197
X068126Y-036197
X068126Y-046197
X069126Y-036197
X069126Y-046197
X070126Y-036197
X070126Y-046197
X071126Y-036197
X071126Y-046197
X072126Y-036197
X072126Y-046197
X073126Y-036197
X073126Y-046197
X074126Y-036197
X074126Y-046197
X075126Y-036197
X075126Y-046197
T10
X034587Y-036712
X034587Y-044212
X047103Y-025624
X047103Y-031624
X055603Y-025624
X055603Y-031624
X056587Y-036712
X056587Y-044212
T11
X028012Y-025012
X028051Y-050051
X086217Y-025059
X086217Y-050126
T12
X064882Y-049142
X067717Y-049142
T0
M30
