<?xml version="1.0" encoding="utf-8"?>
<!-- Generator: Adobe Illustrator 24.0.2, SVG Export Plug-In . SVG Version: 6.00 Build 0)  -->
<svg version="1.1" id="Layer_1" xmlns="http://www.w3.org/2000/svg" xmlns:xlink="http://www.w3.org/1999/xlink" x="0px" y="0px"
	 viewBox="0 0 400 400" style="enable-background:new 0 0 400 400;" xml:space="preserve">
<style type="text/css">
	.st0{fill-rule:evenodd;clip-rule:evenodd;fill:#060303;}
	.st1{fill-rule:evenodd;clip-rule:evenodd;fill:#FFFFFF;stroke:#008000;stroke-width:2.6666;stroke-miterlimit:5.3332;}
	.st2{fill-rule:evenodd;clip-rule:evenodd;fill:#FFFFFF;stroke:#000000;}
	.st3{fill-rule:evenodd;clip-rule:evenodd;fill:#FFFFFF;stroke:#FFFFFF;stroke-width:6;}
	.st4{fill:none;stroke:#008000;stroke-width:15.38;stroke-linejoin:round;}
	.st5{fill:none;stroke:#FFFFFF;stroke-width:6.8638;stroke-linejoin:round;}
	.st6{fill:none;stroke:#F0BD3D;stroke-width:15.38;stroke-linejoin:round;}
	.st7{fill:none;stroke:#FFFFFF;stroke-width:2.7666;stroke-miterlimit:5.3332;}
	.st8{fill:none;stroke:#FFFFFF;stroke-width:1.3833;stroke-miterlimit:5.3332;}
	.st9{fill:#FFFFFF;stroke:#FFFFFF;stroke-width:1.0375;}
	.st10{fill:#FFFFFF;stroke:#FFFFFF;stroke-width:0.75;}
	.st11{fill:none;stroke:#000000;stroke-width:1.3833;stroke-miterlimit:5.3332;}
	.st12{fill:none;stroke:#FFFFFF;}
	.st13{fill-rule:evenodd;clip-rule:evenodd;fill:#FFFFFF;stroke:#FFFFFF;stroke-width:2.7666;stroke-miterlimit:5.3332;}
	.st14{fill:none;stroke:#FFFFFF;stroke-width:2.7337;stroke-miterlimit:5.3332;}
	.st15{fill:none;stroke:#FFFFFF;stroke-width:1.9999;stroke-miterlimit:5.3332;}
	.st16{fill:none;stroke:#FFFFFF;stroke-width:2.7157;stroke-miterlimit:5.3332;}
	.st17{fill:none;stroke:#FFFFFF;stroke-width:3.2985;stroke-miterlimit:5.3332;}
	.st18{fill:none;stroke:#FFFFFF;stroke-width:2.6861;stroke-miterlimit:5.3332;}
	.st19{fill:none;stroke:#000000;stroke-width:2.6666;stroke-miterlimit:5.3332;}
	.st20{fill:none;stroke:#FFFFFF;stroke-width:1.3333;stroke-miterlimit:5.3332;}
	.st21{fill-rule:evenodd;clip-rule:evenodd;fill:#FFFFFF;stroke:#999999;stroke-width:5.3332;stroke-miterlimit:5.3332;}
	.st22{fill:none;stroke:#F20707;stroke-width:4.1499;stroke-miterlimit:5.3332;}
	.st23{fill:none;stroke:#B3B3B3;stroke-width:3.9999;stroke-miterlimit:5.3332;}
	.st24{fill:none;stroke:#008000;stroke-width:21.9995;stroke-miterlimit:5.3332;}
	.st25{fill:none;stroke:#FFFFFF;stroke-width:2.6666;stroke-miterlimit:5.3332;}
	.st26{fill:none;stroke:#FFFFFF;stroke-width:7.9998;stroke-miterlimit:5.3332;}
	.st27{fill:none;stroke:#000000;stroke-width:1.9999;stroke-miterlimit:5.3332;}
	.st28{fill:#FFFFFF;}
	.st29{fill-rule:evenodd;clip-rule:evenodd;fill:#4D4D4D;stroke:#FFFFFF;stroke-width:0.6666;stroke-miterlimit:3.0352;}
</style>
<g transform="matrix(1.3333 0 0 1.3333 -241.9 -98.388)">
	<path class="st0" d="M479.7,223.8c0,81.8-66.4,148.2-148.2,148.2s-148.2-66.4-148.2-148.2S249.6,75.6,331.4,75.6
		S479.7,142,479.7,223.8L479.7,223.8z"/>
	<path class="st1" d="M375.3,357.5l-5.7-16.5c-29.3,8.6-72.6,15.9-130.4-38l-11.6,9.2C285.6,376.7,340.4,363.7,375.3,357.5
		L375.3,357.5z"/>
	<g transform="matrix(.85056 0 0 .85056 141.79 -230.55)">
		<g transform="matrix(.38106 0 0 .37072 107.94 297.3)">
			<path class="st2" d="M391.8,317.4c-79.2-22.7-134.2-15.1-183.4,0L184.3,239c86.4-26.8,163.3-21.7,235.2,0L391.8,317.4
				L391.8,317.4z"/>
			<path class="st3" d="M211.1,316.7l7.9,28.1"/>
			<path class="st3" d="M300.4,303.5l-0.5,36"/>
			<path class="st3" d="M389.3,316.7l-7.9,28.1"/>
			<path class="st3" d="M243,309.3l5.8,28.6"/>
			<path class="st3" d="M272.9,305l3,29"/>
			<path class="st3" d="M357.4,309.7l-5.8,28.6"/>
			<path class="st3" d="M327.5,305.1l-3,29"/>
		</g>
	</g>
	<path class="st4" d="M373.1,347.9c67.9-23,104.3-96.7,81.4-164.6c-3.5-10.5-7.6-19-13.6-28.3"/>
	<path class="st5" d="M371.5,343.1c65.5-22.2,100.6-93.3,78.5-158.8c-7.1-21-17.8-37.4-34.2-52.3"/>
	<path class="st6" d="M227,298.4c-35.5-50.6-31.1-116.9,10.7-162.5"/>
	<path class="st7" d="M373.9,117.3l7.7-19.8"/>
	<path class="st8" d="M397.1,105.2l-7.7,13.8"/>
	<path class="st7" d="M399.2,131l11.7-17.8"/>
	<path class="st7" d="M423.6,154.5L440,141"/>
	<path class="st9" d="M371.9,129v-5.1l-3.1,5.1H371.9z M375.6,130.7h-2.1v4.1h-1.6v-4.1H367V129l4.9-8h1.6v8h2.1V130.7z M387,127.9
		c0,2.1-0.4,3.8-1.1,5.1c-0.9,1.5-2.1,2.3-3.8,2.3c-1.6,0-2.9-0.8-3.8-2.3c-0.8-1.3-1.1-3-1.1-5.1c0-2.1,0.4-3.8,1.1-5.1
		c0.9-1.5,2.1-2.3,3.8-2.3c1.6,0,2.9,0.8,3.8,2.3C386.7,124.2,387,125.8,387,127.9z M385.5,127.9c0-1.5-0.3-2.8-0.8-3.8
		c-0.6-1.2-1.5-1.8-2.5-1.8c-1,0-1.9,0.6-2.5,1.8c-0.6,1.1-0.8,2.3-0.8,3.8c0,1.5,0.3,2.8,0.8,3.8c0.6,1.2,1.5,1.8,2.5,1.8
		c1,0,1.9-0.6,2.5-1.8C385.2,130.7,385.5,129.4,385.5,127.9z"/>
	<path class="st9" d="M416.8,167c0,1.2-0.3,2.3-1,3.2c-0.7,0.9-1.5,1.3-2.4,1.3c-1.4,0-2.5-0.9-3.2-2.6c-0.5-1.3-0.8-2.9-0.8-4.8
		c0-2.1,0.4-3.9,1.2-5.3c0.9-1.7,2.2-2.5,3.8-2.5c0.4,0,0.9,0.1,1.5,0.4v1.8c-0.5-0.3-1-0.4-1.5-0.4c-1.1,0-2,0.7-2.6,2
		c-0.5,1.1-0.8,2.4-0.8,3.9c0.7-1,1.6-1.4,2.5-1.4c0.9,0,1.7,0.4,2.3,1.3C416.5,164.7,416.8,165.7,416.8,167L416.8,167z M415.3,167
		c0-0.8-0.2-1.5-0.5-1.9c-0.3-0.5-0.8-0.7-1.4-0.7c-0.5,0-1,0.2-1.4,0.6c-0.4,0.3-0.7,0.7-0.9,1.2c0,0.9,0.2,1.7,0.6,2.4
		c0.4,0.8,1,1.2,1.7,1.2c0.5,0,1-0.3,1.3-0.8S415.3,167.8,415.3,167L415.3,167z M428,163.9c0,2.1-0.4,3.9-1.1,5.2
		c-0.8,1.6-2.1,2.4-3.7,2.4s-2.8-0.8-3.7-2.4c-0.7-1.4-1.1-3.1-1.1-5.2c0-2.1,0.4-3.9,1.1-5.2c0.8-1.6,2.1-2.4,3.7-2.4
		s2.8,0.8,3.7,2.4C427.6,160,428,161.8,428,163.9z M426.4,163.9c0-1.5-0.3-2.9-0.8-4c-0.6-1.2-1.4-1.9-2.4-1.9c-1,0-1.8,0.6-2.4,1.9
		c-0.5,1.1-0.8,2.4-0.8,4s0.3,2.9,0.8,4c0.6,1.2,1.4,1.9,2.4,1.9c1,0,1.8-0.6,2.4-1.9C426.2,166.8,426.4,165.5,426.4,163.9z"/>
	<path class="st9" d="M264.2,133v14.8h-1.5v-12l-1,1.3l-0.9-1.3l2.1-2.7H264.2L264.2,133z M269.9,136.3c0,0.5,0.2,1,0.6,1.5
		c0.3,0.4,0.7,0.8,1.1,1c0.4-0.3,0.8-0.6,1.1-1c0.4-0.5,0.6-1,0.6-1.5c0-0.6-0.2-1.1-0.5-1.5c-0.3-0.3-0.7-0.5-1.2-0.5
		c-0.5,0-0.9,0.2-1.2,0.5C270.1,135.1,269.9,135.6,269.9,136.3L269.9,136.3z M269.5,144.1c0,0.6,0.2,1.1,0.5,1.6
		c0.4,0.6,0.9,0.9,1.6,0.9c0.7,0,1.2-0.3,1.6-0.9c0.3-0.5,0.5-1,0.5-1.6c0-1.2-0.7-2.3-2.1-3.3C270.3,141.8,269.5,142.9,269.5,144.1
		L269.5,144.1z M268.5,136.3c0-1.2,0.3-2.2,0.9-2.8c0.6-0.6,1.3-0.9,2.3-0.9c0.9,0,1.7,0.3,2.3,0.9c0.6,0.6,0.9,1.6,0.9,2.8
		c0,1.3-0.6,2.5-1.8,3.5c0.7,0.6,1.2,1.2,1.5,1.7c0.5,0.7,0.7,1.6,0.7,2.6c0,1.1-0.3,2-0.9,2.8c-0.7,0.9-1.6,1.4-2.7,1.4
		c-1.1,0-2.1-0.5-2.7-1.4c-0.6-0.8-0.9-1.7-0.9-2.8c0-1,0.2-1.9,0.7-2.6c0.3-0.5,0.8-1,1.5-1.7C269.1,138.7,268.5,137.6,268.5,136.3
		L268.5,136.3z M286.5,140.4c0,2.2-0.4,4-1.1,5.4c-0.8,1.6-2,2.4-3.6,2.4s-2.7-0.8-3.6-2.4c-0.7-1.4-1.1-3.2-1.1-5.4s0.4-4,1.1-5.4
		c0.8-1.6,2-2.4,3.6-2.4c1.6,0,2.7,0.8,3.6,2.4C286.2,136.4,286.5,138.2,286.5,140.4L286.5,140.4z M285,140.4c0-1.6-0.3-2.9-0.8-4.1
		c-0.6-1.3-1.4-1.9-2.3-1.9c-1,0-1.8,0.6-2.4,1.9c-0.5,1.1-0.8,2.5-0.8,4.1s0.3,2.9,0.8,4.1c0.6,1.3,1.4,1.9,2.4,1.9
		c1,0,1.8-0.6,2.3-1.9C284.8,143.4,285,142,285,140.4z"/>
	<path class="st9" d="M428.3,218.6c0,0.4,0.2,0.9,0.7,1.4c0.3,0.4,0.7,0.7,1.1,1c0.4-0.3,0.8-0.6,1.1-1c0.4-0.5,0.7-1,0.7-1.4
		c0-0.6-0.2-1.1-0.6-1.4c-0.3-0.3-0.7-0.4-1.2-0.4c-0.5,0-0.9,0.1-1.2,0.4C428.5,217.6,428.3,218,428.3,218.6L428.3,218.6z
		 M427.9,226.2c0,0.5,0.2,1.1,0.5,1.5c0.4,0.6,1,0.9,1.7,0.9c0.7,0,1.3-0.3,1.7-0.8c0.3-0.5,0.5-1,0.5-1.6c0-1.1-0.7-2.2-2.2-3.2
		C428.7,224,427.9,225.1,427.9,226.2L427.9,226.2z M426.9,218.6c0-1.2,0.3-2.1,1-2.7c0.6-0.6,1.3-0.8,2.3-0.8c1,0,1.7,0.3,2.3,0.8
		c0.6,0.6,1,1.5,1,2.7c0,1.3-0.6,2.4-1.9,3.4c0.8,0.6,1.3,1.2,1.6,1.6c0.5,0.7,0.7,1.6,0.7,2.6c0,1-0.3,2-0.9,2.7
		c-0.7,0.9-1.6,1.3-2.8,1.3c-1.2,0-2.1-0.4-2.8-1.3c-0.6-0.8-0.9-1.7-0.9-2.8c0-1,0.2-1.9,0.7-2.6c0.3-0.4,0.8-1,1.6-1.6
		C427.5,221,426.9,219.9,426.9,218.6L426.9,218.6z M445.4,222.7c0,2.1-0.4,3.9-1.1,5.2c-0.8,1.6-2.1,2.4-3.7,2.4
		c-1.6,0-2.8-0.8-3.7-2.4c-0.7-1.4-1.1-3.1-1.1-5.2c0-2.1,0.4-3.9,1.1-5.2c0.8-1.6,2.1-2.4,3.7-2.4s2.8,0.8,3.7,2.4
		C445,218.8,445.4,220.6,445.4,222.7z M443.8,222.7c0-1.5-0.3-2.9-0.8-4c-0.6-1.2-1.4-1.9-2.4-1.9c-1,0-1.8,0.6-2.4,1.9
		c-0.5,1.1-0.8,2.4-0.8,4s0.3,2.9,0.8,4c0.6,1.2,1.4,1.9,2.4,1.9c1,0,1.8-0.6,2.4-1.9C443.6,225.5,443.8,224.2,443.8,222.7z"/>
	<path class="st9" d="M397.8,286.2v14.9h-1.5v-12.2l-1,1.3l-0.9-1.3l2.1-2.7H397.8L397.8,286.2z M409.9,293.6c0,2.2-0.4,4-1.1,5.4
		c-0.8,1.6-2,2.5-3.5,2.5s-2.7-0.8-3.5-2.5c-0.7-1.4-1.1-3.2-1.1-5.4c0-2.2,0.4-4,1.1-5.4c0.8-1.6,2-2.5,3.5-2.5
		c1.5,0,2.7,0.8,3.5,2.5C409.6,289.6,409.9,291.4,409.9,293.6z M408.4,293.6c0-1.6-0.3-3-0.8-4.1c-0.6-1.3-1.4-1.9-2.3-1.9
		c-1,0-1.7,0.6-2.3,1.9c-0.5,1.1-0.8,2.5-0.8,4.1c0,1.6,0.3,3,0.8,4.1c0.6,1.3,1.4,1.9,2.3,1.9c1,0,1.7-0.6,2.3-1.9
		C408.2,296.6,408.4,295.2,408.4,293.6L408.4,293.6z M420.2,293.6c0,2.2-0.4,4-1.1,5.4c-0.8,1.6-2,2.5-3.5,2.5s-2.7-0.8-3.5-2.5
		c-0.7-1.4-1.1-3.2-1.1-5.4c0-2.2,0.4-4,1.1-5.4c0.8-1.6,2-2.5,3.5-2.5c1.5,0,2.7,0.8,3.5,2.5C419.9,289.6,420.2,291.4,420.2,293.6z
		 M418.7,293.6c0-1.6-0.3-3-0.8-4.1c-0.6-1.3-1.4-1.9-2.3-1.9c-1,0-1.7,0.6-2.3,1.9c-0.5,1.1-0.8,2.5-0.8,4.1c0,1.6,0.3,3,0.8,4.1
		c0.6,1.3,1.4,1.9,2.3,1.9c1,0,1.7-0.6,2.3-1.9C418.5,296.6,418.7,295.2,418.7,293.6L418.7,293.6z"/>
	<path class="st9" d="M219.6,194.9V210h-1.5v-12.4l-1,1.3l-0.9-1.3l2-2.8H219.6z M230.7,205.7c0,1.3-0.3,2.4-1,3.4
		c-0.7,0.9-1.4,1.4-2.3,1.4c-1.4,0-2.4-0.9-3-2.7c-0.5-1.4-0.8-3.1-0.8-5.1c0-2.2,0.4-4.1,1.1-5.6c0.9-1.7,2.1-2.6,3.6-2.6
		c0.4,0,0.9,0.1,1.4,0.4v1.9c-0.5-0.3-1-0.4-1.5-0.4c-1,0-1.9,0.7-2.5,2.1c-0.5,1.2-0.8,2.5-0.8,4.1c0.7-1,1.5-1.5,2.4-1.5
		c0.9,0,1.6,0.4,2.2,1.3C230.4,203.2,230.7,204.3,230.7,205.7L230.7,205.7z M229.3,205.7c0-0.9-0.2-1.5-0.5-2
		c-0.3-0.5-0.7-0.8-1.3-0.8c-0.5,0-0.9,0.2-1.4,0.6c-0.4,0.3-0.7,0.8-0.9,1.3c0,1,0.2,1.8,0.6,2.5c0.4,0.8,1,1.3,1.6,1.3
		c0.5,0,0.9-0.3,1.3-0.8S229.3,206.5,229.3,205.7L229.3,205.7z M241.3,202.4c0,2.2-0.3,4.1-1,5.5c-0.8,1.7-2,2.5-3.5,2.5
		c-1.5,0-2.7-0.8-3.5-2.5c-0.7-1.4-1-3.3-1-5.5c0-2.2,0.3-4.1,1-5.5c0.8-1.7,2-2.5,3.5-2.5c1.5,0,2.7,0.8,3.5,2.5
		C241,198.3,241.3,200.2,241.3,202.4z M239.9,202.4c0-1.6-0.3-3-0.8-4.2c-0.6-1.3-1.3-2-2.3-2c-1,0-1.7,0.7-2.3,2
		c-0.5,1.2-0.8,2.5-0.8,4.2c0,1.6,0.3,3,0.8,4.2c0.6,1.3,1.3,2,2.3,2c1,0,1.7-0.7,2.3-2C239.6,205.4,239.9,204.1,239.9,202.4z"/>
	<path class="st10" d="M244.1,263.9v18.3h-1.2v-15l-0.8,1.6l-0.7-1.6l1.7-3.4H244.1L244.1,263.9z M250.6,274.5v-6.7l-2.3,6.7H250.6z
		 M253.4,276.8h-1.6v5.4h-1.2v-5.4h-3.7v-2.3l3.7-10.6h1.2v10.6h1.6V276.8z M262.1,273.1c0,2.7-0.3,5-0.9,6.7c-0.7,2-1.6,3-2.9,3
		s-2.2-1-2.9-3c-0.6-1.7-0.9-4-0.9-6.7s0.3-5,0.9-6.7c0.7-2,1.6-3,2.9-3s2.2,1,2.9,3C261.8,268.1,262.1,270.4,262.1,273.1z
		 M260.9,273.1c0-2-0.2-3.6-0.6-5c-0.5-1.6-1.1-2.4-1.9-2.4c-0.8,0-1.4,0.8-1.9,2.4c-0.4,1.4-0.6,3.1-0.6,5s0.2,3.6,0.6,5
		c0.5,1.6,1.1,2.4,1.9,2.4c0.8,0,1.4-0.8,1.9-2.4C260.7,276.7,260.9,275.1,260.9,273.1z"/>
	<path class="st9" d="M312.5,322.6h-1v-8l-0.8,0.9l-0.5-0.6l1.3-1.6h0.9L312.5,322.6L312.5,322.6z M319.6,315.5
		c0,0.8-0.3,1.6-0.9,2.3c-0.6,0.5-1.1,1.1-1.7,1.6c-0.6,0.7-0.9,1.4-0.9,2.2h3.4v1h-4.3c0-0.2,0-0.4,0-0.6c0-1.2,0.3-2.2,0.9-3.1
		c0.1-0.2,0.7-0.8,1.7-1.7c0.6-0.6,0.9-1.2,0.9-1.8c0-1-0.4-1.5-1.3-1.5c-0.7,0-1.3,0.4-1.7,1.1l-0.6-0.7c0.3-0.6,0.7-1,1.2-1.2
		c0.4-0.2,0.7-0.3,1.1-0.3c0.6,0,1.2,0.2,1.6,0.7C319.4,314,319.6,314.7,319.6,315.5L319.6,315.5z M327.5,317.9
		c0,1.4-0.3,2.5-0.8,3.5c-0.6,1-1.4,1.6-2.4,1.6c-1,0-1.8-0.5-2.4-1.6c-0.5-0.9-0.8-2.1-0.8-3.5c0-1.4,0.3-2.5,0.8-3.4
		c0.6-1,1.4-1.6,2.4-1.6c1,0,1.8,0.5,2.4,1.6C327.3,315.4,327.5,316.5,327.5,317.9z M326.6,317.9c0-1-0.2-1.9-0.6-2.7
		c-0.4-0.9-1-1.3-1.7-1.3c-0.7,0-1.2,0.4-1.7,1.3c-0.4,0.8-0.6,1.7-0.6,2.7c0,1,0.2,1.9,0.6,2.7c0.4,0.9,1,1.3,1.7,1.3
		s1.2-0.4,1.7-1.3C326.4,319.8,326.6,318.9,326.6,317.9z"/>
	<path class="st9" d="M369.5,323v-8.4h1.2l1.4,6c0.1,0.6,0.2,1,0.3,1.2c0.1-0.3,0.2-0.8,0.3-1.3l1.5-5.9h1.1v8.4h-0.8v-7l-1.8,7H372
		l-1.8-7.2v7.2H369.5z M376.7,323v-1.2h0.9v1.2H376.7z M379,323v-8.4h2.3c0.4,0,0.7,0,0.9,0.1c0.3,0.1,0.5,0.2,0.8,0.4
		c0.2,0.2,0.4,0.5,0.5,0.8c0.1,0.3,0.2,0.7,0.2,1.1c0,0.7-0.2,1.3-0.5,1.8c-0.3,0.5-0.9,0.7-1.8,0.7h-1.6v3.4H379z M379.8,318.6h1.6
		c0.5,0,0.9-0.1,1.1-0.4c0.2-0.3,0.3-0.6,0.3-1.1c0-0.4-0.1-0.7-0.2-0.9c-0.1-0.3-0.3-0.4-0.5-0.5c-0.1,0-0.4-0.1-0.8-0.1h-1.6
		V318.6z M384.8,323v-1.2h0.9v1.2H384.8z M387,323v-8.4h0.8v3.5h3.2v-3.5h0.8v8.4H391v-4h-3.2v4H387z M393.3,323v-1.2h0.9v1.2H393.3
		z"/>
	<path class="st9" d="M307,202.2h-1.5l-0.9-3.8h-2.8l-0.9,3.8h-1.5l3.2-12.4h1.3L307,202.2L307,202.2z M304.3,197l-1-4.4h-0.1
		l-1,4.4H304.3L304.3,197z M312,202.2h-1.5V190h1.5V202.2z M323,202.2h-1.5l-2.3-5.3h-1.7v5.3h-1.5V190h3.2c1,0,1.8,0.3,2.5,0.8
		c0.6,0.5,1,1.4,1,2.7c0,1-0.2,1.7-0.6,2.2c-0.4,0.5-0.9,0.9-1.5,1L323,202.2L323,202.2z M321.3,193.5c0-0.7-0.2-1.2-0.5-1.6
		c-0.4-0.4-0.9-0.6-1.7-0.6h-1.4v4.2h1.8c0.5,0,1-0.2,1.3-0.5C321.1,194.8,321.3,194.2,321.3,193.5L321.3,193.5z M330.9,198.8
		c0,1.1-0.3,2-0.9,2.6c-0.6,0.6-1.4,1-2.5,1c-1.1,0-1.9-0.3-2.5-1c-0.6-0.7-0.9-1.5-0.9-2.5v-0.5h1.5v0.4c0,0.7,0.2,1.3,0.6,1.6
		c0.4,0.4,0.8,0.6,1.3,0.6c0.7,0,1.2-0.2,1.5-0.6s0.5-0.9,0.5-1.5c0-0.5-0.2-0.9-0.6-1.3c-0.4-0.4-0.9-0.8-1.7-1.1
		c-1-0.4-1.7-0.9-2.2-1.4c-0.4-0.5-0.7-1.1-0.7-1.9c0-1,0.3-1.8,0.9-2.4c0.6-0.6,1.3-0.9,2.2-0.9c1.1,0,1.9,0.4,2.4,1.1
		s0.7,1.5,0.7,2.4h-1.5c0-0.5-0.1-1-0.4-1.4c-0.3-0.4-0.7-0.6-1.3-0.6c-0.5,0-0.9,0.2-1.2,0.5c-0.3,0.3-0.4,0.7-0.4,1.3
		c0,0.4,0.1,0.8,0.3,1.1c0.2,0.3,0.8,0.7,1.8,1.1c0.9,0.4,1.7,0.9,2.2,1.5C330.7,197.3,330.9,198,330.9,198.8L330.9,198.8z
		 M339.2,193.7c0,1.1-0.3,2-0.9,2.7s-1.4,1-2.5,1H334v4.8h-1.5V190h3.3c1.1,0,1.9,0.3,2.5,1S339.2,192.5,339.2,193.7L339.2,193.7z
		 M337.7,193.7c0-0.9-0.2-1.5-0.6-1.9c-0.4-0.3-1-0.5-1.7-0.5H334v4.7h1.5c0.8,0,1.3-0.2,1.7-0.5S337.7,194.6,337.7,193.7
		L337.7,193.7z M347.2,202.2h-6.5V190h6.2v1.4h-4.7v3.8h4.3v1.4h-4.3v4.4h5L347.2,202.2L347.2,202.2z M355.3,202.2h-6.5V190h6.2v1.4
		h-4.7v3.8h4.3v1.4h-4.3v4.4h5L355.3,202.2L355.3,202.2z M363.5,196.1c0,2.2-0.4,3.8-1.2,4.7c-0.8,0.9-1.9,1.4-3.3,1.4h-2.2V190h2.2
		c1.6,0,2.7,0.5,3.5,1.4S363.5,193.9,363.5,196.1L363.5,196.1z M362,196.1c0-1.8-0.3-3-0.8-3.7c-0.5-0.7-1.3-1.1-2.3-1.1h-0.7v9.5
		h0.7c1,0,1.8-0.3,2.3-1C361.7,199.1,362,197.9,362,196.1L362,196.1z"/>
	<path class="st9" d="M308.2,248.7h-1.8v7.6h-1v-7.6h-1.8v-0.9h4.6V248.7z M314.1,256.3h-1.1l-1.6-3.7h-1.1v3.7h-1v-8.5h2.2
		c0.7,0,1.3,0.2,1.7,0.6c0.4,0.4,0.7,1,0.7,1.9c0,0.7-0.1,1.2-0.4,1.5s-0.6,0.6-1,0.7L314.1,256.3z M312.9,250.2
		c0-0.5-0.1-0.8-0.4-1.1c-0.3-0.3-0.7-0.4-1.2-0.4h-1v2.9h1.2c0.4,0,0.7-0.1,0.9-0.3S312.9,250.8,312.9,250.2z M319.5,253.8
		c0,0.8-0.2,1.4-0.6,1.9s-0.9,0.7-1.7,0.7c-0.8,0-1.4-0.2-1.7-0.7s-0.6-1.1-0.6-1.9v-6h1v6c0,0.6,0.1,1,0.4,1.2s0.5,0.4,0.9,0.4
		c0.4,0,0.7-0.1,0.9-0.4s0.4-0.7,0.4-1.2v-6h1V253.8z M325.2,256.3h-4.5v-8.5h4.3v0.9h-3.3v2.6h3v0.9h-3v3h3.5V256.3z M336.6,253.9
		c0,0.8-0.2,1.4-0.6,1.8s-1,0.7-1.7,0.7s-1.3-0.2-1.7-0.7c-0.4-0.5-0.6-1-0.6-1.7v-0.3h1v0.3c0,0.5,0.1,0.9,0.4,1.1
		c0.3,0.3,0.6,0.4,0.9,0.4c0.5,0,0.8-0.1,1-0.4c0.2-0.3,0.3-0.6,0.3-1c0-0.3-0.1-0.6-0.4-0.9s-0.6-0.5-1.1-0.8
		c-0.7-0.3-1.2-0.6-1.5-1c-0.3-0.4-0.5-0.8-0.5-1.3c0-0.7,0.2-1.3,0.6-1.7s0.9-0.6,1.5-0.6c0.8,0,1.3,0.3,1.7,0.8
		c0.3,0.5,0.5,1.1,0.5,1.7h-1c0-0.4-0.1-0.7-0.3-1c-0.2-0.3-0.5-0.4-0.9-0.4c-0.4,0-0.6,0.1-0.8,0.3s-0.3,0.5-0.3,0.9
		c0,0.3,0.1,0.6,0.2,0.8c0.2,0.2,0.6,0.5,1.3,0.8c0.6,0.3,1.1,0.7,1.5,1.1C336.4,252.9,336.6,253.4,336.6,253.9z M342.3,250.4
		c0,0.8-0.2,1.4-0.6,1.9c-0.4,0.5-1,0.7-1.7,0.7h-1.3v3.3h-1v-8.5h2.3c0.7,0,1.3,0.2,1.7,0.7C342.1,249,342.3,249.6,342.3,250.4z
		 M341.3,250.4c0-0.6-0.1-1.1-0.4-1.3c-0.3-0.2-0.7-0.3-1.2-0.3h-1v3.3h1c0.5,0,0.9-0.1,1.2-0.3C341.1,251.4,341.3,251,341.3,250.4z
		 M347.9,256.3h-4.5v-8.5h4.3v0.9h-3.3v2.6h3v0.9h-3v3h3.5V256.3z M353.5,256.3H349v-8.5h4.3v0.9H350v2.6h3v0.9h-3v3h3.5V256.3z
		 M359.2,252.1c0,1.5-0.3,2.6-0.9,3.3c-0.6,0.6-1.3,1-2.3,1h-1.5v-8.5h1.5c1.1,0,1.9,0.3,2.4,1S359.2,250.5,359.2,252.1z
		 M358.2,252.1c0-1.2-0.2-2.1-0.5-2.6c-0.4-0.5-0.9-0.7-1.6-0.7h-0.5v6.6h0.5c0.7,0,1.2-0.2,1.6-0.7
		C358,254.2,358.2,253.3,358.2,252.1z"/>
	<path class="st9" d="M270.6,199.3V212h-1.3v-10.3l-0.8,1.1l-0.8-1.1l1.8-2.3L270.6,199.3L270.6,199.3z M277.5,206.6V202l-2.5,4.6
		H277.5z M280.5,208.2h-1.7v3.7h-1.3v-3.7h-3.9v-1.6l3.9-7.3h1.3v7.3h1.7V208.2z M289.6,205.6c0,1.9-0.3,3.4-0.9,4.6
		c-0.7,1.4-1.7,2.1-3,2.1c-1.3,0-2.3-0.7-3-2.1c-0.6-1.2-0.9-2.7-0.9-4.6s0.3-3.4,0.9-4.6c0.7-1.4,1.7-2.1,3-2.1
		c1.3,0,2.3,0.7,3,2.1C289.3,202.2,289.6,203.8,289.6,205.6z M288.3,205.6c0-1.4-0.2-2.5-0.7-3.5c-0.5-1.1-1.2-1.6-2-1.6
		c-0.8,0-1.5,0.5-2,1.6c-0.4,1-0.7,2.1-0.7,3.5c0,1.4,0.2,2.5,0.7,3.5c0.5,1.1,1.2,1.6,2,1.6c0.8,0,1.5-0.5,2-1.6
		C288.1,208.2,288.3,207,288.3,205.6z"/>
	<path class="st9" d="M277.1,253v13h-1.3v-10.6l-0.8,1.1l-0.7-1.1l1.7-2.4L277.1,253L277.1,253z M280.5,266c0-0.3,0-0.6,0-0.9
		c0-1.8,0.4-3.3,1.1-4.5c0.3-0.4,0.9-1.2,2-2.3c0.7-0.7,1.1-1.4,1.1-2.1c0-1.3-0.5-1.9-1.5-1.9c-0.9,0-1.6,0.5-2.1,1.6l-0.8-1.1
		c0.4-0.8,0.8-1.4,1.5-1.8c0.5-0.3,0.9-0.4,1.4-0.4c0.8,0,1.4,0.3,1.9,0.9c0.5,0.7,0.8,1.5,0.8,2.6c0,1.1-0.4,2.1-1.1,2.9l-2,2.1
		c-0.7,0.9-1.1,1.9-1.1,3.1h4.1v1.6L280.5,266L280.5,266z M295.6,259.5c0,1.9-0.3,3.5-0.9,4.7c-0.7,1.4-1.7,2.1-3,2.1
		s-2.3-0.7-3-2.1c-0.6-1.2-0.9-2.8-0.9-4.7c0-1.9,0.3-3.5,0.9-4.7c0.7-1.4,1.7-2.1,3-2.1s2.3,0.7,3,2.1
		C295.3,256,295.6,257.6,295.6,259.5z M294.4,259.5c0-1.4-0.2-2.6-0.6-3.6c-0.5-1.1-1.1-1.7-2-1.7c-0.8,0-1.5,0.6-2,1.7
		c-0.4,1-0.7,2.2-0.7,3.6c0,1.4,0.2,2.6,0.7,3.6c0.5,1.1,1.1,1.7,2,1.7c0.8,0,1.5-0.6,2-1.7C294.2,262.1,294.4,260.9,294.4,259.5z"
		/>
	<path class="st9" d="M329.3,279.8v12.1h-1.2V282l-0.8,1l-0.7-1l1.6-2.2L329.3,279.8L329.3,279.8z M338.8,285.9
		c0,1.8-0.3,3.3-0.8,4.4c-0.6,1.3-1.6,2-2.8,2s-2.1-0.7-2.8-2c-0.6-1.2-0.8-2.6-0.8-4.4c0-1.8,0.3-3.3,0.8-4.4c0.6-1.3,1.6-2,2.8-2
		s2.1,0.7,2.8,2C338.5,282.6,338.8,284.1,338.8,285.9z M337.6,285.9c0-1.3-0.2-2.4-0.6-3.3c-0.5-1-1.1-1.6-1.8-1.6s-1.4,0.5-1.8,1.6
		c-0.4,0.9-0.6,2-0.6,3.3c0,1.3,0.2,2.4,0.6,3.3c0.5,1,1.1,1.6,1.8,1.6s1.4-0.5,1.8-1.6C337.4,288.3,337.6,287.1,337.6,285.9z
		 M346.9,285.9c0,1.8-0.3,3.3-0.8,4.4c-0.6,1.3-1.6,2-2.8,2c-1.2,0-2.1-0.7-2.8-2c-0.6-1.2-0.8-2.6-0.8-4.4c0-1.8,0.3-3.3,0.8-4.4
		c0.6-1.3,1.6-2,2.8-2c1.2,0,2.1,0.7,2.8,2C346.6,282.6,346.9,284.1,346.9,285.9z M345.8,285.9c0-1.3-0.2-2.4-0.6-3.3
		c-0.5-1-1.1-1.6-1.8-1.6c-0.8,0-1.4,0.5-1.8,1.6c-0.4,0.9-0.6,2-0.6,3.3c0,1.3,0.2,2.4,0.6,3.3c0.5,1,1.1,1.6,1.8,1.6
		s1.4-0.5,1.8-1.6C345.6,288.3,345.8,287.1,345.8,285.9z"/>
	<path class="st9" d="M377.8,246.4c0,0.4,0.2,0.8,0.6,1.3c0.3,0.4,0.6,0.6,0.9,0.9c0.3-0.2,0.7-0.5,0.9-0.9c0.4-0.5,0.6-0.9,0.6-1.3
		c0-0.5-0.2-0.9-0.5-1.2c-0.3-0.3-0.6-0.4-1-0.4c-0.4,0-0.8,0.1-1,0.4C377.9,245.4,377.8,245.9,377.8,246.4L377.8,246.4z M377.4,253
		c0,0.5,0.1,0.9,0.4,1.3c0.3,0.5,0.8,0.8,1.4,0.8s1.1-0.2,1.4-0.7c0.3-0.4,0.4-0.9,0.4-1.4c0-1-0.6-1.9-1.8-2.8
		C378,251,377.4,252,377.4,253L377.4,253z M376.5,246.4c0-1,0.3-1.8,0.8-2.4c0.5-0.5,1.1-0.7,2-0.7c0.8,0,1.5,0.2,2,0.7
		c0.5,0.5,0.8,1.3,0.8,2.4c0,1.1-0.5,2.1-1.6,2.9c0.6,0.5,1.1,1,1.3,1.4c0.4,0.6,0.6,1.4,0.6,2.2c0,0.9-0.3,1.7-0.8,2.4
		c-0.6,0.8-1.4,1.2-2.4,1.2s-1.8-0.4-2.4-1.1c-0.5-0.7-0.7-1.5-0.7-2.4c0-0.9,0.2-1.6,0.6-2.2c0.3-0.4,0.7-0.8,1.3-1.4
		C377,248.5,376.5,247.5,376.5,246.4L376.5,246.4z M392.1,249.9c0,1.8-0.3,3.4-0.9,4.5c-0.7,1.4-1.7,2.1-3.1,2.1
		c-1.3,0-2.4-0.7-3.1-2.1c-0.6-1.2-0.9-2.7-0.9-4.5c0-1.8,0.3-3.4,0.9-4.5c0.7-1.4,1.7-2.1,3.1-2.1c1.3,0,2.4,0.7,3.1,2.1
		C391.8,246.5,392.1,248,392.1,249.9z M390.8,249.9c0-1.3-0.2-2.5-0.7-3.4c-0.5-1.1-1.2-1.6-2-1.6s-1.5,0.5-2,1.6
		c-0.5,0.9-0.7,2.1-0.7,3.4c0,1.3,0.2,2.5,0.7,3.4c0.5,1.1,1.2,1.6,2,1.6s1.5-0.5,2-1.6C390.6,252.4,390.8,251.2,390.8,249.9z"/>
	<path class="st9" d="M381.6,204.1c0,1.1-0.3,2-0.9,2.7c-0.6,0.8-1.3,1.1-2,1.1c-1.2,0-2.1-0.7-2.7-2.2c-0.5-1.1-0.7-2.5-0.7-4.2
		c0-1.8,0.3-3.3,1-4.6c0.8-1.4,1.9-2.1,3.2-2.1c0.4,0,0.8,0.1,1.3,0.3v1.6c-0.5-0.2-0.9-0.3-1.3-0.3c-0.9,0-1.7,0.6-2.2,1.7
		c-0.5,1-0.7,2.1-0.7,3.3c0.6-0.8,1.3-1.2,2.2-1.2c0.8,0,1.4,0.4,2,1.1C381.4,202,381.6,202.9,381.6,204.1L381.6,204.1z M380.4,204
		c0-0.7-0.1-1.3-0.4-1.7c-0.3-0.4-0.7-0.6-1.2-0.6c-0.4,0-0.8,0.2-1.2,0.5c-0.4,0.3-0.6,0.6-0.8,1c0,0.8,0.2,1.5,0.5,2.1
		c0.4,0.7,0.9,1,1.5,1c0.4,0,0.8-0.2,1.1-0.7S380.4,204.7,380.4,204L380.4,204z M391.1,201.4c0,1.8-0.3,3.3-0.9,4.5
		c-0.7,1.4-1.7,2-3.1,2s-2.4-0.7-3.1-2c-0.6-1.2-0.9-2.7-0.9-4.5s0.3-3.3,0.9-4.5c0.7-1.4,1.8-2,3.1-2s2.4,0.7,3.1,2
		C390.8,198,391.1,199.5,391.1,201.4z M389.8,201.4c0-1.3-0.2-2.5-0.7-3.4c-0.5-1.1-1.2-1.6-2-1.6s-1.5,0.5-2,1.6
		c-0.5,0.9-0.7,2.1-0.7,3.4s0.2,2.5,0.7,3.4c0.5,1.1,1.2,1.6,2,1.6s1.5-0.5,2-1.6C389.6,203.8,389.8,202.7,389.8,201.4z"/>
	<path class="st9" d="M351.3,172.4V168l-2.6,4.4H351.3z M354.5,173.9h-1.8v3.6h-1.3v-3.6h-4.1v-1.5l4.1-7h1.3v7h1.8V173.9z
		 M364.1,171.5c0,1.8-0.3,3.3-1,4.4c-0.7,1.3-1.8,2-3.2,2c-1.4,0-2.5-0.7-3.2-2c-0.6-1.1-1-2.6-1-4.4c0-1.8,0.3-3.3,1-4.4
		c0.7-1.3,1.8-2,3.2-2c1.4,0,2.5,0.7,3.2,2C363.8,168.2,364.1,169.7,364.1,171.5z M362.7,171.5c0-1.3-0.2-2.4-0.7-3.3
		c-0.5-1-1.2-1.6-2.1-1.6s-1.6,0.5-2.1,1.6c-0.5,0.9-0.7,2-0.7,3.3s0.2,2.4,0.7,3.3c0.5,1,1.2,1.6,2.1,1.6s1.6-0.5,2.1-1.6
		C362.5,173.9,362.7,172.8,362.7,171.5z"/>
	<path class="st9" d="M323.2,273.1h-1.1l-1.9-4.5l-0.7,1.1v3.4h-1v-9h1v3.9l2.4-3.9h1.1l-2.2,3.5L323.2,273.1z M328.2,273.1h-1
		l-2.3-6.5h0v6.5h-1v-9h1l2.3,6.5h0v-6.5h1V273.1z M333.7,268.5c0,1.6-0.2,2.8-0.6,3.5c-0.4,0.7-1,1.1-1.7,1.1s-1.3-0.4-1.7-1.1
		c-0.4-0.7-0.6-1.9-0.6-3.5c0-1.6,0.2-2.8,0.6-3.5c0.4-0.7,1-1.1,1.7-1.1s1.3,0.4,1.7,1.1S333.7,266.9,333.7,268.5z M332.7,268.5
		c0-1.5-0.1-2.4-0.4-2.9s-0.6-0.7-0.9-0.7s-0.7,0.2-0.9,0.7c-0.3,0.5-0.4,1.4-0.4,2.9c0,1.5,0.1,2.4,0.4,2.9
		c0.3,0.5,0.6,0.7,0.9,0.7s0.7-0.2,0.9-0.7S332.7,270,332.7,268.5z M338.9,265.1h-1.7v8h-1v-8h-1.7v-1h4.3V265.1z M344.3,270.5
		c0,0.8-0.2,1.4-0.6,1.9c-0.4,0.5-1,0.7-1.7,0.7c-0.7,0-1.2-0.2-1.6-0.7c-0.4-0.5-0.6-1.1-0.6-1.8v-0.4h1v0.3c0,0.5,0.1,0.9,0.4,1.2
		c0.3,0.3,0.5,0.4,0.9,0.4c0.4,0,0.8-0.1,1-0.4s0.3-0.7,0.3-1.1c0-0.4-0.1-0.7-0.4-1c-0.3-0.3-0.6-0.6-1.1-0.8
		c-0.7-0.3-1.2-0.7-1.4-1.1s-0.4-0.8-0.4-1.4c0-0.7,0.2-1.3,0.6-1.8c0.4-0.5,0.9-0.7,1.4-0.7c0.7,0,1.2,0.3,1.6,0.8
		c0.3,0.5,0.5,1.1,0.5,1.8h-1c0-0.4-0.1-0.7-0.3-1.1s-0.5-0.5-0.8-0.5c-0.3,0-0.6,0.1-0.8,0.3c-0.2,0.2-0.3,0.5-0.3,0.9
		c0,0.3,0.1,0.6,0.2,0.8c0.2,0.2,0.6,0.5,1.2,0.8c0.6,0.3,1.1,0.7,1.4,1.1C344.2,269.5,344.3,270,344.3,270.5z"/>
	<path class="st11" d="M315.8,360.1h-1.2v-7.9l-1,0.9l-0.6-0.6l1.7-1.6h1.1L315.8,360.1L315.8,360.1z M324.6,353
		c0,0.8-0.4,1.6-1.1,2.3l-2.1,1.6c-0.7,0.7-1.1,1.4-1.1,2.2h4.2v1h-5.4c0-0.2,0-0.4,0-0.6c0-1.2,0.4-2.2,1.1-3.1
		c0.2-0.2,0.9-0.8,2.1-1.7c0.7-0.6,1.1-1.2,1.1-1.7c0-1-0.5-1.5-1.6-1.5c-0.9,0-1.6,0.4-2.2,1.1l-0.7-0.7c0.4-0.5,0.9-1,1.5-1.2
		c0.4-0.2,0.9-0.3,1.4-0.3c0.8,0,1.4,0.2,1.9,0.7C324.4,351.6,324.6,352.2,324.6,353L324.6,353z M334.5,355.4c0,1.4-0.3,2.5-0.9,3.4
		c-0.7,1-1.7,1.6-3,1.6s-2.3-0.5-3-1.6c-0.6-0.9-1-2.1-1-3.4s0.3-2.5,1-3.4c0.7-1,1.7-1.5,3-1.5s2.2,0.5,3,1.5
		C334.2,352.9,334.5,354,334.5,355.4z M333.3,355.4c0-1-0.2-1.9-0.7-2.7c-0.5-0.9-1.2-1.3-2.1-1.3s-1.5,0.4-2.1,1.3
		c-0.5,0.8-0.7,1.6-0.7,2.7s0.2,1.9,0.7,2.7c0.5,0.9,1.2,1.3,2.1,1.3s1.5-0.4,2.1-1.3C333.1,357.3,333.3,356.4,333.3,355.4z"/>
	<path class="st11" d="M262.6,338.2l-1-0.7l4.4-6.5l-1.3,0.2l-0.2-0.8l2.3-0.4l0.9,0.6L262.6,338.2L262.6,338.2z M271.3,341.2
		c-0.2,0.3-0.5,0.6-0.9,0.8c-0.5,0.3-1.1,0.4-1.7,0.3c-0.6-0.1-1.1-0.3-1.6-0.6c-0.7-0.5-1.3-1.2-1.6-2l0.6-0.9c0.4,0.9,1,1.6,1.6,2
		c0.4,0.3,0.9,0.4,1.4,0.4c0.6,0,1-0.3,1.3-0.7c0.7-1.1,0.6-2-0.5-2.7l-0.6-0.4l0.6-0.9l0.5,0.4c0.4,0.3,0.8,0.4,1.2,0.3
		s0.8-0.3,1-0.7c0.3-0.4,0.3-0.8,0.2-1.3c-0.1-0.4-0.4-0.8-0.9-1.1c-0.6-0.4-1.2-0.8-1.9-1.1l0.6-0.8c0.7,0.4,1.3,0.6,1.6,0.9
		c1.8,1.3,2.3,2.6,1.3,4c-0.5,0.7-1.2,1.1-2.1,1.1C272.1,339.2,272,340.1,271.3,341.2L271.3,341.2z M280.8,344.9
		c-0.8,1.1-1.7,1.9-2.7,2.3c-1.2,0.5-2.3,0.3-3.3-0.4c-1-0.7-1.6-1.7-1.6-3c0-1.1,0.4-2.2,1.1-3.4c0.8-1.1,1.7-1.9,2.7-2.3
		c1.2-0.4,2.3-0.3,3.3,0.4c1,0.7,1.6,1.7,1.6,2.9C282,342.7,281.6,343.8,280.8,344.9z M279.9,344.3c0.6-0.8,0.9-1.7,0.9-2.6
		c0-1-0.3-1.7-1-2.2c-0.7-0.5-1.5-0.5-2.4-0.1c-0.8,0.4-1.5,1-2.1,1.8c-0.6,0.8-0.9,1.7-0.9,2.6c0,1,0.3,1.7,1,2.2
		c0.7,0.5,1.5,0.5,2.4,0.1C278.6,345.7,279.3,345.1,279.9,344.3z"/>
	<path class="st12" d="M288.3,125.3l0.2-5.9l0.7-0.2l3.5,4.9l-0.7,0.2l-1-1.5l-1.9,0.5l0,1.8L288.3,125.3L288.3,125.3z M289,122.7
		l1.6-0.4l-0.9-1.4c-0.3-0.4-0.5-0.8-0.7-1c0,0.4,0.1,0.7,0.1,1.1L289,122.7L289,122.7z M293.1,124l-1.6-5.4l0.6-0.2l1.4,4.7
		l2.3-0.6l0.2,0.6L293.1,124L293.1,124z M297.9,122.6l-1.4-4.7l-1.5,0.4l-0.2-0.6l3.7-1l0.2,0.6l-1.5,0.4l1.4,4.7L297.9,122.6
		L297.9,122.6z"/>
	<path class="st12" d="M290.7,115.6l-1.6-5.4l2.1-0.6c0.4-0.1,0.7-0.2,0.9-0.2c0.3,0,0.6,0,0.8,0.1c0.2,0.1,0.4,0.2,0.6,0.4
		c0.2,0.2,0.3,0.4,0.4,0.7c0.1,0.5,0.1,0.9-0.1,1.3c-0.2,0.4-0.7,0.7-1.5,0.9l-1.5,0.4l0.7,2.2L290.7,115.6L290.7,115.6z
		 M290.6,112.6l1.5-0.4c0.5-0.1,0.8-0.3,1-0.5s0.2-0.5,0.1-0.8c-0.1-0.2-0.2-0.4-0.4-0.5s-0.4-0.2-0.6-0.2c-0.1,0-0.4,0.1-0.7,0.1
		l-1.5,0.4L290.6,112.6L290.6,112.6z"/>
	<path class="st7" d="M284.5,119.2l-8.4-19.5"/>
	<path class="st7" d="M245.1,147.6l-15.1-15"/>
	<path class="st7" d="M219,192.7l-20.3-6.1"/>
	<path class="st7" d="M196.1,251.9l20.8-4.3"/>
	<path class="st7" d="M203.6,281.1l21.8-8.3"/>
	<path class="st7" d="M440.5,183.8l20-7.1"/>
	<path class="st13" d="M447.6,222.6l21.2,0.1"/>
	<path class="st7" d="M441.4,266.1l19.9,7.4"/>
	<path class="st7" d="M418.2,304.4l15.4,14.6"/>
	<path class="st7" d="M377,357.3l-8.3-23"/>
	<path class="st8" d="M452.1,159.7l-13.9,7.3"/>
	<path class="st7" d="M410.2,194.1l-14.8,5.3"/>
	<path class="st8" d="M465.8,200.3l-15.4,3.4"/>
	<path class="st14" d="M400.5,225.1l15.7,0.1"/>
	<path class="st8" d="M466.7,250l-15.4-3.4"/>
	<path class="st8" d="M414.1,244.8l-9.8-2.3"/>
	<path class="st8" d="M225.8,166.5l-13.8-7.7"/>
	<path class="st8" d="M209.2,219l-15.8,0"/>
	<path class="st15" d="M260.6,127.2l-9.2-12.8"/>
	<path class="st8" d="M449.5,297.2l-13.4-8.3"/>
	<path class="st8" d="M406.3,341.7l-9-12.9"/>
	<path class="st16" d="M316,324.3l-0.1,13.7"/>
	<path class="st7" d="M259.4,299.2l-7,6.9"/>
	<path class="st17" d="M271,320.2l5.6-10.4"/>
	<path class="st7" d="M290.8,331.1l4.1-8.9"/>
	<path class="st7" d="M373.3,151.8l-7.6,13.6"/>
	<path class="st7" d="M394.1,168.6l-11.6,10.3"/>
	<path class="st8" d="M403.1,180.6l-8.7,5.6"/>
	<path class="st8" d="M384.3,159.2l-6.4,8.1"/>
	<path class="st8" d="M414.5,210.1l-10.2,1.5"/>
	<path class="st14" d="M394.9,255l14.2,6.6"/>
	<path class="st14" d="M373.1,281.3l9.3,12.6"/>
	<path class="st8" d="M398.6,278l-7.9-6.2"/>
	<path class="st7" d="M284.8,173.9L274,162.4"/>
	<path class="st7" d="M264.6,203.1l-15.1-4.6"/>
	<path class="st7" d="M262.5,241.4l-15.7,1.2"/>
	<path class="st7" d="M276.6,270.4l-12,10.2"/>
	<path class="st7" d="M301.5,289.8l-5.6,14.7"/>
	<path class="st7" d="M337.4,295.9l1.4,15.7"/>
	<path class="st8" d="M360.6,306.3l-3.1-9.6"/>
	<path class="st18" d="M317.4,299.3l-0.9,11.2"/>
	<path class="st8" d="M278.1,293.2l6.6-7.6"/>
	<path class="st8" d="M254.3,263.3l9.2-4.1"/>
	<path class="st8" d="M255.6,220.8l-10.1,0"/>
	<path class="st8" d="M268.7,183.7l-8.6-5.3"/>
	<path class="st8" d="M295.3,159.5l-4.8-8.9"/>
	<path class="st19" d="M323.8,342.1l-0.2,6.3"/>
	<path class="st11" d="M296.4,347l2.5-9.7"/>
	<path class="st19" d="M277.4,327.8l-3.2,5.5"/>
	<path class="st11" d="M251.6,322l7-7.2"/>
	<path class="st20" d="M223.3,284.9l9.1-4.4"/>
	<path class="st21" d="M339,327.1l26.5-4.9"/>
	<path class="st22" d="M254.1,152.8l-22.1-22.1"/>
	<path class="st23" d="M341.7,346.3c-2.2-34.4-0.9-14.2-1.3-20"/>
	<path class="st24" d="M226.7,298.2c1.5,2.6,2.8,5.1,6.3,9.2"/>
	<path class="st25" d="M279.4,324.3l-3.2,5.5"/>
	<path class="st25" d="M323.8,337.1l-0.2,6.3"/>
	<path class="st26" d="M350.3,341.5c7-1.1,12.7-2.7,19.1-4.5"/>
	<path class="st27" d="M351.3,352.3l-1.8-14.6"/>
	<path class="st28" d="M323.3,147.4v-5.1h-1.5v-0.7h3.7v0.7h-1.6v5.1H323.3z M326.1,147.4v-5.7h3.4v0.7h-2.8v1.8h2.6v0.7h-2.6v1.9
		h2.9v0.7H326.1z M330.5,147.4v-5.7h0.9l1.1,4.1l0.2,0.8c0.1-0.2,0.1-0.5,0.3-0.9l1.1-4h0.8v5.7h-0.6v-4.8l-1.4,4.8h-0.6l-1.4-4.9
		v4.9H330.5z M336,147.4v-5.7h1.8c0.4,0,0.7,0,0.9,0.1c0.3,0.1,0.5,0.3,0.6,0.6s0.2,0.6,0.2,1c0,0.5-0.1,0.9-0.4,1.3
		s-0.7,0.5-1.4,0.5h-1.2v2.3H336z M336.6,144.4h1.2c0.4,0,0.7-0.1,0.8-0.3s0.3-0.4,0.3-0.8c0-0.2,0-0.4-0.1-0.6s-0.2-0.3-0.3-0.3
		s-0.3-0.1-0.7-0.1h-1.2V144.4z M340.4,147.4v-0.8h0.7v0.8H340.4z M328.2,151.5c0-0.3,0.1-0.6,0.3-0.8s0.5-0.3,0.8-0.3
		s0.6,0.1,0.8,0.3s0.3,0.5,0.3,0.8s-0.1,0.6-0.3,0.8s-0.5,0.3-0.8,0.3s-0.6-0.1-0.8-0.3S328.2,151.8,328.2,151.5z M328.6,151.5
		c0,0.2,0.1,0.3,0.2,0.5s0.3,0.2,0.5,0.2s0.3-0.1,0.5-0.2s0.2-0.3,0.2-0.5s-0.1-0.3-0.2-0.5s-0.3-0.2-0.5-0.2s-0.3,0.1-0.5,0.2
		S328.6,151.3,328.6,151.5z M334.7,154.2l0.6,0.2c-0.1,0.6-0.4,1.1-0.7,1.4s-0.8,0.5-1.3,0.5c-0.4,0-0.8-0.1-1.1-0.3s-0.6-0.6-0.8-1
		s-0.3-1-0.3-1.7c0-0.6,0.1-1.2,0.3-1.6s0.5-0.8,0.8-1s0.7-0.3,1.1-0.3c0.5,0,0.8,0.1,1.2,0.4s0.6,0.7,0.7,1.2l-0.6,0.2
		c-0.2-0.8-0.6-1.2-1.3-1.2c-0.3,0-0.6,0.1-0.8,0.2s-0.4,0.4-0.5,0.7s-0.2,0.8-0.2,1.3c0,0.8,0.1,1.4,0.4,1.8s0.6,0.6,1.1,0.6
		c0.3,0,0.6-0.1,0.9-0.4S334.6,154.7,334.7,154.2z"/>
	<path class="st17" d="M248.7,282.1l-28.6,21"/>
	<path class="st8" d="M426.6,126.5l-10.9,11.4"/>
	<path class="st29" d="M334.1,223.8c0,1.5-1.2,2.7-2.7,2.7c-1.5,0-2.7-1.2-2.7-2.7s1.2-2.7,2.7-2.7
		C332.9,221.1,334.1,222.3,334.1,223.8z"/>
</g>
</svg>
