<?xml version="1.0" encoding="utf-8"?>
<!-- Generator: Adobe Illustrator 24.0.2, SVG Export Plug-In . SVG Version: 6.00 Build 0)  -->
<svg version="1.1" id="svg2" xmlns:svg="http://www.w3.org/2000/svg"
	 xmlns="http://www.w3.org/2000/svg" xmlns:xlink="http://www.w3.org/1999/xlink" x="0px" y="0px" viewBox="0 0 420.4 420.4"
	 style="enable-background:new 0 0 420.4 420.4;" xml:space="preserve">
<style type="text/css">
	.st0{fill:#F0F0F0;}
	.st1{fill:#808080;}
	.st2{fill-rule:evenodd;clip-rule:evenodd;fill:#FFFFFF;}
	.st3{fill:none;stroke:#FFFFFF;stroke-width:7.0235;}
	.st4{fill:none;stroke:#FFFFFF;stroke-width:5.6057;}
	.st5{fill:none;stroke:#FFFFFF;stroke-width:5.6633;}
	.st6{fill:none;stroke:#FFFFFF;stroke-width:2.8029;}
	.st7{fill-rule:evenodd;clip-rule:evenodd;stroke:#7F7F7F;}
	.st8{fill:#C5C5C5;}
	.st9{fill:none;stroke:#FFFFFF;stroke-width:7.0071;stroke-miterlimit:13.9258;}
	.st10{fill:none;stroke:#FFFFFF;stroke-width:7.0071;}
	.st11{fill:none;stroke:#FFFFFF;stroke-width:15.6792;}
	.st12{fill:#FFFFFF;}
	.st13{fill:none;stroke:#FFFFFF;stroke-width:3.0516;}
	.st14{fill:none;stroke:#000000;stroke-width:13.5622;stroke-miterlimit:11.3356;}
</style>
<path class="st0" d="M362.3,210.2c0.1,2.1,0.1,4.2,0.1,6.3c0,84.1-68.1,152.2-152.2,152.2S58.1,300.6,58.1,216.5
	c0-2.1,0.1-4.2,0.1-6.3H0v210.2h420.4V210.2H362.3z"/>
<path class="st0" d="M58.2,210.2c-0.1-2.1-0.1-4.2-0.1-6.3c0-84.1,68.1-152.2,152.2-152.2s152.1,68.1,152.1,152.2
	c0,2.1-0.1,4.2-0.1,6.3h58.2V0H0.1v210.2H58.2z"/>
<g id="layer1" transform="translate(-162.89095,-73.968439)">
	<path id="path2396" class="st1" d="M373.1,74c-116,0-210.2,94.2-210.2,210.2s94.2,210.2,210.2,210.2s210.2-94.2,210.2-210.2
		S489.1,74,373.1,74z M373.1,152c72.9,0,132.2,59.2,132.2,132.2c0,72.9-59.2,132.1-132.2,132.1s-132.2-59.1-132.2-132.1
		S300.2,152,373.1,152z"/>
	<path id="path3288" class="st2" d="M366,124.7h14.2l27.9-42l-70.2-0.1L366,124.7z"/>
	<rect id="rect3290" x="368" y="104" class="st1" width="10.2" height="23"/>
	<path id="path3184" class="st3" d="M373.1,105.7V152"/>
	<path id="path3186" class="st4" d="M203.4,286.3h37.7"/>
	<path id="path3190" class="st4" d="M225.8,199.8l32.6,18.8"/>
	<path id="path3192" class="st4" d="M286.3,138.4l18.8,32.5"/>
	<path id="path3194" class="st5" d="M460,138.5l-18.7,32.4"/>
	<path id="path3198" class="st4" d="M520.3,200.1L488,218.7"/>
	<path id="path3247" class="st4" d="M505.2,286.3h37.3"/>
	<path id="path3258" class="st6" d="M344.3,134l3.6,20.5"/>
	<path id="path3260" class="st6" d="M320,140.9l7.1,19.6"/>
	<path id="path3262" class="st6" d="M404.2,134.5l-3.6,20.5"/>
	<path id="path3264" class="st6" d="M428.2,141.7l-7.1,19.6"/>
	<g id="g3217">
		<path id="path3331" class="st7" d="M351.1,358.8l-27.9,48.3h-21.5l-27.4,47.4l21.7,18.1l76.7,11.4v0.2l0.5-0.1l0.5,0.1V484
			l73.4-7.7l24.9-21.9L444.7,407h-21.5l-27.9-48.3h-21.5h-1.1L351.1,358.8L351.1,358.8z"/>
		<path id="path3354" class="st8" d="M404.3,421.5c0,17.2-14,31.2-31.2,31.2s-31.2-14-31.2-31.2s14-31.2,31.2-31.2
			S404.3,404.3,404.3,421.5z"/>
		<path id="path3360" class="st9" d="M414.4,284.2c0,22.8-18.5,41.3-41.3,41.3s-41.3-18.5-41.3-41.3"/>
		<path id="path3362" class="st10" d="M335.6,285.2H290"/>
		<path id="path3366" class="st10" d="M456.2,285.2h-45.5"/>
		<path id="path3368" class="st11" d="M373.1,327.5v30"/>
		<path id="path2451" class="st12" d="M380.6,284.2c0,4.1-3.4,7.5-7.5,7.5s-7.5-3.4-7.5-7.5s3.4-7.5,7.5-7.5S380.6,280,380.6,284.2z
			"/>
		<path id="path3223" class="st13" d="M373.1,324.6v-34.1"/>
	</g>
	<path id="path3178" class="st14" d="M576.5,284.2c0,112.4-91.1,203.4-203.4,203.4s-203.4-91.1-203.4-203.4S260.8,80.7,373.1,80.7
		S576.5,171.8,576.5,284.2z"/>
</g>
</svg>
