<?xml version="1.0" encoding="utf-8"?>
<!-- Generator: Adobe Illustrator 24.0.2, SVG Export Plug-In . SVG Version: 6.00 Build 0)  -->
<svg version="1.1"
	 id="svg4201" inkscape:output_extension="org.inkscape.output.svg.inkscape" inkscape:version="0.46" sodipodi:docname="heading.svg" sodipodi:version="0.32" xmlns:cc="http://creativecommons.org/ns#" xmlns:dc="http://purl.org/dc/elements/1.1/" xmlns:inkscape="http://www.inkscape.org/namespaces/inkscape" xmlns:rdf="http://www.w3.org/1999/02/22-rdf-syntax-ns#" xmlns:sodipodi="http://sodipodi.sourceforge.net/DTD/sodipodi-0.dtd" xmlns:svg="http://www.w3.org/2000/svg"
	 xmlns="http://www.w3.org/2000/svg" xmlns:xlink="http://www.w3.org/1999/xlink" x="0px" y="0px" viewBox="0 0 340 340"
	 style="enable-background:new 0 0 340 340;" xml:space="preserve">
<style type="text/css">
	.st0{fill-rule:evenodd;clip-rule:evenodd;}
	.st1{fill:none;stroke:#FFFFFF;stroke-width:3;stroke-miterlimit:4;}
	.st2{fill:#FFFFFF;}
	.st3{fill:none;stroke:#FFFFFF;stroke-width:0.5;stroke-miterlimit:4.2875;}
	.st4{display:none;fill-rule:evenodd;clip-rule:evenodd;}
</style>
<sodipodi:namedview  bordercolor="#666666" borderopacity="1.0" gridtolerance="10000" guidetolerance="10" id="base" inkscape:current-layer="layer3" inkscape:cx="70.275877" inkscape:cy="313.56723" inkscape:document-units="px" inkscape:guide-bbox="true" inkscape:pageopacity="0.0" inkscape:pageshadow="2" inkscape:window-height="718" inkscape:window-width="1022" inkscape:window-x="0" inkscape:window-y="0" inkscape:zoom="0.35355339" objecttolerance="10" pagecolor="#ffffff" showgrid="false" showguides="true">
	<sodipodi:guide  id="guide4772" orientation="1,0" position="197.50061,988.00022"></sodipodi:guide>
	<sodipodi:guide  id="guide4774" orientation="0,1" position="77.137277,867.5"></sodipodi:guide>
</sodipodi:namedview>
<g id="layer3" transform="translate(-30.452878,-17.814455)" inkscape:groupmode="layer" inkscape:label="v">
	
		<path id="path5795" sodipodi:cx="191.42857" sodipodi:cy="187.36218" sodipodi:rx="114.28571" sodipodi:ry="114.28571" sodipodi:type="arc" class="st0" d="
		M370.1,189.4c-0.7,93.7-77,169-170.7,168.4s-169-77-168.4-170.7S108,18,201.7,18.7C295.4,19.4,370.7,95.9,370.1,189.4z"/>
	<g id="g5978" transform="matrix(-0.2012473,0.9795405,-0.9795405,-0.2012473,424.76388,29.258094)">
		<path id="path5639" class="st1" d="M69.7,190.4L37.2,191 M64.9,202.4l-27,2.9 M69.6,225.8l-26.1,7.6 M78.3,248l-24.4,12
			 M90.6,268.3l-22,16 M106.3,286.3l-18.8,19.5 M124.7,301.4L109.6,324 M145.7,312.7l-11,24.8 M168.2,320.4l-6.6,26.4 M191.7,324
			l-1.9,27.1 M215.5,323.6l2.9,27 M238.9,319.1l7.6,26.1 M261.2,310.4l12,24.3 M281.5,298l16,22 M299.4,282.4l19.7,18.8
			 M314.5,263.8L314.5,263.8 M314.5,264l22.6,15.1 M326,243l24.8,11 M333.6,220.5L360,227 M337.2,196.8l27.1,1.9 M336.9,173l27-2.9
			 M332.2,149.7l26.1-7.6 M323.5,127.5l24.4-12 M311.3,107.1l22-16 M295.6,89.1l18.8-19.7 M277.1,74.2L277.1,74.2 M277.1,74.2
			l15.1-22.6 M256.1,62.7l11-24.8 M233.6,55.1l6.6-26.4 M210.1,51.3l1.9-27.1 M186.3,51.8l-2.9-27 M162.9,56.5l-7.6-26.1
			 M140.6,65.1l-12-24.4 M120.2,77.4l-15.9-21.8 M102.4,93L82.7,74.2 M87.3,111.6L64.7,96.5 M76,132.5l-24.8-11 M68.2,155.1
			l-26.4-6.6 M64.6,178.6l-27.1-1.9 M72.2,213.1L40,219.4 M78.7,235l-30.5,11.8 M88.8,255.6l-27.9,17 M102.2,274l-24.7,21.6
			 M118.7,289.9l-20.5,25.5 M137.6,302.6l-15.8,28.7 M158.6,311.7L148,342.8 M180.8,317.3l-5.1,32.4 M203.5,318.8l0.6,32.8
			 M226.2,316.5l6.3,32.2 M248.3,310l11.8,30.5 M268.7,299.9l17,28.1 M287.2,286.5l21.6,24.7 M303,270l25.5,20.5 M315.7,250.9
			l28.7,15.8 M325,230.1l31.1,10.6 M330.4,207.9l32.4,5.1 M331.9,185l32.7-0.6 M329.6,162.3l32.2-6.3 M323.1,140.4l30.5-11.8
			 M313,120l28.1-17 M299.6,101.5l24.7-21.6 M283.1,85.6l20.5-25.5 M264.2,72.9L280,44.2 M243.2,63.7l10.6-30.9 M221.1,58.3
			l5.1-32.4 M198.3,56.6l-0.6-32.8 M175.6,59.1l-6.3-32.2 M153.7,65.4l-11.8-30.5 M133.1,75.5l-17-27.9 M114.6,89.1L93,64.5
			 M98.8,105.5L73.4,85 M86.1,124.5l-28.7-15.8 M76.8,145.5l-31.1-10.6 M71.4,167.6l-32.4-5.1"/>
		<path id="text5666" class="st2" d="M108.4,217.8l-29.1,5.7l-0.8-4l19.9-19.8l-22.9,4.5l-0.7-3.7l29.1-5.7l0.8,4l-19.9,19.8
			l22.9-4.5L108.4,217.8"/>
		<path id="text5670" class="st2" d="M308.2,178.6l-0.4-3.7c-1.5,0.1-2.8,0-3.9-0.4c-1.1-0.4-2.1-1.3-2.9-2.5
			c-0.8-1.3-1.4-2.6-1.8-4.3c-0.3-1.5-0.4-2.8-0.1-4s0.7-2.2,1.3-2.9c0.7-0.7,1.4-1.1,2.4-1.4c1-0.1,1.8-0.1,2.5,0.3
			c0.8,0.4,1.5,1.1,2.2,2.2c0.4,0.7,1.2,2.4,2.5,4.9s2.2,4.3,3,5.3c1,1.3,2.1,2.1,3.3,2.7c1.2,0.4,2.5,0.6,3.9,0.3
			c1.5-0.3,2.8-0.9,3.9-2c1.1-1.1,1.8-2.5,2.2-4.3c0.3-1.8,0.3-3.6-0.1-5.5c-0.4-2.2-1.2-4-2.2-5.6s-2.3-2.6-3.9-3.2
			c-1.5-0.6-3.2-0.9-4.8-0.6l0.4,3.7c1.9-0.1,3.5,0.3,4.6,1.1c1.1,1,1.9,2.5,2.5,4.9c0.4,2.4,0.4,4.2-0.3,5.4s-1.5,1.9-2.8,2.2
			c-1.1,0.3-1.9,0-2.8-0.6c-0.8-0.6-1.9-2.4-3.3-5.4c-1.4-3.1-2.3-5-3.1-6.1c-1.1-1.5-2.3-2.6-3.7-3.2c-1.4-0.6-2.8-0.7-4.4-0.4
			c-1.5,0.3-2.9,1.1-4.2,2.2c-1.3,1.1-2,2.6-2.4,4.4s-0.4,3.7,0,5.8c0.5,2.6,1.4,4.7,2.4,6.4c1.1,1.7,2.6,2.8,4.3,3.5
			C304.3,178.8,306.2,179,308.2,178.6"/>
		<path id="text5674" class="st2" d="M208.5,284.1l-2,30.7l4-0.8l0.7-19.9c0-2.1,0.2-4.2,0-6.2c1.4,2.9,2.2,4.7,2.3,5.1l9.4,18.6
			l4.7-0.9l1.2-15.6c0.3-3.9,0.5-7.5,0.2-10.8c0.7,1.8,1.6,3.7,2.7,6.1l8.3,17.8l3.9-0.8l-13.8-27.6l-3.7,0.7l-1.8,23.4
			c-0.2,1.9-0.3,3.2-0.3,3.6c-0.5-1.2-1.1-2.4-1.5-3.2l-10.5-21L208.5,284.1"/>
		<path id="text5678" class="st2" d="M165.1,65.5l5.7,29.1l21.1-4.1l-0.7-3.5l-17.2,3.3l-1.7-8.9l16.1-3.2l-0.7-3.5L171.7,78l-2-10
			l17.9-3.5l-0.7-3.5L165.1,65.5"/>
		<path id="text5682" class="st2" d="M99.4,163.6l0.4-2.8c3.6,0.6,5.8-0.2,6.5-2.4c0.4-1.2,0.3-2.5-0.4-3.6
			c-0.7-1.3-1.9-2.1-3.6-2.7c-1.5-0.6-2.9-0.6-4.2,0s-1.9,1.4-2.4,2.5c-0.1,0.6-0.3,1.1-0.3,1.9l-2.8-1.3l0.1-0.4
			c0.4-1.2,0.4-2.5-0.1-3.6c-0.5-1.1-1.5-1.8-2.8-2.4c-1.2-0.4-2.4-0.4-3.3,0c-1,0.4-1.7,1.1-2,2.1c-0.3,1-0.3,2.1,0.3,3
			c0.5,1,1.5,1.8,3,2.5l-1.5,2.5c-2.1-1.1-3.6-2.4-4.3-4c-0.7-1.5-0.8-3.2-0.2-4.8c0.6-1.8,1.7-3,3.5-3.7c1.7-0.8,3.6-0.8,5.5-0.1
			c1.2,0.4,2.2,1,2.9,1.8c0.7,0.8,1.2,1.8,1.4,2.9c0.6-0.8,1.1-1.4,2-1.8c0.7-0.4,1.7-0.5,2.6-0.7c1,0,2.1,0.2,3.3,0.6
			c2.3,0.8,4.1,2.2,5.2,4.2c1.1,1.9,1.2,3.9,0.5,5.8c-0.6,1.8-1.8,3.2-3.6,4C103.7,164.1,101.6,164.2,99.4,163.6"/>
		<path id="text5686" class="st2" d="M128.1,94.6l-2,2.1c-1.1-0.8-2.1-1.4-2.9-1.5c-1.1-0.1-2.1,0.1-2.9,0.8c-1.3,1.1-1.5,2.8-1,4.8
			c0.5,1.8,1.9,4,4.1,6.7c-0.3-1.4-0.3-2.5,0-3.6c0.3-1.1,0.8-2.1,1.7-2.8c1.4-1.2,3.1-1.6,5.1-1.2c2.1,0.3,4,1.6,5.8,3.6
			c1.2,1.4,2.1,2.9,2.6,4.4c0.5,1.5,0.5,2.9,0.2,4.2c-0.3,1.2-1,2.3-2,3.2c-1.7,1.5-3.9,1.9-6.4,1.3s-5.4-2.7-8.5-6.3
			c-3.6-4-5.5-7.4-5.7-10.1c-0.4-2.8,0.3-4.8,2.1-6.5c1.3-1.1,2.8-1.6,4.4-1.5C124.8,92.2,126.5,93.1,128.1,94.6 M127.5,111.1
			c1.4,1.5,2.8,2.4,4.3,2.7s2.8,0,3.7-0.8c0.8-0.7,1.1-1.8,1.1-3.2c-0.1-1.4-0.8-2.9-2.2-4.4c-1.2-1.5-2.6-2.4-4-2.7
			c-1.4-0.3-2.5,0-3.5,0.8s-1.4,1.9-1.3,3.3C125.5,108.3,126.2,109.7,127.5,111.1"/>
		<path id="text5690" class="st2" d="M224.6,93.2l-2.5-0.8l6.5-19.1c-0.8,0.4-1.8,1-2.9,1.2c-1.2,0.4-2.2,0.5-3.2,0.7l1-2.9
			c1.7-0.3,3.2-0.8,4.6-1.6c1.4-0.8,2.5-1.6,3.3-2.5l1.7,0.6L224.6,93.2 M244.7,96.9l-1,2.9l-13.3-4.5c0.4-1.2,1.1-2.3,2.4-3.6
			s3.2-2.5,5.8-3.7c3.1-1.5,5.1-2.7,6.3-3.7c1.1-1,2-2.1,2.2-3.2c0.4-1.2,0.4-2.4-0.1-3.5c-0.4-1-1.2-1.7-2.3-2.1s-2.2-0.3-3.2,0.3
			c-1,0.5-1.8,1.6-2.4,3.3l-2.5-1.1c1-2.3,2.2-3.9,3.8-4.5c1.5-0.8,3.3-0.8,5.1-0.2c2.1,0.7,3.3,2,4,3.6c0.5,1.7,0.5,3.5,0,5.3
			c-0.6,1.5-1.4,2.9-2.8,4c-1.3,1.1-3.5,2.5-6.7,4.1c-1.9,1-3.3,1.6-3.9,2c-0.6,0.4-1.1,0.8-1.5,1.2L244.7,96.9"/>
		<path id="text5694" class="st2" d="M267.6,116.9l-1.8-2.1l16.3-14.3c-1,0-2.2-0.2-3.5-0.4c-1.2-0.3-2.3-0.7-3.3-1.1l2.5-2.2
			c1.7,0.6,3.3,0.9,5.1,0.9c1.8,0,3.2-0.1,4.4-0.5l1.2,1.4L267.6,116.9 M277.7,117.4l2.2,2c-1.1,1.4-1.8,2.6-2,3.7s0.1,2.2,0.8,2.9
			c0.8,1,2.1,1.4,3.6,1.4c1.5-0.1,3.2-0.8,4.7-2.2c1.5-1.2,2.4-2.6,2.5-4.1c0.3-1.4-0.1-2.6-1.1-3.7c-0.5-0.7-1.2-1.1-2.1-1.3
			c-0.8-0.3-1.7-0.3-2.6,0l-1.4-2.2l12.2-7.7l7.4,8.5l-2.5,2.2l-5.9-6.8l-6.4,4c1.8,0.3,3.2,1,4.1,2.1c1.2,1.4,1.8,3.2,1.5,5.4
			c-0.3,2.1-1.4,4.1-3.5,5.9c-2.1,1.8-4.3,2.7-6.7,3c-2.4,0.3-4.3-0.6-5.9-2.4c-1.2-1.5-1.9-3.2-1.8-5.1
			C275.1,121,276.1,119.2,277.7,117.4"/>
		<path id="text5698" class="st2" d="M296.4,219.5l-3-1l4.8-14.2c1.2,0.4,2.5,1.3,3.9,2.5c1.2,1.4,2.6,3.5,4,6.3
			c1.6,3.3,3,5.6,4.1,6.8c1.1,1.3,2.2,2.1,3.3,2.4c1.4,0.4,2.6,0.4,3.6-0.1c1.1-0.5,1.8-1.4,2.2-2.5c0.4-1.2,0.3-2.4-0.4-3.5
			c-0.7-1.1-1.8-2-3.4-2.5l1.3-2.6c2.5,1,4.1,2.4,5,4c0.8,1.7,0.9,3.5,0.2,5.5c-0.7,2.2-2.1,3.6-3.9,4.3c-1.8,0.7-3.7,0.7-5.7,0
			c-1.7-0.6-3.2-1.5-4.4-2.9c-1.2-1.4-2.7-3.8-4.4-7.1c-1.1-2.1-1.8-3.5-2.2-4.2s-0.8-1.3-1.4-1.7L296.4,219.5 M289,231.1l0.8-2.6
			l20.6,7.1c-0.5-0.8-1-1.9-1.4-3.2c-0.4-1.2-0.7-2.4-0.7-3.5l3.2,1.1c0.4,1.8,0.9,3.3,1.8,4.9c0.8,1.5,1.8,2.8,2.7,3.6l-0.6,1.7
			L289,231.1"/>
		<path id="text5702" class="st2" d="M266.9,262.5l-2.2-2.5l11.3-9.9c1,1,1.6,2.4,2,4.2c0.4,1.8,0.5,4.3,0.4,7.5
			c-0.3,3.7-0.2,6.4,0.1,7.9c0.3,1.7,0.9,2.9,1.8,3.7c1,1.1,2.1,1.7,3.2,1.8c1.2,0.1,2.2-0.3,3.2-0.9c1-0.8,1.4-1.9,1.4-3.2
			s-0.5-2.6-1.8-3.9l2.4-1.6c1.6,2.1,2.3,4.2,2.3,6c-0.2,1.9-1,3.5-2.5,5c-1.8,1.5-3.6,2.1-5.5,1.8c-1.9-0.4-3.6-1.3-4.8-2.8
			c-1.1-1.4-1.9-2.9-2.3-4.7c-0.4-1.8-0.4-4.6-0.2-8.3c0.2-2.4,0.2-4,0.2-4.7c0-0.8-0.1-1.5-0.4-2.2L266.9,262.5 M255.9,267.8l4.4,5
			l7.4-6.5l2.1,2.4l4,20.4l-1.7,1.5l-11.8-13.5l-2.4,2.1l-2.1-2.4l2.4-2.1l-4.4-5L255.9,267.8 M262.2,275.2l8.2,9.5l-2.8-14.1
			L262.2,275.2"/>
		<path id="text5706" class="st2" d="M183.9,291.4l-2.8-0.4c0.6-3.6-0.2-5.8-2.4-6.5c-1.2-0.4-2.5-0.3-3.6,0.4
			c-1.3,0.7-2.1,1.9-2.7,3.6c-0.6,1.5-0.6,2.9,0,4.2s1.4,1.9,2.5,2.4c0.6,0.1,1.1,0.3,1.9,0.3l-1.3,2.8l-0.4-0.1
			c-1.2-0.4-2.5-0.4-3.6,0.1c-1.1,0.5-1.8,1.5-2.4,2.8c-0.4,1.2-0.4,2.4,0,3.3c0.4,1,1.1,1.7,2.1,2c1,0.3,2.1,0.3,3-0.3
			c1-0.5,1.8-1.5,2.5-3l2.5,1.5c-1.1,2.1-2.4,3.6-4,4.3c-1.5,0.7-3.2,0.8-4.8,0.2c-1.8-0.6-3-1.7-3.7-3.5c-0.8-1.7-0.8-3.6-0.1-5.5
			c0.4-1.2,1-2.2,1.8-2.9c0.8-0.7,1.8-1.2,2.9-1.4c-0.8-0.6-1.4-1.1-1.8-2c-0.4-0.7-0.5-1.7-0.7-2.6c0-1,0.2-2.1,0.6-3.3
			c0.8-2.3,2.2-4.1,4.2-5.2c1.9-1.1,3.9-1.2,5.8-0.5c1.8,0.6,3.2,1.8,4,3.6C184.4,287,184.5,289.1,183.9,291.4 M165.1,291.7
			c-1.6,4.4-3.2,7.6-5.2,9.4c-2,1.9-4.2,2.5-6.4,1.6c-2.1-0.7-3.3-2.2-3.8-4.5c-0.7-2.8-0.2-6.5,1.5-11.3c1.6-4.4,3.2-7.5,5.2-9.4
			c2-1.9,4-2.5,6.4-1.6c2.1,0.7,3.4,2.2,4,4.7C167.4,283.1,166.8,286.7,165.1,291.7 M162.5,290.8c1.4-4.3,2-7.3,1.7-9
			c-0.3-1.7-1.1-2.8-2.5-3.2c-1.2-0.4-2.5,0-3.7,1.2c-1.3,1.2-2.7,3.9-4.1,8.1c-1.4,4.3-2,7.3-1.7,9c0.3,1.7,1.1,2.8,2.5,3.2
			c1.2,0.4,2.5,0,3.7-1.2C159.6,297.8,160.9,295,162.5,290.8"/>
		<path id="text5710" class="st2" d="M133.1,268.2l-2.2-1.8c2.4-2.9,2.8-5.1,1.2-6.9c-0.8-1-1.9-1.4-3.5-1.4c-1.4,0-2.8,0.5-4,1.8
			c-1.3,1.1-2,2.2-2.1,3.6c-0.1,1.2,0.1,2.4,0.9,3.3c0.4,0.4,0.8,0.8,1.5,1.3l-2.5,1.8l-0.3-0.4c-1-1-1.9-1.5-3.2-1.7
			c-1.2-0.1-2.4,0.4-3.3,1.2c-1,0.8-1.5,1.8-1.7,2.9c-0.1,1.1,0.1,1.9,0.8,2.8c0.7,0.8,1.7,1.3,2.8,1.3c1.1,0,2.4-0.4,3.7-1.4
			l1.4,2.5c-2.1,1.2-3.9,1.9-5.5,1.8c-1.7-0.2-3.2-0.9-4.3-2.2c-1.2-1.4-1.8-3.1-1.5-4.9c0.2-1.8,1-3.5,2.7-4.8
			c1-0.8,1.9-1.4,3.1-1.6s2.2-0.1,3.2,0.2c-0.4-0.8-0.5-1.7-0.5-2.5c0-0.8,0.3-1.7,0.8-2.6c0.4-1,1.1-1.8,2.1-2.6
			c1.9-1.6,4-2.5,6.2-2.4s4,0.9,5.4,2.5c1.2,1.5,1.8,3.2,1.6,5.1C135.7,264.8,134.8,266.6,133.1,268.2 M121.5,254.9l-2.2-1.8
			c2.4-2.9,2.8-5.1,1.2-6.9c-0.8-1-1.9-1.4-3.5-1.4c-1.4,0-2.8,0.5-4,1.8c-1.3,1.1-2,2.2-2.1,3.6c-0.1,1.2,0.1,2.4,0.9,3.3
			c0.4,0.4,0.8,0.8,1.5,1.3l-2.5,1.8l-0.3-0.4c-1-1-1.9-1.5-3.2-1.7c-1.2-0.1-2.4,0.4-3.3,1.2c-1,0.8-1.5,1.8-1.7,2.9
			c-0.1,1.1,0.1,1.9,0.8,2.8s1.7,1.3,2.8,1.3s2.4-0.4,3.7-1.4l1.4,2.5c-2.1,1.2-3.9,1.9-5.5,1.8c-1.7-0.2-3.2-0.9-4.3-2.2
			c-1.2-1.4-1.8-3.1-1.5-4.9c0.2-1.8,1-3.5,2.7-4.8c1-0.8,1.9-1.4,3.1-1.6c1.1-0.3,2.2-0.1,3.2,0.2c-0.4-0.8-0.5-1.7-0.5-2.5
			c0-0.8,0.3-1.7,0.8-2.6s1.1-1.8,2.1-2.6c1.9-1.6,4-2.5,6.2-2.4c2.2,0,4,0.9,5.4,2.5c1.2,1.5,1.8,3.2,1.6,5.1
			C124,251.4,123.1,253.2,121.5,254.9"/>
	</g>
	
		<path id="path4261" sodipodi:cx="191.42857" sodipodi:cy="187.36218" sodipodi:rx="114.28571" sodipodi:ry="114.28571" sodipodi:type="arc" class="st3" d="
		M370.1,189.4c-0.7,93.7-77,169-170.7,168.4s-169-77-168.4-170.7S108,18,201.7,18.7C295.4,19.4,370.7,95.9,370.1,189.4z"/>
	<path id="path4808" class="st4" d="M388.2,189.6c-0.7,103.7-85.5,187.1-189,186.4C95.7,375.2,12,290.6,12.7,186.9
		S98.1-0.2,201.8,0.6S388.9,85.9,388.2,189.6z M424.4,189.8c-0.9,123.7-101.9,223.4-225.6,222.5S-24.4,310.4-23.6,186.7
		S78.3-36.7,202.1-35.8S425.3,66.1,424.4,189.8z"/>
</g>
</svg>
